<?xml version="1.0" encoding="utf-8"?>
<!-- Generator: Adobe Illustrator 20.0.0, SVG Export Plug-In . SVG Version: 6.00 Build 0)  -->
<svg version="1.1" id="Layer_1" xmlns="http://www.w3.org/2000/svg" xmlns:xlink="http://www.w3.org/1999/xlink" x="0px" y="0px"
	 viewBox="0 0 1050 300" style="enable-background:new 0 0 1050 300;" xml:space="preserve">
<style type="text/css">
	.st0{fill:#02B3E4;}
	.st1{fill:#2D3C49;}
</style>
<g id="_x31_20-slate">
</g>
<g id="_x34_80-wordmark-white">
</g>
<g id="_x34_80-wordmark-blue">
</g>
<g id="_x34_80-wordmark-slate">
</g>
<g id="_x35_2-slate">
</g>
<g id="_x31_20-blue">
</g>
<g id="_x31_20-white">
</g>
<g id="_x32_40-white">
</g>
<g id="_x32_40-blue">
</g>
<g id="_x32_40-slate">
</g>
<g id="_x34_80-slate">
</g>
<g id="_x34_80-blue">
</g>
<g id="wordmark_6_">
	<path id="mark_2_" class="st0" d="M127.4,70L74,100.6l0,70.5l0,0c-0.1,32.4,26.1,58.7,58.5,58.8c10.7,0,20.8-2.8,29.4-7.8l0,0
		l43.2-24.8c17.1-8.9,28.7-26.7,28.8-47.2l0-73.7l0,0l0,0l-10.6-6.2L180,94.8l0,76.7c0,3.3-0.3,6.5-1,9.7c-0.6,3.1-1.6,6.1-2.8,9
		c-0.3,0.7-0.7,1.5-1,2.2c-1.3-0.1-1.6-0.2-3.6-0.6c-2.8-0.6-8.4-2.2-15.1-6.5c-2.3-1.5-4.4-3.3-6.3-5.2c-1.9-1.9-3.7-4.1-5.2-6.3
		c-1.5-2.3-2.8-4.7-3.9-7.3c-1.1-2.6-1.9-5.3-2.5-8c-0.6-2.8-0.7-5.6-0.7-8.5h0V76.4L127.4,70z M151,215.6c-2.9,1.2-5.9,2.1-9,2.8
		c-3.2,0.6-6.1,1-9.3,0.9c-3.3,0-6.5-0.3-9.7-1c-3.1-0.6-6.1-1.6-9-2.8c-2.8-1.2-5.6-2.7-8.1-4.4c-2.5-1.7-4.9-3.7-7.1-5.9
		c-2.2-2.2-4.1-4.6-5.8-7.1c-1.7-2.6-3.2-5.3-4.4-8.2c-1.2-2.9-2.1-5.9-2.8-9c-0.6-3.2-0.8-6.4-0.7-9.7l0-64.4l42-24.5l0,67.5h0
		c-0.1,25.7,17.8,47.1,41.9,52.3c-0.9,1.1-1.6,2.2-2.7,3.3c-2.2,2.2-4.6,4.1-7.1,5.8C156.6,213,153.8,214.4,151,215.6z M222.2,158.7
		c-0.6,2.7-1.4,5.4-2.5,8c-1.1,2.5-2.4,5-4,7.2c-1.5,2.3-3.3,4.4-5.2,6.3c-1.9,1.9-4.1,3.7-6.3,5.2c-2.3,1.5-4.7,2.8-7.3,3.9
		c-2.8,1.2-5.3,1.9-8,2.5c-0.6,0.1-1.4,0.2-1.9,0.3c2.4-6.4,4.1-13.3,4.1-20.6l0,0V101h0l32-18.4v67.5
		C223,153,222.7,155.9,222.2,158.7z"/>
	<g id="wordmark_4_">
		<g>
			<path class="st1" d="M371,158.8c0,13.3-11.1,24.2-26.2,24.2S319,172.1,319,158.8V111h-8v47.9c0,17.2,13.2,31.1,33.8,31.1
				c20.6,0,34.2-13.9,34.2-31.1l0-47.9h-8V158.8z M456.2,111l-25.2,0v78h25c23.2,0,39-14.4,39-39C495,125.5,479.4,111,456.2,111z
				 M455.4,182l-16.4,0v-64h16.4c18.9,0,31.7,11.4,31.7,32C487.1,170.7,474.4,182,455.4,182z M678.8,183
				c-18.4,0-31.5-15.1-31.5-33.6c0-18.3,13.1-32.4,31.3-32.4c14.5,0,23.6,8.6,23.6,8.6l4.1-5.6c0,0-9.4-10-27.9-10
				c-22.1,0-39,17.1-39,39.5c0,22.6,16.4,40.5,39.3,40.5c19,0,29.6-12,29.6-12l-4.4-5.4C703.9,172.6,694.4,183,678.8,183z M759,189
				h8v-78h-8V189z M813,118h28v71l8,0l0-71h28v-7h-64V118z M969.9,111l-24.8,35.9h-0.2L919.8,111h-8.7l29.9,44.5V189h8v-33.5
				l29.5-44.5H969.9z M562.7,111l-31.5,78h8.3l8.4-20.8L583,161l11.3,28h8.3L571,111L562.7,111L562.7,111z M551.4,159.6l15.4-37.8
				h0.2l13,31.9L551.4,159.6z"/>
		</g>
	</g>
</g>
<g id="_x32_50-vert-white">
</g>
<g id="_x32_50-vert-slate">
</g>
<g id="_x32_50-vert-blue">
</g>
<g id="_x35_00-vert-slate">
</g>
<g id="_x35_00-vert-blue">
</g>
<g id="_x35_00-vert-white">
</g>
<g id="_x31_000-vert-slate">
</g>
<g id="_x31_000-vert-blue">
</g>
<g id="_x31_000-vert-white_1_">
</g>
<g id="_x38_0-mark-white">
</g>
<g id="_x38_0-mark-blue">
</g>
<g id="_x38_0-mark-slate">
</g>
<g id="_x31_60-mark-blue">
</g>
<g id="_x31_60-mark-white">
</g>
<g id="_x31_60-mark-slate">
</g>
<g id="_x33_20-mark-blue">
</g>
<g id="_x33_20-mark-white">
</g>
<g id="_x31_280-mark-slate_1_">
</g>
<g id="_x31_280-mark-white_1_">
</g>
<g id="_x31_280-mark-blue">
</g>
<g id="_x33_20-mark-slate">
</g>
</svg>
