<?xml version="1.0" encoding="utf-8"?>
<!-- Generator: Adobe Illustrator 15.1.0, SVG Export Plug-In . SVG Version: 6.00 Build 0)  -->
<!DOCTYPE svg PUBLIC "-//W3C//DTD SVG 1.1//EN" "http://www.w3.org/Graphics/SVG/1.1/DTD/svg11.dtd">
<svg version="1.1" id="Layer_1" xmlns="http://www.w3.org/2000/svg" xmlns:xlink="http://www.w3.org/1999/xlink" x="0px" y="0px"
	 width="100px" height="14.833px" viewBox="0 0 100 14.833" enable-background="new 0 0 100 14.833" xml:space="preserve">
<g>
	<path fill="#02153f" d="M18.516,7.646c0-2.023,1.669-3.626,3.745-3.626c1.011,0,2.01,0.434,2.719,1.156l0.63-0.801
		c-0.88-0.828-2.102-1.34-3.363-1.34c-2.667,0-4.795,2.036-4.795,4.611c0,2.602,2.102,4.665,4.756,4.665
		c1.274,0,2.509-0.566,3.416-1.419l-0.643-0.722c-0.723,0.683-1.708,1.103-2.719,1.103C20.185,11.272,18.516,9.656,18.516,7.646
		 M30.777,6.332V5.294c-1.17,0.013-2.024,0.565-2.483,1.577V5.333h-1.025v6.925h1.025v-3.68C28.412,7.212,29.319,6.306,30.777,6.332
		 M37.451,8.803c0,1.523-1.038,2.575-2.483,2.575c-1.445,0-2.483-1.052-2.483-2.575c0-1.512,1.039-2.563,2.483-2.563
		C36.413,6.24,37.451,7.291,37.451,8.803 M38.476,8.789c0-2.062-1.458-3.482-3.508-3.482S31.46,6.727,31.46,8.789
		c0,2.076,1.458,3.508,3.508,3.508S38.476,10.865,38.476,8.789 M40.683,7.094c0-0.644,0.591-0.919,1.366-0.919
		c0.644,0,1.34,0.223,1.879,0.564l0.394-0.814c-0.578-0.394-1.38-0.63-2.207-0.63c-1.261,0-2.404,0.552-2.404,1.878
		c-0.014,2.457,3.862,1.603,3.823,3.273c-0.013,0.683-0.67,0.985-1.485,0.985s-1.708-0.329-2.299-0.88l-0.394,0.775
		c0.657,0.63,1.668,0.972,2.653,0.972c1.327,0,2.536-0.605,2.536-1.971C44.545,7.843,40.683,8.632,40.683,7.094 M46.634,7.094
		c0-0.644,0.591-0.919,1.366-0.919c0.644,0,1.34,0.223,1.879,0.564l0.395-0.814c-0.579-0.394-1.38-0.63-2.207-0.63
		c-1.261,0-2.405,0.552-2.405,1.878c-0.013,2.457,3.863,1.603,3.823,3.273c-0.012,0.683-0.67,0.985-1.484,0.985
		s-1.708-0.329-2.299-0.88l-0.395,0.775c0.657,0.63,1.669,0.972,2.654,0.972c1.327,0,2.535-0.605,2.535-1.971
		C50.496,7.843,46.634,8.632,46.634,7.094 M52.338,12.258h6.297v-1h-5.246V8.106h4.853V7.094h-4.853V4.073h5.189V3.061h-6.24V12.258
		z M65.791,12.258h1.025v-4.27c0-1.669-0.974-2.694-2.628-2.694c-1.261,0.013-2.194,0.512-2.681,1.563V5.333h-1.024v6.925h1.024
		V8.539c0.118-1.313,0.96-2.207,2.325-2.22c1.222,0,1.958,0.723,1.958,1.945V12.258z M73.816,8.645c0,1.418-0.985,2.443-2.364,2.443
		c-1.394,0-2.365-1.025-2.379-2.443c0.014-1.433,0.985-2.457,2.379-2.457C72.831,6.188,73.816,7.199,73.816,8.645 M74.842,11.535
		V5.333h-1.025v1.406c-0.5-0.919-1.394-1.445-2.575-1.445c-1.853,0.013-3.127,1.379-3.127,3.311c0,1.97,1.288,3.35,3.153,3.35
		c1.169,0,2.062-0.525,2.549-1.445v1.052c0,1.444-0.985,2.365-2.497,2.365c-0.919-0.013-1.642-0.315-2.324-0.88l-0.474,0.788
		c0.841,0.631,1.748,0.984,2.839,0.998C73.462,14.833,74.842,13.558,74.842,11.535 M81.448,9.866
		c-0.261,0.959-1.155,1.551-2.324,1.551c-0.973,0-1.591-0.5-1.591-1.262c0-0.762,0.605-1.116,1.762-1.116h2.153V9.866z
		 M81.462,12.258h0.998l-0.013-4.573c-0.012-1.484-0.959-2.391-2.665-2.391c-1.183,0-1.934,0.342-2.825,0.933l0.433,0.749
		c0.723-0.5,1.433-0.788,2.193-0.788c1.222,0,1.852,0.604,1.852,1.616v0.408h-2.271c-1.63,0.013-2.588,0.774-2.588,1.983
		c0,1.196,0.92,2.116,2.352,2.116c1.103,0,1.983-0.369,2.535-1.118V12.258z M89.753,8.645c0,1.418-0.986,2.443-2.365,2.443
		c-1.393,0-2.365-1.025-2.378-2.443c0.013-1.433,0.985-2.457,2.378-2.457C88.767,6.188,89.753,7.199,89.753,8.645 M90.777,11.535
		V5.333h-1.024v1.406c-0.499-0.919-1.393-1.445-2.575-1.445c-1.853,0.013-3.127,1.379-3.127,3.311c0,1.97,1.287,3.35,3.152,3.35
		c1.17,0,2.064-0.525,2.55-1.445v1.052c0,1.444-0.986,2.365-2.496,2.365c-0.921-0.013-1.643-0.315-2.325-0.88l-0.474,0.788
		c0.841,0.631,1.747,0.984,2.838,0.998C89.397,14.833,90.777,13.558,90.777,11.535 M98.046,8.355h-4.729
		c0.157-1.313,1.104-2.167,2.417-2.167C97.087,6.188,97.979,7.029,98.046,8.355 M95.733,5.307c-2.01,0-3.429,1.432-3.429,3.496
		c0,2.062,1.405,3.495,3.442,3.495c1.155,0,2.129-0.421,2.784-1.157l-0.564-0.604c-0.538,0.565-1.287,0.867-2.142,0.867
		c-1.34,0-2.325-0.854-2.509-2.207h5.649C99.07,6.845,97.967,5.294,95.733,5.307"/>
	<path fill="#02153f" d="M8.016,12.276v1.587c2.781-0.349,4.992-2.528,5.385-5.295h-1.589C11.446,10.467,9.93,11.952,8.016,12.276
		 M6.449,13.863v-1.587c-2.203-0.373-3.882-2.285-3.882-4.595c0-2.309,1.679-4.221,3.882-4.594V1.5C3.377,1.886,1,4.505,1,7.682
		S3.377,13.479,6.449,13.863 M11.843,7h1.584c-0.312-2.863-2.562-5.143-5.411-5.5v1.587C9.998,3.423,11.55,5.005,11.843,7"/>
</g>
</svg>
