<?xml version="1.0" encoding="utf-8"?>
<!-- Generator: Adobe Illustrator 21.1.0, SVG Export Plug-In . SVG Version: 6.00 Build 0)  -->
<svg version="1.1" xmlns="http://www.w3.org/2000/svg" xmlns:xlink="http://www.w3.org/1999/xlink" x="0px" y="0px"
	 viewBox="0 0 538.8 120.5" style="enable-background:new 0 0 538.8 120.5;" xml:space="preserve">
<style type="text/css">
	.st0{fill:#767676;}
	.st1{fill:#FAFAFA;}
	.st2{clip-path:url(#SVGID_2_);}
	.st3{fill:#0F9D58;}
	.st4{fill:#07864F;}
	.st5{fill:#004F2B;}
	.st6{clip-path:url(#SVGID_4_);}
	.st7{fill:#FFC107;}
	.st8{fill:none;stroke:#E5A300;stroke-width:2.1021;stroke-linecap:round;stroke-linejoin:round;stroke-miterlimit:10;}
	.st9{fill:none;stroke:#A56B17;stroke-width:2.1021;stroke-linecap:round;stroke-linejoin:round;stroke-miterlimit:10;}
	.st10{fill:none;stroke:#A56B17;stroke-width:1.4573;stroke-linecap:round;stroke-linejoin:round;stroke-miterlimit:10;}
	.st11{fill:none;stroke:#E5A300;stroke-width:1.4573;stroke-linecap:round;stroke-linejoin:round;stroke-miterlimit:10;}
	.st12{clip-path:url(#SVGID_6_);}
	.st13{fill:#4285F4;}
	.st14{fill:#2167CE;}
	.st15{fill:#144570;}
	.st16{clip-path:url(#SVGID_8_);}
	.st17{fill:#DB4437;}
	.st18{fill:none;stroke:#A00000;stroke-width:4.7048;stroke-miterlimit:10;}
	.st19{fill:none;}
	.st20{fill:#630000;}
	.st21{fill:#D9413D;}
	.st22{clip-path:url(#SVGID_10_);}
	.st23{clip-path:url(#SVGID_12_);}
	.st24{clip-path:url(#SVGID_14_);}
	.st25{clip-path:url(#SVGID_16_);}
</style>
<g id="txt">
	<g>
		<path class="st1" d="M431.7,119.3h-30.3v-6.4c9.1-9.1,14.9-15.1,17.5-17.9c2.3-2.6,3.8-4.5,4.6-5.8c0.8-1.3,1.2-3,1.2-4.9
			c0-2-0.8-3.8-2.4-5.3c-1.6-1.5-3.7-2.3-6.3-2.3c-2.4,0-4.4,0.7-5.8,2.1c-1.5,1.4-2.4,2.9-2.9,4.6l-5.8-2.4
			c0.8-2.5,2.4-4.9,4.9-7.1c2.5-2.2,5.8-3.3,9.7-3.3c4.4,0,8,1.3,10.9,4c2.8,2.7,4.2,5.9,4.2,9.7c0,4.6-2.5,9.6-7.6,14.9l-13.9,14
			h22.1V119.3z"/>
		<path class="st1" d="M470.8,113.2c-3.5,4.8-8.1,7.2-13.8,7.2s-10.3-2.4-13.9-7.2c-3.5-4.8-5.3-10.7-5.3-17.7
			c0-7.1,1.8-13,5.3-17.8c3.5-4.8,8.1-7.1,13.9-7.1s10.3,2.4,13.8,7.1c3.5,4.8,5.3,10.7,5.3,17.8
			C476.1,102.5,474.3,108.5,470.8,113.2z M456.9,114.3c3.8,0,6.9-1.8,9.2-5.4c2.3-3.6,3.4-8,3.4-13.4c0-5.4-1.1-9.9-3.4-13.5
			c-2.3-3.5-5.3-5.3-9.2-5.3c-3.9,0-6.9,1.8-9.2,5.3c-2.3,3.5-3.4,8-3.4,13.5c0,5.4,1.1,9.9,3.4,13.4
			C450,112.5,453.1,114.3,456.9,114.3z"/>
		<path class="st1" d="M499.3,119.3h-6.4V79.6l-9.3,4l-2.4-5.4l14-6.5h4.1V119.3z"/>
		<path class="st1" d="M515.7,120.4l-5.7-2.9L532,77.8h-24.1l0.1-6.1h30.7v6.5L515.7,120.4z"/>
	</g>
	<path class="st1" d="M154.4,29.9c0,7-2.1,12.6-6.2,16.7c-4.7,4.9-10.9,7.4-18.4,7.4c-7.2,0-13.4-2.5-18.4-7.5
		c-5.1-5-7.6-11.2-7.6-18.7s2.5-13.6,7.6-18.7c5.1-5,11.2-7.5,18.4-7.5c3.6,0,7,0.7,10.3,2.1s5.9,3.3,7.8,5.6l-4.4,4.4
		c-3.3-4-7.9-6-13.7-6c-5.3,0-9.8,1.9-13.7,5.6c-3.9,3.7-5.8,8.5-5.8,14.5c0,5.9,1.9,10.7,5.8,14.5c3.9,3.7,8.4,5.6,13.7,5.6
		c5.6,0,10.3-1.9,14-5.6c2.4-2.4,3.8-5.8,4.2-10.2h-18.2v-6h24.3C154.3,27.4,154.4,28.7,154.4,29.9z"/>
	<path class="st1" d="M162.3,52.9V2.8h15.3c7.7,0,13.9,2.3,18.5,7c4.6,4.6,6.9,10.7,6.9,18.1s-2.3,13.5-6.9,18.1s-10.8,7-18.5,7
		L162.3,52.9L162.3,52.9z M168.7,46.8h8.9c5.8,0,10.4-1.7,13.8-5s5.1-8,5.1-13.9s-1.7-10.6-5.1-13.9s-8-5-13.8-5h-8.9V46.8z"/>
	<path class="st1" d="M258.9,29.9c0,7-2.1,12.6-6.2,16.7c-4.7,4.9-10.9,7.4-18.4,7.4c-7.2,0-13.4-2.5-18.4-7.5
		c-5.1-5-7.6-11.2-7.6-18.7s2.4-13.6,7.5-18.6s11.2-7.5,18.4-7.5c3.6,0,7,0.7,10.3,2.1s5.9,3.3,7.8,5.6l-4.4,4.4
		c-3.3-4-7.9-6-13.7-6c-5.3,0-9.8,1.9-13.7,5.6c-3.9,3.7-5.8,8.5-5.8,14.5c0,5.9,1.9,10.7,5.8,14.5c3.9,3.7,8.4,5.6,13.7,5.6
		c5.6,0,10.3-1.9,14-5.6c2.4-2.4,3.8-5.8,4.2-10.2h-18.2v-6h24.3C258.8,27.4,258.9,28.7,258.9,29.9z"/>
	<path class="st1" d="M282.1,52.9V2.8h15.3c7.7,0,13.9,2.3,18.5,7c4.6,4.6,6.9,10.7,6.9,18.1s-2.3,13.5-6.9,18.1
		c-4.6,4.6-10.8,7-18.5,7L282.1,52.9L282.1,52.9z M288.6,46.8h8.9c5.8,0,10.4-1.7,13.8-5s5.1-8,5.1-13.9s-1.7-10.6-5.1-13.9
		c-3.4-3.3-8-5-13.8-5h-8.9L288.6,46.8L288.6,46.8z"/>
	<path class="st1" d="M343.9,54c-5.2,0-9.4-1.7-12.6-5.2c-3.2-3.5-4.9-7.8-4.9-13.1c0-5,1.6-9.3,4.7-12.9c3.2-3.6,7.2-5.4,12.1-5.4
		c5.1,0,9.2,1.7,12.2,5c3.1,3.3,4.6,7.7,4.6,13.3l-0.1,1.2h-27.1c0.2,3.5,1.3,6.2,3.5,8.2c2.1,2,4.6,3,7.5,3c4.6,0,7.7-2,9.4-5.9
		l5.7,2.4c-1.1,2.7-3,4.9-5.5,6.7C350.8,53.1,347.6,54,343.9,54z M353.1,31.6c-0.1-2-1-3.8-2.7-5.6c-1.7-1.8-4.1-2.7-7.4-2.7
		c-2.4,0-4.4,0.7-6.2,2.2s-3,3.5-3.6,6L353.1,31.6L353.1,31.6z"/>
	<path class="st1" d="M375.4,52.9l-13.9-34.3h7l10.1,26.6h0.1l10.2-26.6h6.9l-14,34.3H375.4z"/>
	<path class="st1" d="M407.6,52.9h-6.4V2.8h29.3V9h-22.8v16.5h20.6v6h-20.6L407.6,52.9L407.6,52.9z"/>
	<path class="st1" d="M450,54c-5.2,0-9.4-1.7-12.6-5.2c-3.2-3.5-4.9-7.8-4.9-13.1c0-5,1.6-9.3,4.7-12.9c3.2-3.6,7.2-5.4,12.1-5.4
		c5.1,0,9.2,1.7,12.2,5c3.1,3.3,4.6,7.7,4.6,13.3l-0.1,1.2h-27.1c0.2,3.5,1.3,6.2,3.5,8.2c2.1,2,4.6,3,7.5,3c4.6,0,7.7-2,9.4-5.9
		l5.7,2.4c-1.1,2.7-3,4.9-5.5,6.7C456.9,53.1,453.7,54,450,54z M459.2,31.6c-0.1-2-1-3.8-2.7-5.6c-1.7-1.8-4.1-2.7-7.4-2.7
		c-2.4,0-4.4,0.7-6.2,2.2s-3,3.5-3.6,6L459.2,31.6L459.2,31.6z"/>
	<path class="st1" d="M485.1,54c-3.8,0-7-0.9-9.5-2.8s-4.3-4.2-5.5-7l5.7-2.4c1.8,4.3,4.9,6.4,9.3,6.4c2,0,3.7-0.4,4.9-1.3
		c1.3-0.9,1.9-2.1,1.9-3.5c0-2.2-1.6-3.8-4.7-4.6l-6.9-1.7c-2.2-0.6-4.3-1.6-6.2-3.2c-2-1.6-2.9-3.7-2.9-6.3c0-3,1.3-5.5,4-7.4
		s5.9-2.8,9.6-2.8c3,0,5.7,0.7,8.1,2.1c2.4,1.4,4.1,3.3,5.1,5.9l-5.6,2.3c-1.3-3-3.9-4.6-7.8-4.6c-1.9,0-3.5,0.4-4.8,1.2
		c-1.3,0.8-2,1.9-2,3.2c0,2,1.5,3.3,4.5,4l6.8,1.6c3.2,0.7,5.6,2,7.1,3.9s2.3,3.9,2.3,6.2c0,3.1-1.3,5.6-3.8,7.7
		C492.3,53,489,54,485.1,54z"/>
	<path class="st1" d="M518.7,53.5c-3.6,0-6.3-1-8.2-2.9s-2.8-4.6-2.8-8.1v-18h-6v-5.9h6V8.1h6.4v10.5h8.4v5.9h-8.4V42
		c0,3.7,1.5,5.6,4.6,5.6c1.2,0,2.1-0.2,2.9-0.6l2.2,5.5C522.5,53.2,520.7,53.5,518.7,53.5z"/>
	<path class="st1" d="M106.2,119.4V69.2h7.8l24.4,39h0.3l-0.3-9.7V69.2h6.4v50.1h-6.7l-25.5-40.9h-0.3l0.3,9.7v31.2L106.2,119.4
		L106.2,119.4z"/>
	<path class="st1" d="M156.8,89.1c3.3-3.5,7.5-5.2,12.7-5.2c5.1,0,9.4,1.7,12.7,5.2c3.3,3.5,5,7.8,5,13.1c0,5.2-1.7,9.6-5,13.1
		s-7.5,5.2-12.7,5.2c-5.1,0-9.4-1.7-12.7-5.2c-3.3-3.5-5-7.8-5-13.1C151.8,97,153.5,92.6,156.8,89.1z M161.6,111.2
		c2.2,2.3,4.8,3.4,7.9,3.4c3,0,5.7-1.1,7.9-3.4c2.2-2.3,3.3-5.3,3.3-9s-1.1-6.7-3.3-9c-2.2-2.3-4.8-3.4-7.9-3.4
		c-3,0-5.7,1.1-7.9,3.4c-2.2,2.3-3.3,5.3-3.3,9S159.4,108.9,161.6,111.2z"/>
	<path class="st1" d="M198.7,119.4h-6.4V85.1h6.2v5.6h0.3c0.7-1.9,2-3.4,4-4.6c2-1.2,4-1.8,5.9-1.8s3.5,0.3,4.8,0.8l-2.5,6
		c-0.8-0.3-2-0.5-3.4-0.5c-2.3,0-4.4,0.9-6.2,2.8c-1.8,1.8-2.7,4.3-2.7,7.2L198.7,119.4L198.7,119.4z"/>
	<path class="st1" d="M230,120.5c-4.4,0-8.3-1.8-11.5-5.3s-4.8-7.8-4.8-13s1.6-9.5,4.8-13c3.2-3.5,7-5.3,11.5-5.3c2.6,0,5,0.6,7,1.7
		c2.1,1.1,3.6,2.5,4.7,4.2h0.3l-0.3-4.8V69.2h6.4v50.1h-6.2v-4.8h-0.3c-1,1.7-2.6,3.1-4.7,4.2C234.9,119.9,232.6,120.5,230,120.5z
		 M231,114.6c3,0,5.6-1.1,7.7-3.4c2.1-2.2,3.2-5.3,3.2-9s-1.1-6.8-3.2-9s-4.7-3.4-7.7-3.4s-5.6,1.1-7.7,3.4c-2.1,2.3-3.2,5.3-3.2,9
		s1.1,6.7,3.2,9C225.5,113.5,228,114.6,231,114.6z"/>
	<path class="st1" d="M271.1,120.5c-5.2,0-9.4-1.7-12.6-5.2s-4.9-7.8-4.9-13.1c0-5,1.6-9.3,4.7-12.9c3.2-3.6,7.2-5.4,12.1-5.4
		c5.1,0,9.2,1.7,12.2,5c3.1,3.3,4.6,7.7,4.6,13.3l-0.1,1.2H260c0.2,3.5,1.3,6.2,3.5,8.2c2.1,2,4.6,3,7.5,3c4.6,0,7.7-2,9.4-5.9
		l5.7,2.4c-1.1,2.7-3,4.9-5.5,6.7C278,119.6,274.9,120.5,271.1,120.5z M280.4,98.1c-0.1-2-1-3.8-2.7-5.6s-4.1-2.7-7.4-2.7
		c-2.4,0-4.4,0.7-6.2,2.2c-1.8,1.5-3,3.5-3.6,6h19.9V98.1z"/>
	<path class="st1" d="M306.2,120.5c-3.8,0-7-0.9-9.5-2.8c-2.5-1.9-4.3-4.2-5.5-7l5.7-2.4c1.8,4.3,4.9,6.4,9.3,6.4
		c2,0,3.7-0.4,4.9-1.3c1.3-0.9,1.9-2.1,1.9-3.5c0-2.2-1.6-3.8-4.7-4.6l-6.9-1.7c-2.2-0.6-4.3-1.6-6.2-3.2c-2-1.6-2.9-3.7-2.9-6.3
		c0-3,1.3-5.5,4-7.4s5.9-2.8,9.6-2.8c3,0,5.7,0.7,8.1,2.1c2.4,1.4,4.1,3.3,5.1,5.9l-5.6,2.3c-1.3-3-3.9-4.6-7.8-4.6
		c-1.9,0-3.5,0.4-4.8,1.2s-2,1.9-2,3.2c0,2,1.5,3.3,4.6,4l6.8,1.6c3.2,0.7,5.6,2,7.1,3.9c1.5,1.8,2.3,3.9,2.3,6.2
		c0,3.1-1.3,5.6-3.8,7.7C313.4,119.4,310.2,120.5,306.2,120.5z"/>
	<path class="st1" d="M339.8,119.9c-3.6,0-6.3-1-8.2-2.9s-2.8-4.6-2.8-8.1v-18h-6V85h6V74.5h6.4V85h8.4v5.9h-8.4v17.5
		c0,3.7,1.5,5.6,4.6,5.6c1.2,0,2.1-0.2,2.9-0.6l2.2,5.5C343.6,119.6,341.9,119.9,339.8,119.9z"/>
	<path class="st1" d="M364.9,120.5c-5.2,0-9.4-1.7-12.6-5.2c-3.2-3.5-4.9-7.8-4.9-13.1c0-5,1.6-9.3,4.7-12.9
		c3.2-3.6,7.2-5.4,12.1-5.4c5.1,0,9.2,1.7,12.2,5c3.1,3.3,4.6,7.7,4.6,13.3l-0.1,1.2h-27.1c0.2,3.5,1.3,6.2,3.5,8.2
		c2.1,2,4.6,3,7.5,3c4.6,0,7.7-2,9.4-5.9l5.7,2.4c-1.1,2.7-3,4.9-5.5,6.7C371.8,119.6,368.7,120.5,364.9,120.5z M374.2,98.1
		c-0.1-2-1-3.8-2.7-5.6s-4.1-2.7-7.4-2.7c-2.4,0-4.4,0.7-6.2,2.2s-3,3.5-3.6,6h19.9V98.1z"/>
</g>
<g id="green">
</g>
<g id="yellow">
</g>
<g id="blue">
</g>
<g id="red">
	<g>
		<g>
			<g>
				<defs>
					<polygon id="SVGID_9_" points="34.9,60.2 45.7,79 21.7,120.5 0.1,120.5 					"/>
				</defs>
				<clipPath id="SVGID_2_">
					<use xlink:href="#SVGID_9_"  style="overflow:visible;"/>
				</clipPath>
				<g class="st2">
					<g>
						<polygon class="st3" points="48.8,74.5 20.7,122.9 -2.8,123.3 37.8,54 						"/>
					</g>
					<g>
						<g>
							<path class="st4" d="M26.9,67.3c-1.2,6.2,0.2,11.6,2.7,17.4c2.2,5.3,6.8,12.4,5.1,18.4c-0.8,3,3.8,4.3,4.7,1.3
								c1.6-5.8-0.9-11-3.1-16.2c-2.6-6.2-6-12.5-4.6-19.5C32.2,65.6,27.5,64.3,26.9,67.3L26.9,67.3z"/>
						</g>
					</g>
					<g>
						<path class="st4" d="M6.8,120c-2.5,0-5.1-0.1-7.6-0.3l0.4-4.8c3.4,0.3,6.8,0.4,10.2,0.3c4.6-0.2,10.5-0.8,14.5-4.2
							c2.7-2.3,4.4-5.8,4.4-9.4c0-1-0.3-2.1-0.7-3.4c-0.1-0.6-0.3-1.2-0.5-1.8c-0.5-2.1-1.2-4.2-2.3-6c-0.3-0.6-0.7-1.2-1.2-1.8
							c-0.8-1.2-1.6-2.5-2.2-4c-1.3-3-1.4-5.9-0.2-8.3l4.3,2.1c-0.5,1-0.4,2.5,0.3,4.2c0.5,1.1,1.2,2.1,1.9,3.3
							c0.4,0.7,0.8,1.3,1.2,2c1.3,2.3,2.3,4.8,2.9,7.4c0.1,0.5,0.3,1,0.4,1.6c0.4,1.4,0.8,3.1,0.8,4.8c-0.1,5-2.4,9.8-6.1,13
							c-5.1,4.4-12,5.1-17.4,5.3C8.9,120,7.8,120,6.8,120z"/>
					</g>
					<g>
						<path class="st4" d="M2.5,113l-1-4.8c1.8-0.3,3.6-0.5,5.3-0.7c1.8-0.2,3.5-0.4,5.2-0.8c2.4-0.5,5.7-1.7,7.4-4.3
							c1.2-2,1.6-4.7,0.9-7.6c-0.7-2.8-2.1-5.4-3.8-8.2l4.2-2.4c1.8,3.1,3.5,6.1,4.3,9.6c1,4.2,0.5,8.3-1.6,11.3
							c-2,3.1-5.7,5.3-10.4,6.4c-2,0.4-3.8,0.7-5.7,0.8C5.7,112.6,4.1,112.7,2.5,113z"/>
					</g>
					<g>
						<path class="st4" d="M41.7,95.3l-4.5-1.9c1.4-3.3,1.7-7.2,0.8-10.7c-0.5-1.7-1.2-3.3-1.9-5.1c-0.3-0.8-0.7-1.5-1-2.3
							c-1-2.5-2.1-5.7-1.7-9.2c0.5-4.6,3.6-8.8,7.8-10.5l1.9,4.5c-2.6,1.1-4.6,3.8-4.9,6.6c-0.3,2.4,0.6,4.9,1.4,6.8
							c0.3,0.7,0.6,1.4,0.9,2.1c0.8,1.8,1.6,3.7,2.1,5.8C43.8,86.1,43.5,90.9,41.7,95.3z"/>
					</g>
					<g>
						<path class="st4" d="M47.2,81.6c-2.4-2.5-5.7-5.8-6.4-10.3c-0.6-3.6,0.7-7.4,3.3-9.9l3.4,3.5c-1.5,1.4-2.2,3.6-1.9,5.6
							c0.5,2.7,2.5,5.1,5.1,7.6L47.2,81.6z"/>
					</g>
					<g>
						<path class="st5" d="M35.4,78.2c4.8-3.5,3.4-5.9,3.4-5.9s-3.4,1.4-5.1,3.8c0.5-4.6-1.2-5.9-2.9-6.8c0.5,4.4,0.8,5.7,0.9,5.9
							c-0.3-0.5-2-4-4.6-4.9c0.5,2.8,1.8,4.6,2.6,5.6c0.5,0.4,0.8,0.7,0.8,0.8c-0.1-0.1-0.4-0.3-0.8-0.8c-1.3-1-4.1-2.4-7.6,0.5
							c3.1,1.8,7.6,1.2,8.2,1.2c-0.8,0.2-9.2,2.7-8.5,7.2c3.8-1.4,7.1-4.4,7.8-5c-0.7,0.7-4.6,4.6-4.7,8.8c2.8-2.3,4.5-3.8,5.5-4.7
							c-0.5,2.3-1,4.6-1.5,6.6c-2,8.9-4,18-5.5,18c-0.6,0-1.2-1.4-1.7-2.7c-0.9-2.3-2-5.2-5-5.1c-1.4,0-5.5,0.1-13.5,28.1l1.7,0.5
							c5.7-19.7,9.8-26.8,11.8-26.8c1.6,0,2.4,1.6,3.3,4c0.8,2,1.5,3.9,3.4,3.9c2.9-0.1,4.3-6.1,7.2-19.4c0.5-2,0.9-4,1.4-6.2
							c0.3,2.1,0.5,4.9,0.1,6.8c2.9-5.3,1.7-9.3,1.7-9.3s4,5.9,5.5,6.6c0.9-4.7-3.6-7.9-3.6-7.9s6.2-1.6,5.7,2.7
							C44.4,81.2,42.5,77.2,35.4,78.2z"/>
					</g>
				</g>
			</g>
		</g>
		<g>
			<g>
				<defs>
					<polygon id="SVGID_11_" points="55.7,96.3 45.7,79 21.6,120.5 42.3,120.5 56,96.7 					"/>
				</defs>
				<clipPath id="SVGID_4_">
					<use xlink:href="#SVGID_11_"  style="overflow:visible;"/>
				</clipPath>
				<g class="st6">
					<path class="st7" d="M59,86.5v5.7l-15.2,28.3c-0.8,1.6-2.5,2.5-4.3,2.6L18.9,123l31.2-52.7l7.6,11.9C58.5,83.5,59,85,59,86.5z"
						/>
					<g>
						<g>
							<polyline class="st8" points="32.9,99.8 44.3,110.6 44.3,99.8 							"/>
							<polyline class="st8" points="36.8,99.8 44.3,110.6 40.3,99.8 							"/>
							<polyline class="st8" points="33,102.7 44.3,110.6 33.1,106.3 							"/>
							<line class="st8" x1="44.3" y1="110.6" x2="33.5" y2="110.6"/>
						</g>
						<g>
							<polyline class="st9" points="55.2,100.6 44.3,110.6 44.3,100.6 							"/>
							<polyline class="st9" points="51.9,100 44.3,110.6 48.3,99.8 							"/>
							<polyline class="st9" points="55.3,103.2 44.3,110.6 55.7,107 							"/>
							<line class="st9" x1="44.3" y1="110.6" x2="54.6" y2="110.6"/>
						</g>
						<g>
							<polyline class="st9" points="32.9,121.4 44.3,110.6 44.3,121.4 							"/>
							<polyline class="st9" points="36.9,121.3 44.3,110.6 40.3,121.4 							"/>
							<polyline class="st9" points="33.2,118.4 44.3,110.6 33.5,114.6 							"/>
							<line class="st9" x1="44.3" y1="110.6" x2="33.5" y2="110.6"/>
						</g>
						<g>
							<polyline class="st8" points="55.7,121.4 44.3,110.6 44.3,121.4 							"/>
							<polyline class="st8" points="51.8,121.4 44.3,110.6 48.3,121.4 							"/>
							<polyline class="st8" points="55.5,118.4 44.3,110.6 55.2,114.6 							"/>
							<line class="st8" x1="44.3" y1="110.6" x2="55.2" y2="110.6"/>
						</g>
						<rect x="32.9" y="99.8" class="st8" width="22.8" height="21.7"/>
					</g>
					<g>
						<line class="st9" x1="46.8" y1="99.5" x2="33.9" y2="86.6"/>
						<line class="st9" x1="55.4" y1="91.1" x2="42.3" y2="77.8"/>
						<line class="st9" x1="56.3" y1="85.9" x2="42.7" y2="99.3"/>
						<line class="st9" x1="46.9" y1="78.1" x2="33.3" y2="91.6"/>
						<line class="st8" x1="33.5" y1="77.9" x2="44.9" y2="88.7"/>
						<line class="st8" x1="56.3" y1="77.9" x2="44.9" y2="88.7"/>
						<path class="st10" d="M56.3,91l-6.8,6.4l-2.3,2.2c-0.6,0.6-1.4,0.9-2.2,0.9c-0.9,0.1-1.9-0.3-2.5-0.9l-6.1-5.9L33.4,91
							c-0.7-0.7-1-1.6-1-2.4c0-0.8,0.4-1.6,1-2.1l5.5-5.2l3.6-3.5c0.7-0.7,1.5-0.9,2.4-0.9c0.8,0,1.8,0.3,2.4,0.9l9,8.6
							c0.7,0.7,1,1.4,1,2.3S57,90.4,56.3,91z"/>
						<rect x="33.5" y="77.9" class="st11" width="22.8" height="21.7"/>
						<path class="st10" d="M49.6,80l6.8,6.4c0.7,0.7,1,1.4,1,2.3"/>
						<path class="st10" d="M38.9,81.2l3.6-3.5c0.7-0.7,1.5-0.9,2.4-0.9"/>
						<path class="st10" d="M36.3,93.8L33.4,91c-0.7-0.7-1-1.6-1-2.4"/>
						<path class="st10" d="M49.6,97.4l-2.3,2.2c-0.6,0.6-1.4,0.9-2.2,0.9"/>
						<line class="st8" x1="44.9" y1="88.7" x2="33.5" y2="99.5"/>
						<line class="st8" x1="44.9" y1="88.7" x2="56.3" y2="99.5"/>
					</g>
					<g>
						<line class="st9" x1="23.5" y1="121.6" x2="10.4" y2="108.4"/>
						<line class="st9" x1="31.9" y1="112.8" x2="18.7" y2="99.5"/>
						<line class="st9" x1="32.4" y1="108" x2="18.9" y2="121.3"/>
						<line class="st9" x1="23.4" y1="99.9" x2="9.8" y2="113.3"/>
						<line class="st8" x1="9.9" y1="99.7" x2="21.3" y2="110.5"/>
						<line class="st8" x1="32.7" y1="99.7" x2="21.3" y2="110.5"/>
						<path class="st10" d="M32.8,112.8l-6.8,6.4l-2.3,2.2c-0.6,0.6-1.4,0.9-2.2,0.9c-0.9,0.1-1.9-0.3-2.5-0.9l-6.1-5.9l-2.9-2.8
							c-0.7-0.7-1-1.6-1-2.4c0-0.8,0.4-1.6,1-2.1l5.5-5.2l3.6-3.5c0.7-0.7,1.5-0.9,2.4-0.9c0.8,0,1.8,0.3,2.4,0.9l9,8.6
							c0.7,0.7,1,1.4,1,2.3C33.7,111.3,33.4,112.1,32.8,112.8z"/>
						<rect x="9.9" y="99.7" class="st11" width="22.8" height="21.7"/>
						<path class="st10" d="M26,101.8l6.8,6.4c0.7,0.7,1,1.4,1,2.3"/>
						<path class="st10" d="M15.3,103.1l3.6-3.5c0.7-0.7,1.5-0.9,2.4-0.9"/>
						<path class="st10" d="M12.8,115.6l-2.9-2.8c-0.7-0.7-1-1.6-1-2.4"/>
						<path class="st10" d="M26,119.1l-2.3,2.2c-0.6,0.6-1.4,0.9-2.2,0.9"/>
						<line class="st8" x1="21.3" y1="110.5" x2="9.9" y2="121.3"/>
						<line class="st8" x1="21.3" y1="110.5" x2="32.7" y2="121.3"/>
					</g>
				</g>
			</g>
		</g>
		<g>
			<g>
				<defs>
					<polygon id="SVGID_13_" points="21.6,0 0,0 56,96.7 66.8,78 					"/>
				</defs>
				<clipPath id="SVGID_6_">
					<use xlink:href="#SVGID_13_"  style="overflow:visible;"/>
				</clipPath>
				<g class="st12">
					<g>
						<path class="st13" d="M68.5,81.2l-3,5.1l-10,16.5l0.2-5.4c0.1-1.4-0.3-2.9-1.1-4.2l-7-11.7l-0.1-0.1L37.1,64.1L0.9,3.7
							c-2-3.3-3.5-8.1,0.7-8.1l18.3,0.6L68.5,81.2z"/>
					</g>
					<g>
						<path class="st14" d="M25.1,56.3l-4.7-2c2.1-4.9,7.4-6.8,11.7-6.9c2.1-0.1,4,0.2,6,0.4c1.8,0.2,3.5,0.4,5.1,0.4
							c2.7-0.1,5.9-1.1,7.2-3.8l4.6,2.1c-2.1,4.9-7.4,6.7-11.7,6.8c-2,0.1-4-0.2-5.9-0.4c-1.8-0.2-3.5-0.4-5.2-0.4
							C29.5,52.5,26.3,53.6,25.1,56.3z"/>
					</g>
					<g>
						<g>
							<path class="st14" d="M56.1,55c-8.1,2.7-19.9-6.7-24.5,4.3c-0.5,1.2,0.5,3.2,0,4.4c4.6-11.1,16.5-1.6,24.5-4.3
								C56.6,59.3,55.7,55.1,56.1,55L56.1,55z"/>
						</g>
					</g>
					<g>
						<g>
							<path class="st14" d="M34.5,69.3c2-6.2,7.6-6.1,12.8-4.2c5.7,2,11.8,3.6,16.8-0.9c0.7-0.7-0.7-3.6,0-4.2
								c-4.9,4.5-11.1,2.9-16.8,0.9c-5.3-1.8-10.8-2-12.8,4.2C34,66.4,34.9,68.1,34.5,69.3L34.5,69.3z"/>
						</g>
					</g>
					<g>
						<g>
							<path class="st14" d="M64.9,67.8c-2.9,0.7-5.9,1.3-8.8,1.2c-3.1-0.1-5.9-1.3-8.9-1.8c-5.9-1-12,0-16.1,4.7
								c-0.7,0.8,0.7,3.6,0,4.4c4.1-4.6,10.2-5.7,16.1-4.7c2.8,0.5,5.5,1.6,8.3,1.8c3.1,0.2,6.3-0.5,9.4-1.2
								C65.3,72.2,64.7,67.9,64.9,67.8L64.9,67.8z"/>
						</g>
					</g>
					<g>
						<g>
							<path class="st14" d="M40.8,84c4.3-4,9.7-3.9,15.2-3.5c5.1,0.3,9.4-1.4,12.1-6c0.7-1.1-0.7-3.3,0-4.4c-2.6,4.6-7,6.3-12.1,6
								c-5.5-0.4-10.9-0.5-15.2,3.5C40,80.3,41.5,83.3,40.8,84L40.8,84z"/>
						</g>
					</g>
					<g>
						<g>
							<path class="st14" d="M70.3,75.8c-5.6,9.9-17.9,9.3-27.7,8c0.1,0-0.2,4.4,0,4.4c9.8,1.2,22.1,1.8,27.7-8
								C70.9,79.1,69.7,76.9,70.3,75.8L70.3,75.8z"/>
						</g>
					</g>
					<g>
						<g>
							<path class="st14" d="M71.4,84.9c-6.9,9-19,6.9-28.5,4.4c0.3,0.1-0.4,4.4,0,4.4c9.5,2.5,21.7,4.8,28.5-4.4
								C72.1,88.3,70.7,85.8,71.4,84.9L71.4,84.9z"/>
						</g>
					</g>
					<g>
						<path class="st14" d="M22.7,49.2l-4.2-1.8c2-4.8,6.4-6.3,9.9-6.2c1.7,0.1,3.3,0.4,4.8,0.7c1.4,0.3,2.7,0.6,4,0.6
							c1,0,4.2-0.2,5.6-3.5l4.2,1.8c-2,4.8-6.4,6.4-9.8,6.3c-1.7-0.1-3.3-0.4-4.8-0.7c-1.4-0.3-2.7-0.6-3.9-0.6
							C27.4,45.6,24.1,45.8,22.7,49.2z"/>
					</g>
					<g>
						<g>
							<path class="st14" d="M17.2,40.8c7.7-3.6,20.5,4.6,23.9-7c0.4-1.4-0.4-3.1,0-4.4c-3.4,11.5-16.2,3.4-23.9,7
								C16.6,36.6,17.7,40.5,17.2,40.8L17.2,40.8z"/>
						</g>
					</g>
					<g>
						<g>
							<path class="st14" d="M38.5,24.5c-2,6.2-7.5,6.1-12.8,4.3c-5.7-1.9-11.9-3.5-16.8,1c-0.7,0.7,0.7,3.6,0,4.2
								c4.9-4.5,11.1-2.9,16.8-1c5.3,1.8,10.8,2,12.8-4.3C39,27.4,38.1,25.7,38.5,24.5L38.5,24.5z"/>
						</g>
					</g>
					<g>
						<g>
							<path class="st14" d="M8,26.1c2.9-0.7,5.9-1.3,8.8-1.2c3.1,0.1,5.9,1.2,8.9,1.8c5.9,1,12-0.1,16.1-4.8c0.7-0.8-0.7-3.6,0-4.4
								c-4.1,4.7-10.2,5.7-16.1,4.8c-2.8-0.5-5.5-1.6-8.3-1.7C14.2,20.3,11,21,8,21.7C7.6,21.7,8.3,26,8,26.1L8,26.1z"/>
						</g>
					</g>
					<g>
						<g>
							<path class="st14" d="M32.1,9.8c-4.3,4-9.7,4-15.2,3.6c-5.1-0.3-9.4,1.4-12,6.1c-0.7,1.1,0.7,3.3,0,4.4
								c2.6-4.6,6.9-6.4,12-6.1c5.5,0.3,10.9,0.5,15.2-3.6C32.9,13.5,31.4,10.5,32.1,9.8L32.1,9.8z"/>
						</g>
					</g>
					<g>
						<g>
							<path class="st14" d="M2.6,18.2C8.2,8.3,20.5,8.8,30.3,10c-0.1,0,0.2-4.4,0-4.4C20.5,4.4,8.2,3.8,2.6,13.7
								C2,14.8,3.2,17.1,2.6,18.2L2.6,18.2z"/>
						</g>
					</g>
					<g>
						<g>
							<path class="st14" d="M1.5,9c6.8-9.1,18.9-7,28.5-4.4c-0.3-0.1,0.4-4.4,0-4.4C20.5-2.3,8.4-4.4,1.5,4.6
								C0.8,5.6,2.2,8.1,1.5,9L1.5,9z"/>
						</g>
					</g>
					<g>
						<path class="st15" d="M20-4.4c6.4,18.4-6.2,21.2-6.2,21.2L36.2,19C36.1,19,26.3,7.8,20-4.4z"/>
					</g>
					<g>
						<polygon class="st15" points="17.7,22 37.5,18.4 33.8,23.4 18.2,23.3 						"/>
					</g>
					<g>
						<path class="st15" d="M25,26.2c1,19.1-11.7,18.2-11.7,18.2l20.3,8.3C33.6,52.7,36.9,40.4,25,26.2z"/>
					</g>
					<g>
						<polygon class="st15" points="21.3,55.5 40.6,51.9 37.1,56.9 21.8,56.8 						"/>
					</g>
					<g>
						<path class="st15" d="M48.7,56.1C49.8,78.3,35,77.2,35,77.2l23.6,9.6C58.6,86.9,62.5,72.6,48.7,56.1z"/>
					</g>
					<g>
						<polygon class="st15" points="44.4,90.2 66.8,86.1 62.6,91.8 44.9,91.7 						"/>
					</g>
				</g>
			</g>
		</g>
		<g>
			<g>
				<defs>
					<path id="SVGID_15_" d="M73.8,65.9c2-3.5,2-7.8,0-11.3L42.2,0H21.6l45.2,78L73.8,65.9z"/>
				</defs>
				<clipPath id="SVGID_8_">
					<use xlink:href="#SVGID_15_"  style="overflow:visible;"/>
				</clipPath>
				<g class="st16">
					<g>
						<polygon class="st17" points="37.3,-8.5 13.1,-8.5 68,91.9 83.7,64.4 						"/>
						<g>
							<path class="st18" d="M83.5,77.5c-0.9-1.5-1.4-3.1-1.5-4.8c-0.1-1.6-0.6-3.3-1.5-4.8c-0.9-1.5-2.1-2.7-3.5-3.6
								c-1.4-0.8-2.6-2.1-3.5-3.6c-0.9-1.5-1.4-3.1-1.5-4.8c-0.1-1.6-0.6-3.3-1.5-4.8c-0.9-1.5-2.1-2.7-3.5-3.6
								c-1.4-0.8-2.6-2.1-3.5-3.6c-0.9-1.5-1.4-3.1-1.5-4.8c-0.1-1.6-0.6-3.3-1.5-4.8c-0.9-1.5-2.1-2.7-3.5-3.6l0,0
								c-1.4-0.8-2.6-2.1-3.5-3.6c-0.9-1.5-1.4-3.2-1.5-4.8c-0.1-1.6-0.6-3.3-1.5-4.8c-0.9-1.5-2.1-2.7-3.5-3.6
								c-1.4-0.8-2.6-2.1-3.5-3.6c-0.9-1.5-1.4-3.2-1.5-4.8c-0.1-1.6-0.6-3.3-1.5-4.8c-0.9-1.5-2.1-2.7-3.5-3.6
								c-1.4-0.8-2.6-2.1-3.5-3.6c-0.9-1.5-1.4-3.1-1.5-4.8"/>
							<path class="st18" d="M79.1,80.3c-0.9-1.5-1.4-3.1-1.5-4.8c-0.1-1.6-0.6-3.3-1.5-4.8c-0.9-1.5-2.1-2.7-3.5-3.6
								c-1.4-0.8-2.6-2.1-3.5-3.6c-0.9-1.5-1.4-3.1-1.5-4.8c-0.1-1.6-0.6-3.3-1.5-4.8c-0.9-1.5-2.1-2.7-3.5-3.6s-2.6-2.1-3.5-3.6
								s-1.4-3.1-1.5-4.8c-0.1-1.6-0.6-3.3-1.5-4.8c-0.9-1.5-2.1-2.7-3.5-3.6l0,0c-1.4-0.8-2.6-2.1-3.5-3.6s-1.4-3.2-1.5-4.8
								c-0.1-1.6-0.6-3.3-1.5-4.8c-0.9-1.5-2.1-2.7-3.5-3.6c-1.4-0.8-2.6-2.1-3.5-3.6s-1.4-3.2-1.5-4.8c-0.1-1.6-0.6-3.3-1.5-4.8
								C35,2,33.8,0.7,32.4-0.1c-1.4-0.8-2.6-2.1-3.5-3.6c-0.9-1.5-1.6-4-1.6-5.6"/>
							<path class="st18" d="M74.5,82.9c-0.9-1.5-1.4-3.1-1.5-4.8c-0.1-1.6-0.6-3.3-1.5-4.8c-0.9-1.5-2.1-2.7-3.5-3.6
								c-1.4-0.8-2.6-2.1-3.5-3.6c-0.9-1.5-1.4-3.1-1.5-4.8c-0.1-1.6-0.6-3.3-1.5-4.8c-0.9-1.5-2.1-2.7-3.5-3.6s-2.6-2.1-3.5-3.6
								c-0.9-1.5-1.4-3.1-1.5-4.8c-0.1-1.6-0.6-3.3-1.5-4.8c-0.9-1.5-2.1-2.7-3.5-3.6l0,0c-1.4-0.8-2.6-2.1-3.5-3.6
								c-0.9-1.5-1.4-3.2-1.5-4.8c-0.1-1.6-0.6-3.3-1.5-4.8c-0.9-1.5-2.1-2.7-3.5-3.6c-1.4-0.8-2.6-2.1-3.5-3.6
								c-0.9-1.5-1.4-3.2-1.5-4.8c-0.1-1.6-0.6-3.3-1.5-4.8c-0.9-1.5-2.1-2.7-3.5-3.6c-1.4-0.8-2.6-2.1-3.5-3.6s-1.7-4.8-1.8-6.4"/>
							<path class="st18" d="M69.9,85.7c-0.9-1.5-1.4-3.1-1.5-4.8c-0.1-1.6-0.6-3.3-1.5-4.8c-0.9-1.5-2.1-2.7-3.5-3.6
								c-1.4-0.8-2.6-2.1-3.5-3.6c-0.9-1.5-1.4-3.1-1.5-4.8c-0.1-1.6-0.6-3.3-1.5-4.8c-0.9-1.5-2.1-2.7-3.5-3.6
								c-1.4-0.8-2.6-2.1-3.5-3.6c-0.9-1.5-1.4-3.1-1.5-4.8c-0.1-1.6-0.6-3.3-1.5-4.8c-0.9-1.5-2.1-2.7-3.5-3.6l0,0
								c-1.4-0.8-2.6-2.1-3.5-3.6s-1.4-3.2-1.5-4.8c-0.1-1.6-0.6-3.3-1.5-4.8c-0.9-1.5-2.1-2.7-3.5-3.6c-1.4-0.8-2.6-2.1-3.5-3.6
								c-0.9-1.5-1.4-3.2-1.5-4.8s-0.6-3.3-1.5-4.8c-0.9-1.5-2.1-2.7-3.5-3.6c-1.4-0.8-2.6-2.1-3.5-3.6c-0.9-1.5-1.8-5.5-1.9-7.2"/>
						</g>
					</g>
					<g>
						<g>
							<polygon class="st20" points="43.8,35.7 43.8,32.2 49.6,22.4 55.6,32.2 55.6,54.2 57.6,57.5 57.6,54.2 63.5,44.3 69.4,54.2 
								69.4,77.6 69.4,82.5 43.8,40.4 							"/>
						</g>
						<g>
							<polyline class="st20" points="41.8,32.5 43.7,35.7 43.7,26.9 49.6,17.1 55.6,26.9 55.6,55.8 55.6,60.7 29.9,18.6 							"/>
						</g>
						<g>
							<polyline class="st20" points="29.9,14.8 29.9,11.5 35.8,1.7 41.8,11.5 41.8,35 41.8,39.9 							"/>
						</g>
						<g>
							<g>
								<g>
									<rect x="62.5" y="51.2" class="st21" width="1.6" height="11.3"/>
								</g>
								<g>
									<rect x="59.7" y="53.9" class="st21" width="7.2" height="1.6"/>
								</g>
							</g>
							<g>
								<g>
									<rect x="58.9" y="64.4" class="st21" width="2.3" height="2.3"/>
								</g>
								<g>
									<rect x="62.1" y="64.4" class="st21" width="2.3" height="2.3"/>
								</g>
								<g>
									<rect x="65.4" y="64.4" class="st21" width="2.3" height="2.3"/>
								</g>
								<g>
									<rect x="58.9" y="67.9" class="st21" width="2.3" height="2.3"/>
								</g>
								<g>
									<rect x="62.1" y="67.9" class="st21" width="2.3" height="2.3"/>
								</g>
								<g>
									<rect x="65.4" y="67.9" class="st21" width="2.3" height="2.3"/>
								</g>
								<g>
									<rect x="58.9" y="71.3" class="st21" width="2.3" height="2.3"/>
								</g>
								<g>
									<rect x="62.1" y="71.3" class="st21" width="2.3" height="2.3"/>
								</g>
								<g>
									<rect x="65.4" y="71.3" class="st21" width="2.3" height="2.3"/>
								</g>
								<g>
									<rect x="58.9" y="74.9" class="st21" width="2.3" height="2.3"/>
								</g>
								<g>
									<rect x="62.1" y="74.9" class="st21" width="2.3" height="2.3"/>
								</g>
								<g>
									<rect x="65.4" y="74.9" class="st21" width="2.3" height="2.3"/>
								</g>
							</g>
						</g>
						<g>
							<g>
								<rect x="48.5" y="22.7" class="st21" width="1.6" height="11.3"/>
							</g>
							<g>
								<rect x="45.7" y="25.4" class="st21" width="7.2" height="1.6"/>
							</g>
						</g>
						<g>
							<g>
								<rect x="35" y="8.7" class="st21" width="1.6" height="11.3"/>
							</g>
							<g>
								<rect x="32.3" y="11.5" class="st21" width="7.2" height="1.6"/>
							</g>
						</g>
						<g>
							<g>
								<rect x="44.9" y="35.9" class="st21" width="2.3" height="2.3"/>
							</g>
							<g>
								<rect x="48.1" y="35.9" class="st21" width="2.3" height="2.3"/>
							</g>
							<g>
								<rect x="51.4" y="35.9" class="st21" width="2.3" height="2.3"/>
							</g>
							<g>
								<rect x="44.9" y="39.4" class="st21" width="2.3" height="2.3"/>
							</g>
							<g>
								<rect x="48.1" y="39.4" class="st21" width="2.3" height="2.3"/>
							</g>
							<g>
								<rect x="51.4" y="39.4" class="st21" width="2.3" height="2.3"/>
							</g>
							<g>
								<rect x="44.9" y="42.9" class="st21" width="2.3" height="2.3"/>
							</g>
							<g>
								<rect x="48.1" y="42.9" class="st21" width="2.3" height="2.3"/>
							</g>
							<g>
								<rect x="51.4" y="42.9" class="st21" width="2.3" height="2.3"/>
							</g>
							<g>
								<rect x="44.9" y="46.4" class="st21" width="2.3" height="2.3"/>
							</g>
							<g>
								<rect x="48.1" y="46.4" class="st21" width="2.3" height="2.3"/>
							</g>
							<g>
								<rect x="51.4" y="46.4" class="st21" width="2.3" height="2.3"/>
							</g>
						</g>
						<g>
							<g>
								<rect x="31.5" y="22" class="st21" width="2.3" height="2.3"/>
							</g>
							<g>
								<rect x="34.7" y="22" class="st21" width="2.3" height="2.3"/>
							</g>
							<g>
								<rect x="38" y="22" class="st21" width="2.3" height="2.3"/>
							</g>
							<g>
								<rect x="31.5" y="25.5" class="st21" width="2.3" height="2.3"/>
							</g>
							<g>
								<rect x="34.7" y="25.5" class="st21" width="2.3" height="2.3"/>
							</g>
							<g>
								<rect x="38" y="25.5" class="st21" width="2.3" height="2.3"/>
							</g>
							<g>
								<rect x="31.5" y="29" class="st21" width="2.3" height="2.3"/>
							</g>
							<g>
								<rect x="34.7" y="29" class="st21" width="2.3" height="2.3"/>
							</g>
							<g>
								<rect x="38" y="29" class="st21" width="2.3" height="2.3"/>
							</g>
							<g>
								<rect x="31.5" y="32.4" class="st21" width="2.3" height="2.3"/>
							</g>
							<g>
								<rect x="34.7" y="32.4" class="st21" width="2.3" height="2.3"/>
							</g>
							<g>
								<rect x="38" y="32.4" class="st21" width="2.3" height="2.3"/>
							</g>
						</g>
					</g>
				</g>
			</g>
		</g>
	</g>
</g>
<g id="llogo1">
</g>
</svg>
