<svg xmlns="http://www.w3.org/2000/svg" xmlns:xlink="http://www.w3.org/1999/xlink" xmlns:sketch="http://www.bohemiancoding.com/sketch/ns" width="106" height="21" viewBox="0 0 106 20" version="1.1"><title>Jusbrasil</title> <g id="[Mobile]-Document" stroke="none" stroke-width="1" fill="none" fill-rule="evenodd" sketch:type="MSPage"> <g id="logo" sketch:type="MSArtboardGroup"> <g id="Logo" sketch:type="MSLayerGroup" transform="translate(1.000000, 0.000000)"> <g id="LOGO" transform="translate(0.103361, 0.875731)" sketch:type="MSShapeGroup"> <g id="Rectangle-2-+-Rectangle-1-+-Rectangle-8" transform="translate(0.000000, 0.341879)"> <path d="M7.91 0.44C9.28-0.39 11.03 0.1 11.82 1.54L18.34 13.42C19.13 14.86 18.66 16.7 17.3 17.53L17.3 17.53C15.93 18.36 14.18 17.87 13.39 16.43L6.86 4.55C6.07 3.11 6.54 1.27 7.91 0.44L7.91 0.44 7.91 0.44Z" id="Rectangle-2" fill="#0091EA"></path> <path d="M1.43 17.53C0.06 16.7-0.41 14.86 0.38 13.42L6.91 1.54C7.7 0.1 9.45-0.39 10.82 0.44L10.82 0.44C12.18 1.27 12.65 3.11 11.86 4.55L5.34 16.43C4.55 17.87 2.8 18.36 1.43 17.53L1.43 17.53 1.43 17.53Z" id="Rectangle-1" fill="#F9CA06"></path></g><path d="M9.38 0.54C8.89 0.55 8.4 0.68 7.94 0.94 6.51 1.77 6.01 3.61 6.84 5.04L9.38 9.44 11.92 5.04C12.74 3.61 12.25 1.77 10.81 0.94 10.36 0.68 9.87 0.55 9.38 0.54Z" id="Rectangle-7" fill="#7CB342"></path></g><path d="M25.88 17.7L25.88 15.99C26.75 16.6 27.68 16.9 28.67 16.9 29.7 16.9 30.44 16.65 30.89 16.14 31.35 15.64 31.57 14.81 31.57 13.66L31.57 3.19 33.21 3.19 33.21 13.79C33.21 14.71 33.08 15.5 32.82 16.16 32.57 16.81 32.21 17.29 31.77 17.61 31.32 17.93 30.86 18.15 30.39 18.29 29.93 18.42 29.42 18.49 28.88 18.49 27.8 18.49 26.8 18.22 25.88 17.7L25.88 17.7ZM36.09 13.55L36.09 6.99 37.72 6.99 37.72 13.64C37.72 14.79 37.97 15.63 38.47 16.17 38.97 16.7 39.76 16.97 40.83 16.97 41.88 16.97 42.66 16.7 43.17 16.17 43.68 15.63 43.94 14.79 43.94 13.64L43.94 6.99 45.56 6.99 45.56 13.55C45.56 15.12 45.15 16.34 44.33 17.2 43.51 18.06 42.34 18.49 40.83 18.49 39.31 18.49 38.15 18.06 37.32 17.2 36.5 16.34 36.09 15.12 36.09 13.55L36.09 13.55ZM47.71 10.08C47.71 9.18 48.04 8.4 48.7 7.76 49.36 7.12 50.37 6.8 51.73 6.8 52.7 6.8 53.66 7.03 54.63 7.49L54.63 9.13C53.77 8.61 52.86 8.36 51.91 8.36 50.2 8.36 49.35 8.93 49.35 10.08 49.35 10.47 49.56 10.79 49.97 11.03 50.38 11.27 50.89 11.47 51.49 11.63 52.08 11.79 52.68 11.98 53.28 12.2 53.88 12.42 54.38 12.79 54.8 13.32 55.22 13.85 55.43 14.52 55.43 15.34 55.43 16.32 55.06 17.09 54.33 17.65 53.59 18.21 52.57 18.49 51.28 18.49 50.02 18.49 48.88 18.2 47.85 17.63L47.85 15.91C48.94 16.57 50.06 16.9 51.21 16.9 52.93 16.9 53.79 16.38 53.79 15.34 53.79 14.78 53.58 14.34 53.17 14.02 52.76 13.71 52.25 13.47 51.65 13.31 51.05 13.15 50.46 12.98 49.86 12.79 49.26 12.6 48.75 12.28 48.34 11.84 47.92 11.39 47.71 10.81 47.71 10.08L47.71 10.08ZM57.32 14.91L57.32 2.67 58.95 2.67 58.95 7.25C59.85 6.95 60.78 6.8 61.74 6.8 62.25 6.8 62.74 6.84 63.19 6.93 63.65 7.02 64.11 7.19 64.58 7.45 65.04 7.71 65.45 8.04 65.79 8.44 66.13 8.85 66.4 9.4 66.61 10.1 66.82 10.8 66.93 11.6 66.93 12.51 66.93 13.5 66.81 14.38 66.58 15.13 66.35 15.87 66.06 16.46 65.72 16.87 65.38 17.28 64.97 17.62 64.5 17.88 64.02 18.14 63.58 18.3 63.18 18.38 62.78 18.45 62.37 18.49 61.95 18.49 61.13 18.49 60.41 18.38 59.81 18.18 59.2 17.98 58.75 17.74 58.45 17.48 58.14 17.21 57.9 16.9 57.71 16.53 57.52 16.16 57.41 15.85 57.37 15.61 57.34 15.37 57.32 15.14 57.32 14.91L57.32 14.91ZM58.95 15C58.95 16.33 59.95 16.99 61.95 16.99 62.37 16.99 62.75 16.94 63.09 16.85 63.43 16.75 63.78 16.56 64.14 16.28 64.51 16 64.79 15.54 65 14.9 65.2 14.26 65.3 13.46 65.3 12.51 65.3 11.04 65.02 9.97 64.46 9.31 63.9 8.64 62.99 8.31 61.74 8.31 60.8 8.31 59.87 8.5 58.95 8.88L58.95 15ZM69.31 18.31L69.31 7.9C71.01 7.18 72.84 6.82 74.8 6.82L74.8 8.38C73.56 8.41 72.27 8.6 70.93 8.96L70.93 18.31 69.31 18.31ZM75.79 14.84C75.79 14.33 75.89 13.86 76.07 13.45 76.26 13.04 76.49 12.71 76.77 12.46 77.04 12.2 77.39 11.99 77.81 11.8 78.23 11.62 78.6 11.49 78.92 11.41 79.25 11.32 79.64 11.26 80.08 11.21 80.53 11.17 80.85 11.14 81.03 11.13 81.22 11.13 81.45 11.12 81.7 11.12L83.52 11.23C83.52 10.22 83.24 9.5 82.68 9.07 82.13 8.64 81.3 8.42 80.21 8.42 78.98 8.42 77.88 8.6 76.9 8.96L76.9 7.38C78.01 6.99 79.15 6.8 80.3 6.8 81.88 6.8 83.09 7.2 83.93 8 84.76 8.8 85.18 9.97 85.18 11.51L85.18 14.91C85.18 15.63 85.01 16.25 84.68 16.76 84.34 17.28 83.91 17.65 83.38 17.88 82.85 18.11 82.36 18.26 81.9 18.35 81.44 18.44 80.98 18.49 80.53 18.49 80.18 18.49 79.83 18.46 79.46 18.42 79.1 18.38 78.68 18.27 78.22 18.11 77.76 17.96 77.36 17.75 77.02 17.51 76.68 17.26 76.39 16.9 76.15 16.44 75.91 15.98 75.79 15.45 75.79 14.84L75.79 14.84ZM77.42 14.84C77.42 16.26 78.45 16.97 80.5 16.97L80.53 16.97C82.54 16.97 83.54 16.28 83.54 14.91L83.54 12.73C83.04 12.64 82.37 12.6 81.53 12.6 78.79 12.6 77.42 13.35 77.42 14.84L77.42 14.84ZM87.12 10.08C87.12 9.18 87.45 8.4 88.11 7.76 88.77 7.12 89.78 6.8 91.13 6.8 92.1 6.8 93.07 7.03 94.03 7.49L94.03 9.13C93.17 8.61 92.26 8.36 91.31 8.36 89.61 8.36 88.75 8.93 88.75 10.08 88.75 10.47 88.96 10.79 89.37 11.03 89.79 11.27 90.29 11.47 90.89 11.63 91.49 11.79 92.09 11.98 92.68 12.2 93.28 12.42 93.79 12.79 94.21 13.32 94.62 13.85 94.83 14.52 94.83 15.34 94.83 16.32 94.46 17.09 93.73 17.65 93 18.21 91.98 18.49 90.68 18.49 89.43 18.49 88.29 18.2 87.26 17.63L87.26 15.91C88.34 16.57 89.46 16.9 90.61 16.9 92.33 16.9 93.19 16.38 93.19 15.34 93.19 14.78 92.99 14.34 92.57 14.02 92.16 13.71 91.65 13.47 91.06 13.31 90.46 13.15 89.86 12.98 89.26 12.79 88.67 12.6 88.16 12.28 87.74 11.84 87.32 11.39 87.12 10.81 87.12 10.08L87.12 10.08ZM96.96 4.98L96.96 3.19 98.76 3.19 98.76 4.98 96.96 4.98ZM97.04 6.99L98.67 6.99 98.67 18.31 97.04 18.31 97.04 6.99ZM102.59 18.31L102.59 2.69 104.22 2.69 104.22 18.31 102.59 18.31Z" id="Jusbrasil" opacity="0.86" fill="#333333" sketch:type="MSShapeGroup"></path></g></g></g></svg>
