<svg xmlns="http://www.w3.org/2000/svg" viewBox="0 0 1080 220" version="1.1" xmlns:xlink="http://www.w3.org/1999/xlink" x="0px" y="0px" xml:space="preserve" class="img-responsive mambo">
    <style>
    .verde-mambo {fill: #00ffb4;}
    .roxo-mambo {fill: #3c1478;}
    </style>
    <path class="mambo_m roxo-mambo" d="M170,60c-19.6,0-37.6,7.2-50,20C107.2,67.2,89.8,60,70,60,20,60,0,100,0,130v70a20,20,0,0,0,40,0V130a30,30,0,1,1,60,0v70a20,20,0,1,0,40,0V130a30,30,0,0,1,60,0v70a20,20,0,0,0,40,0V130A69.82,69.82,0,0,0,170,60Z"/>
    <path class="mambo_a roxo-mambo" d="M400,220h0a20.06,20.06,0,0,0,20-20V140a80,80,0,1,0-80,80c15.22,0,27.78-2.59,40-10,3.2,7,11.76,10,20,10m-60-40a40,40,0,1,1,40-40A39.83,39.83,0,0,1,340,180Z"/>
    <path class="mambo_m2 roxo-mambo" d="M610,60c-19.6,0-37.6,7.2-50,20-12.8-12.8-30.2-20-50-20-50,0-70,40-70,70v70a20,20,0,0,0,40,0V130a30,30,0,1,1,60,0v70a20,20,0,0,0,40,0V130a30,30,0,0,1,60,0v70a20,20,0,0,0,40,0V130A69.82,69.82,0,0,0,610,60Z"/>
    <path class="mambo_ponto verde-mambo" d="M720,180a20,20,0,1,1-20,20A19.81,19.81,0,0,1,720,180Z"/>
    <path class="mambo_b roxo-mambo" d="M740,20a20,20,0,0,1,40,0V70c11.6-6.8,25.4-10,40-10a80,80,0,0,1,0,160c-53.78,0-80-40-80-80V20Zm80,160a40,40,0,1,0-40-40A39.87,39.87,0,0,0,820,180Z"/>
    <path class="mambo_o roxo-mambo" d="M1000,60a80,80,0,1,1-80,80A80.16,80.16,0,0,1,1000,60Zm0,120a40,40,0,1,0-40-40A39.83,39.83,0,0,0,1000,180Z"/>
</svg>