<?xml version="1.0" encoding="utf-8"?>
<!-- Generator: Adobe Illustrator 21.1.0, SVG Export Plug-In . SVG Version: 6.00 Build 0)  -->
<svg version="1.1" id="Camada_1" xmlns="http://www.w3.org/2000/svg" xmlns:xlink="http://www.w3.org/1999/xlink" x="0px" y="0px"
	 viewBox="0 0 444 90" style="enable-background:new 0 0 444 90;" xml:space="preserve">
<style type="text/css">
	.st0{fill:#FFFFFF;}
	.st1{fill:#00FFB4;}
</style>
<path class="st0" d="M71.5,24.5c-8,0-15.4,2.9-20.5,8.2c-5.2-5.2-12.4-8.2-20.5-8.2C10.2,24.5,2,40.9,2,53.2v28.6
	c0,4.5,3.7,8.2,8.2,8.2s8.2-3.7,8.2-8.2V53.2c0-6.8,5.5-12.3,12.3-12.3s12.3,5.5,12.3,12.3v28.6c0,4.5,3.7,8.2,8.2,8.2
	s8.2-3.7,8.2-8.2V53.2c0-6.8,5.5-12.3,12.3-12.3s12.3,5.5,12.3,12.3v28.6c0,4.5,3.7,8.2,8.2,8.2s8.2-3.7,8.2-8.2V53.2
	c0-15.8-12.7-28.6-28.5-28.6C71.6,24.5,71.6,24.5,71.5,24.5z"/>
<path class="st0" d="M165.6,90L165.6,90c4.5,0,8.2-3.7,8.2-8.2V57.3c0-18.1-14.7-32.7-32.7-32.7s-32.7,14.7-32.7,32.7
	S123,90,141.1,90c6.2,0,11.4-1.1,16.4-4.1C158.8,88.8,162.3,90,165.6,90 M141.1,73.6c-9,0-16.4-7.3-16.4-16.4s7.3-16.4,16.4-16.4
	c9,0,16.4,7.3,16.4,16.4c0,9-7.2,16.3-16.2,16.4C141.2,73.6,141.1,73.6,141.1,73.6z"/>
<path class="st0" d="M251.5,24.5c-8,0-15.4,2.9-20.5,8.2c-5.2-5.2-12.4-8.2-20.5-8.2c-20.5,0-28.6,16.4-28.6,28.6v28.6
	c0,4.5,3.7,8.2,8.2,8.2c4.5,0,8.2-3.7,8.2-8.2V53.2c0-6.8,5.5-12.3,12.3-12.3c6.8,0,12.3,5.5,12.3,12.3v28.6c0,4.5,3.7,8.2,8.2,8.2
	c4.5,0,8.2-3.7,8.2-8.2V53.2c0-6.8,5.5-12.3,12.3-12.3c6.8,0,12.3,5.5,12.3,12.3v28.6c0,4.5,3.7,8.2,8.2,8.2s8.2-3.7,8.2-8.2V53.2
	c0-15.8-12.7-28.6-28.5-28.6C251.6,24.5,251.6,24.5,251.5,24.5z"/>
<path class="st1" d="M296.5,73.6c4.5,0,8.2,3.7,8.2,8.2c0,4.5-3.7,8.2-8.2,8.2c-4.5,0-8.2-3.7-8.2-8.2c0-4.5,3.6-8.1,8-8.2
	C296.4,73.6,296.5,73.6,296.5,73.6z"/>
<path class="st0" d="M304.7,8.2c0-4.5,3.7-8.2,8.2-8.2s8.2,3.7,8.2,8.2v20.5c4.7-2.8,10.4-4.1,16.4-4.1c18.1,0,32.7,14.7,32.7,32.7
	S355.5,90,337.5,90c-22,0-32.7-16.4-32.7-32.7V8.2z M337.5,73.6c9,0,16.4-7.3,16.4-16.4s-7.3-16.4-16.4-16.4
	c-9,0-16.4,7.3-16.4,16.4c0,9,7.2,16.3,16.3,16.4C337.4,73.6,337.4,73.6,337.5,73.6z"/>
<path class="st0" d="M411.1,24.5c18.1,0,32.7,14.7,32.7,32.7S429.2,90,411.1,90c-18.1,0-32.7-14.7-32.7-32.7
	C378.4,39.2,393,24.6,411.1,24.5z M411.1,73.6c9,0,16.4-7.3,16.4-16.4s-7.3-16.4-16.4-16.4s-16.4,7.3-16.4,16.4
	c0,9,7.2,16.3,16.2,16.4C411,73.6,411,73.6,411.1,73.6z"/>
</svg>
