<svg xmlns="http://www.w3.org/2000/svg" viewBox="42.3 145 873.7 261.7" enable-background="new 42.3 145 873.7 261.7"><g fill="#000100"><path d="M431.9 225H464v106.7h-20.8v-72c0-2 0-5 0-8.6 0-3.6 0-6.6 0-8.6L423 332h-21.8L381 242.5c0 2 0 5 0 8.6 0 3.6 0 6.6 0 8.6v72h-20.8V225h32.4l19.5 83.9 19.8-83.9zM548.9 322.1c-6.6 8.3-16.9 12.2-30.4 12.2s-23.8-4-30.4-12.2c-6.6-8.3-9.9-18.2-9.9-29.7 0-11.2 3.3-21.1 9.9-29.4 6.6-8.3 16.9-12.6 30.4-12.6s23.8 4.3 30.4 12.6c6.6 8.3 9.9 18.2 9.9 29.4 0 11.6-3.3 21.5-9.9 29.7zm-16.5-11.5c3.3-4.3 5-10.2 5-18.2s-1.7-13.9-5-18.2c-3.3-4.3-7.9-6.3-13.9-6.3-5.9 0-10.6 2-13.9 6.3-3.3 4.3-5 10.2-5 18.2s1.7 13.9 5 18.2c3.3 4.3 7.9 6.3 13.9 6.3 5.9.3 10.6-2 13.9-6.3zM573.4 225.3h20.2v57.5l26.1-29.7h25.8L617 282.5l29.4 49.2h-25.1L602.1 298l-8.6 8.9v24.8h-20.2V225.3h.1zM703.2 251.1c.3 0 1 0 1.7 0v21.1c-1.3 0-2.3-.3-3.6-.3-1 0-2 0-2.3 0-8.3 0-13.9 2.6-16.9 8.3-1.7 3-2.3 7.6-2.3 13.9v37.7H659v-79h19.8v13.9c3.3-5.3 5.9-8.9 8.3-10.9 4-3.3 8.9-5 15.2-5 .3.3.6.3.9.3zM741.6 243.5h-21.1v-19.2h20.8v19.2h.3zm-21.2 9.2h20.8v79h-20.8v-79zM767.7 346.9h2.6c2 0 4 0 5.9-.3 2-.3 3.3-.7 4.6-1.7 1.3-.7 2.3-2.6 3.3-5.3 1-2.6 1.3-4.3 1.3-4.6l-29.1-82.3h22.8l17.2 58.2 16.5-58.2h21.8l-27.1 77.7c-5.3 14.9-9.3 24.1-12.6 27.8-3 3.6-9.3 5.3-18.2 5.3-2 0-3.3 0-4.3 0s-2.6 0-5-.3v-16.3zM878.4 283.8c4-.3 6.6-1 8.3-1.7 3-1.3 4.3-3.3 4.3-5.9 0-3.3-1-5.6-3.3-6.6-2.3-1.3-5.6-2-9.9-2-5 0-8.6 1.3-10.6 3.6-1.3 1.7-2.3 4.3-3 7.3h-19.8c.3-6.9 2.3-12.6 5.9-16.9 5.6-6.9 14.9-10.6 28.1-10.6 8.6 0 16.5 1.7 23.1 5.3 6.6 3.3 10.2 9.9 10.2 19.5v36c0 2.6 0 5.6 0 9.3 0 2.6.7 4.6 1.3 5.6.7 1 1.7 1.7 3 2.3v3h-22.5c-.7-1.7-1-3-1.3-4.6-.3-1.7-.3-3-.7-4.6-3 3-6.3 5.6-9.9 7.9-4.6 2.6-9.6 4-15.2 4-7.3 0-13.2-2-17.8-6.3-4.6-4-6.9-9.9-6.9-17.2 0-9.6 3.6-16.9 11.2-21.1 4-2.3 10.2-4 18.2-5l7.3-1.3zm12.5 9.6c-1.3.7-2.6 1.3-4 2-1.3.7-3.3 1-5.6 1.3l-4.6 1c-4.3.7-7.6 1.7-9.6 3-3.3 2-5 5-5 8.6s1 5.9 3 7.6c2 1.7 4.3 2.3 7.3 2.3 4.6 0 8.6-1.3 12.6-4 3.6-2.6 5.6-7.3 5.9-14.2v-7.6z"/></g><circle cx="173.2" cy="275.9" r="130.9" fill="#000100"/><path fill="#fff" d="M194.6 307.3l39.7-22.5v-17.2l-39.7-22.5 42.6-22.8-10.2-19.5-53.9 29.7-53.9-29.7-10.6 19.5 41.6 22.8-41.3 22.5v17.5l41.3 22.5-41.6 22.8 10.9 19.5 53.9-29.7 53.9 29.7 10.6-19.5-43.3-23.1zm12.9-31.4l-34.4 18.8-34.4-18.8 34.4-18.8 34.4 18.8z"/></svg>