<svg xmlns="http://www.w3.org/2000/svg" viewBox="0 0 1268.57 304.44"><title>logo-trakto</title><g id="Layer_2" data-name="Layer 2"><g id="Layer_1-2" data-name="Layer 1"><path d="M1079.3,209.38c4.58-38.87,28.11-76.64,53.86-76.64,0,0,28.35,0,19.44,56.21a151.94,151.94,0,0,1-7.92,30.46c-9.91,0-16.09,3.22-19.81,7.18a17.87,17.87,0,0,0-5,11.64c0,5.33,0,10.65,3.59,15.48-8.79,8.91-18.2,13.37-25.87,13.37-18.45,0-22.91-18.82-18.33-57.69M126.36,13.77C116.21,20.08,97,23.84,89.2,25.45a9.09,9.09,0,0,0-6.56,5.94c-1.61,4.71-8.42,28-10.4,34a8.7,8.7,0,0,1-8.79,5.94c-8.79-.62-42.34-4.83-46.8-5.2a8.83,8.83,0,0,0-8.42,4.71c-5.94,12-9,35-8,42.09A8.55,8.55,0,0,0,7.12,120c3.46.62,33.55,5,37,5.45a8.64,8.64,0,0,1,6.93,10.65C25.06,237.65,28.79,304,117.07,304c73.3,0,128.76-91.62,154.51-178.91,6.07,5.7,14.73,12.88,18.45,17.83a15.44,15.44,0,0,1,.49,18.08c-18.58,27.23-83.2,132.1,10.65,143,34.17,3.83,63.27-16.47,87.16-45.94,2,19.44,13,44.45,57,44.45,37.76,0,63.27-28.84,79.12-56.08-.62,2.48-12.88,56.08,32.56,56.08,22.78,0,47-17.58,66.73-37.39-1.48,6.44-3,12.88-4.46,19.56a12,12,0,0,0,8,14.24c11,3.71,29.59,7.3,47-1.24a12,12,0,0,0,6.56-8.29c2.36-10.53,8.3-36.28,17.83-72.06h.37c8.54,48.66,37.64,85.06,85.92,85.06,35.17,0,63.64-20.55,86.55-51.63,5.69,31.82,23.15,53.24,59.8,53.24,35.28,0,63.89-20.8,86.91-52,7.42,34.91,27.73,52,68.09,52,25.64,0,56-9.66,80.72-29.1,0-.12-.12-.12-.12-.24a63.42,63.42,0,0,1-7.05-29.34,64.22,64.22,0,0,1,56.33-63.64h.37q.37-4.46.37-8.54c0-77.26-74.66-77.26-74.66-77.26-70.94,0-124.18,55.22-127.27,113.53-17.58,30-39,53.74-63.27,57.33-39.86,5.94-29.34-62.15-8-133a7.17,7.17,0,0,1,6.81-5.08,369.48,369.48,0,0,0,55.22-4.08,7.24,7.24,0,0,0,5.45-4.34,62.17,62.17,0,0,0,4.46-24.76,7.18,7.18,0,0,0-7.55-7.06c-12.87.87-26.49,1.12-40,1a7.1,7.1,0,0,1-6.69-9.54C975.17,41.13,971,53.26,977.28,38a9.61,9.61,0,0,0-5.45-12.88,80.18,80.18,0,0,0-46.68-3.84,9.67,9.67,0,0,0-6.81,5.57c-5.7,12.88-4.83,7.06-20.42,54.6a7.13,7.13,0,0,1-7.31,5c-7.3-.49-13-1-16.71-1.24A7,7,0,0,0,866.85,89c-5,10-4.46,20.18-3.59,26.12A7,7,0,0,0,869,121c3,.62,5.82,1.12,8.66,1.61a7,7,0,0,1,5.7,8.79c-6.44,25.14-12.14,60.3-13.87,83.69-18.08,31.2-39.12,46.3-63.89,50-27.61,4.09-49.52-26-53-68.22v-.12c62.4-32.69,82.94-82.46,88.77-101.4A9.69,9.69,0,0,0,836,83.47c-18.33-8.42-38.75-3.71-48.16-.62A9.86,9.86,0,0,0,781.29,90c-13.49,59.8-54.72,75.15-62.89,77.5-.62.24-3.59,1-6.07,1.61C722.36,129,754.42,43.6,756.53,38c2.23-6.32-2.11-13.37-8.92-13.62-9.15-.49-19.31,5.95-28,11.27-8.17,5.07-18.7,7.79-25.14,9.16a7,7,0,0,0-5.32,4.83,32.43,32.43,0,0,0-1,3.34c-.24.62-.37,1.12-.62,1.61-6.93,19.19-31.94,84.43-52.61,165.53-17.46,25.75-36.15,42.34-50,42.34-23.27,0-1-68,6.56-89.14a9,9,0,0,0-3.59-10.52c-16.22-10.65-34.54-9.78-43.83-8.42a10.38,10.38,0,0,0-7.93,6.32C478,299.51,449.12,273.26,452,231.66c2.73-42.21,44.33-98.06,85.31-98.06,30.7,0,55,11.89,65.12,17.83a10.12,10.12,0,0,0,11.27-.87,51.7,51.7,0,0,0,11-11.76,11.36,11.36,0,0,0-.49-13c-8-10.65-29.59-31.32-77.5-31.32-59.55,0-143.12,50.64-156.12,127.52-68,93.47-99.29,36.89-55.59-27.24,23.15-34,31.45-47.91-8-79.12S298.08,82.48,298.08,64s-36.15-36-50.14,4.83c-5.33,15.84-1.49,28.72,7.67,40.24-18.2,57.2-68.34,150.18-118.11,157.61-40,5.94-24.76-65.62-3.59-136.44a7.06,7.06,0,0,1,6.81-5.07,356.44,356.44,0,0,0,55.34-4.09,6.9,6.9,0,0,0,5.32-4.21c4-9.16,8.3-29.46,8.17-35.66A7.17,7.17,0,0,0,202,74.18c-12.87.74-26.49,1-40,1a7.1,7.1,0,0,1-6.68-9.54c5.2-14.85,13.62-42.09,16.09-48.9C174.15,8.94,168.82.39,160.53,0l-1,0c-11,0-22.93,7.52-33.14,13.77" style="fill:#000b29"/><path d="M1179.61,245.35a44.48,44.48,0,1,0,44.48-44.48,44.48,44.48,0,0,0-44.48,44.48" style="fill:#00dfff"/></g></g></svg>