<?xml version="1.0" encoding="UTF-8" standalone="no"?>
<svg xmlns="http://www.w3.org/2000/svg" height="267px" width="1434px" version="1.1" xmlns:xlink="http://www.w3.org/1999/xlink" viewBox="0 0 1434 267"><!-- Generator: Sketch 39.1 (31720) - http://www.bohemiancoding.com/sketch -->
 <title>Slice 1</title>
 <desc>Created with Sketch.</desc>
 <g id="Page-1" fill-rule="evenodd" fill="none">
  <g id="gdg-logo">
   <g id="XMLID_6_" transform="translate(200)">
    <path id="XMLID_3_" fill="#757575" d="m159.9 138.4c0 22-6.5 39.6-19.6 52.7-14.8 15.6-34.1 23.4-57.9 23.4-22.8 0-42.1-7.9-58.1-23.7-15.9-15.8-23.9-35.4-23.9-58.7s8-42.9 23.9-58.7 35.3-23.7 58.1-23.7c11.3 0 22.1 2.2 32.4 6.6s18.5 10.3 24.7 17.6l-13.9 13.9c-10.5-12.6-24.9-18.8-43.3-18.8-16.6 0-31 5.8-43.1 17.5s-18.2 26.8-18.2 45.5 6.1 33.8 18.2 45.5 26.5 17.5 43.1 17.5c17.6 0 32.3-5.9 44.1-17.6 7.6-7.6 12-18.3 13.2-31.9h-57.3v-19h76.4c0.8 4.1 1.2 8.1 1.2 11.9z"/>
    <path id="XMLID_20_" fill="#757575" d="m180.3 210.9v-157.8h48.2c24.2 0 43.6 7.3 58.2 21.9 14.5 14.6 21.8 33.6 21.8 57s-7.3 42.3-21.8 57c-14.5 14.6-33.9 21.9-58.2 21.9h-48.2zm20.3-19.4h28c18.2 0 32.6-5.2 43.3-15.6 10.6-10.4 16-25 16-43.8 0-18.7-5.3-33.2-16-43.7s-25.1-15.8-43.3-15.8h-28v118.9z"/>
    <path id="XMLID_23_" fill="#757575" d="m481 138.4c0 22-6.5 39.6-19.6 52.7-14.8 15.6-34.1 23.4-57.9 23.4-22.8 0-42.1-7.9-58.1-23.7-15.9-15.8-23.9-35.4-23.9-58.7s8-42.9 23.9-58.7 35.3-23.7 58.1-23.7c11.3 0 22.1 2.2 32.4 6.6s18.5 10.3 24.7 17.6l-13.9 13.9c-10.5-12.6-24.9-18.8-43.3-18.8-16.6 0-31 5.8-43.1 17.5s-18.2 26.8-18.2 45.5 6.1 33.8 18.2 45.5 26.5 17.5 43.1 17.5c17.6 0 32.3-5.9 44.1-17.6 7.6-7.6 12-18.3 13.2-31.9h-57.3v-19h76.4c0.8 4.1 1.2 8.1 1.2 11.9z"/>
    <text id="Maceió" font-size="220" font-family="ProductSans-Regular, Product Sans" fill-opacity=".54" fill="#000000">
     <tspan y="211" x="540">Maceió</tspan>
    </text>
   </g>
   <g id="XMLID_261_" fill="#757575" transform="translate(0 34)">
    <polygon id="XMLID_259_" points="32.3 0 0 0 92.3 160 108.5 132"/>
    <path id="XMLID_258_" d="m120.9 91l-52.6-91h-32.2l74.3 128.8 10.5-18.2c1.7-2.8 2.8-6.2 2.8-9.8-0.1-3.6-1.1-6.9-2.8-9.8z"/>
    <polygon id="XMLID_257_" points="56.3 104.1 0.9 200 33.2 200 72.5 132"/>
    <polygon id="XMLID_256_" points="74.3 135.3 37 200 69.2 200 90.5 163.2"/>
   </g>
  </g>
 </g>
</svg>
