<?xml version="1.0" encoding="utf-8"?>
<!-- Generator: Adobe Illustrator 21.1.0, SVG Export Plug-In . SVG Version: 6.00 Build 0)  -->
<svg version="1.1" id="Layer_4" xmlns="http://www.w3.org/2000/svg" xmlns:xlink="http://www.w3.org/1999/xlink" x="0px" y="0px"
	 viewBox="0 0 607.1 142.6" style="enable-background:new 0 0 607.1 142.6;" xml:space="preserve">
<style type="text/css">
	.st0{fill:#FAFAFA;}
	.st1{clip-path:url(#SVGID_2_);}
	.st2{fill:#0F9D58;}
	.st3{fill:#07864F;}
	.st4{fill:#004F2B;}
	.st5{clip-path:url(#SVGID_4_);}
	.st6{fill:#FFC107;}
	.st7{fill:none;stroke:#E5A300;stroke-width:2.1021;stroke-linecap:round;stroke-linejoin:round;stroke-miterlimit:10;}
	.st8{fill:none;stroke:#A56B17;stroke-width:2.1021;stroke-linecap:round;stroke-linejoin:round;stroke-miterlimit:10;}
	.st9{fill:none;stroke:#A56B17;stroke-width:1.4573;stroke-linecap:round;stroke-linejoin:round;stroke-miterlimit:10;}
	.st10{fill:none;stroke:#E5A300;stroke-width:1.4573;stroke-linecap:round;stroke-linejoin:round;stroke-miterlimit:10;}
	.st11{clip-path:url(#SVGID_6_);}
	.st12{fill:#4285F4;}
	.st13{fill:#2167CE;}
	.st14{fill:#144570;}
	.st15{clip-path:url(#SVGID_8_);}
	.st16{fill:#DB4437;}
	.st17{fill:none;stroke:#A00000;stroke-width:4.7048;stroke-miterlimit:10;}
	.st18{fill:none;}
	.st19{fill:#630000;}
	.st20{fill:#D9413D;}
	.st21{opacity:0.2;fill:#BF360C;enable-background:new    ;}
	.st22{opacity:0.2;fill:#263238;enable-background:new    ;}
	.st23{opacity:0.2;fill:#FFFFFF;enable-background:new    ;}
	.st24{opacity:0.25;fill:url(#SVGID_9_);enable-background:new    ;}
	.st25{opacity:0.2;fill:#1A237E;enable-background:new    ;}
	.st26{opacity:0.2;fill:#3E2723;enable-background:new    ;}
	.st27{fill:url(#XMLID_33_);}
</style>
<g id="XMLID_22_">
	<path id="XMLID_32_" class="st0" d="M195.1,36.8c0,7.7-2.3,14-6.9,18.5c-5.2,5.5-12.1,8.2-20.4,8.2c-8,0-14.8-2.8-20.4-8.4
		c-5.6-5.5-8.4-12.5-8.4-20.6s2.8-15.1,8.4-20.6s12.4-8.4,20.4-8.4c4,0,7.8,0.8,11.4,2.3c3.6,1.6,6.5,3.6,8.7,6.2l-4.9,4.9
		c-3.7-4.4-8.7-6.6-15.2-6.6c-5.8,0-10.9,2.1-15.2,6.2c-4.3,4.1-6.4,9.4-6.4,16s2.1,11.9,6.4,16s9.3,6.2,15.2,6.2
		c6.2,0,11.4-2.1,15.5-6.2c2.7-2.7,4.3-6.5,4.7-11.3h-20.2v-6.7h27C194.9,34.1,195.1,35.4,195.1,36.8z"/>
	<path id="XMLID_31_" class="st0" d="M202.1,62.3V6.7h17c8.5,0,15.4,2.6,20.5,7.7c5.1,5.2,7.7,11.8,7.7,20.1s-2.6,14.9-7.7,20.1
		c-5.1,5.2-11.9,7.7-20.5,7.7L202.1,62.3L202.1,62.3z M209.2,55.5h9.9c6.4,0,11.5-1.8,15.3-5.5s5.6-8.8,5.6-15.5
		c0-6.6-1.8-11.7-5.6-15.4s-8.9-5.5-15.3-5.5h-9.9C209.2,13.6,209.2,55.5,209.2,55.5z"/>
	<path id="XMLID_30_" class="st0" d="M307.9,36.8c0,7.7-2.3,14-6.9,18.5c-5.2,5.5-12.1,8.2-20.4,8.2c-8,0-14.8-2.8-20.4-8.4
		c-5.6-5.5-8.4-12.5-8.4-20.6s2.8-15.1,8.4-20.6c5.6-5.5,12.4-8.4,20.4-8.4c4,0,7.8,0.8,11.4,2.3c3.6,1.6,6.5,3.6,8.7,6.2l-4.9,4.9
		c-3.7-4.4-8.7-6.6-15.2-6.6c-5.8,0-10.9,2.1-15.2,6.2c-4.3,4.1-6.4,9.4-6.4,16s2.1,11.9,6.4,16s9.3,6.2,15.2,6.2
		c6.2,0,11.4-2.1,15.5-6.2c2.7-2.7,4.3-6.5,4.7-11.3h-20.2v-6.7h27C307.7,34.1,307.9,35.4,307.9,36.8z"/>
	<path id="XMLID_29_" class="st0" d="M333.6,62.3V6.7h17c8.5,0,15.4,2.6,20.5,7.7c5.1,5.2,7.7,11.8,7.7,20.1s-2.6,14.9-7.7,20.1
		s-11.9,7.7-20.5,7.7L333.6,62.3L333.6,62.3z M340.8,55.5h9.9c6.4,0,11.5-1.8,15.3-5.5c3.8-3.7,5.6-8.8,5.6-15.5
		c0-6.6-1.8-11.7-5.6-15.4s-8.9-5.5-15.3-5.5h-9.9C340.8,13.6,340.8,55.5,340.8,55.5z"/>
	<path id="XMLID_28_" class="st0" d="M402.2,63.6c-5.7,0-10.4-1.9-14-5.7c-3.6-3.8-5.4-8.7-5.4-14.5c0-5.5,1.8-10.3,5.2-14.3
		s7.9-6,13.4-6c5.6,0,10.1,1.8,13.6,5.5s5.1,8.6,5.1,14.8l-0.1,1.3h-30c0.2,3.8,1.5,6.9,3.8,9.1c2.3,2.2,5.1,3.3,8.2,3.3
		c5.1,0,8.6-2.2,10.4-6.5l6.4,2.6c-1.3,3-3.3,5.4-6.1,7.4C409.8,62.6,406.3,63.6,402.2,63.6L402.2,63.6z M412.5,38.7
		c-0.1-2.2-1.1-4.3-3-6.2s-4.5-3-8.2-3c-2.6,0-4.9,0.9-6.9,2.5c-1.9,1.6-3.3,3.9-4,6.7L412.5,38.7L412.5,38.7L412.5,38.7z"/>
	<path id="XMLID_27_" class="st0" d="M435,62.3l-15.4-38h7.8l11.2,29.5h0.1l11.4-29.5h7.6l-15.5,38H435z"/>
	<path id="XMLID_26_" class="st0" d="M469,62.3h-7.2V6.7h32.4v6.8h-25.3v18.2h22.8v6.7h-22.8L469,62.3L469,62.3L469,62.3z"/>
	<path id="XMLID_25_" class="st0" d="M515.9,63.6c-5.7,0-10.4-1.9-14-5.7c-3.6-3.8-5.4-8.7-5.4-14.5c0-5.5,1.8-10.3,5.2-14.3
		s7.9-6,13.4-6c5.6,0,10.1,1.8,13.6,5.5s5.1,8.6,5.1,14.8l-0.1,1.3h-30c0.2,3.8,1.5,6.9,3.8,9.1s5.1,3.3,8.2,3.3
		c5.1,0,8.6-2.2,10.4-6.5l6.4,2.6c-1.3,3-3.3,5.4-6.1,7.4C523.5,62.6,520,63.6,515.9,63.6L515.9,63.6z M526.1,38.7
		c-0.1-2.2-1.1-4.3-3-6.2s-4.5-3-8.2-3c-2.6,0-4.9,0.9-6.9,2.5c-1.9,1.6-3.3,3.9-4,6.7L526.1,38.7L526.1,38.7L526.1,38.7z"/>
	<path id="XMLID_24_" class="st0" d="M552.6,63.6c-4.3,0-7.7-1.1-10.5-3.1s-4.8-4.7-6.1-7.7l6.4-2.6c2,4.8,5.5,7.2,10.3,7.2
		c2.2,0,4-0.5,5.5-1.5c1.4-1,2.1-2.3,2.1-3.9c0-2.5-1.7-4.2-5.2-5l-7.7-1.8c-2.4-0.6-4.8-1.8-6.9-3.5c-2.2-1.7-3.3-4-3.3-7
		c0-3.3,1.5-6.1,4.5-8.2c3-2.1,6.5-3.1,10.6-3.1c3.3,0,6.4,0.8,9,2.3c2.6,1.6,4.5,3.7,5.7,6.5l-6.2,2.6c-1.4-3.3-4.3-5-8.7-5
		c-2.1,0-3.9,0.4-5.3,1.3c-1.4,0.9-2.2,2.1-2.2,3.5c0,2.2,1.7,3.6,5,4.4l7.5,1.8c3.5,0.9,6.2,2.3,7.9,4.3s2.6,4.3,2.6,6.8
		c0,3.4-1.4,6.2-4.2,8.5C560.7,62.4,557,63.6,552.6,63.6L552.6,63.6z"/>
	<path id="XMLID_23_" class="st0" d="M589.1,62.9c-4,0-7-1.1-9.2-3.2s-3.1-5.1-3.1-9V30.8h-6.7v-6.5h6.7V12.6h7.2v11.6h9.3v6.5H584
		v19.4c0,4.1,1.7,6.2,5.1,6.2c1.3,0,2.4-0.2,3.3-0.6l2.5,6.1C593.3,62.6,591.4,62.9,589.1,62.9L589.1,62.9z"/>
</g>
<g>
	<g>
		<g>
			<g>
				<g>
					<g>
						<defs>
							<polygon id="SVGID_1_" points="40.8,71.2 53.6,93.4 25.2,142.6 -0.3,142.6 							"/>
						</defs>
						<clipPath id="SVGID_2_">
							<use xlink:href="#SVGID_1_"  style="overflow:visible;"/>
						</clipPath>
						<g class="st1">
							<g>
								<polygon class="st2" points="57.3,88.2 24.1,145.4 -3.8,145.9 44.3,63.8 								"/>
							</g>
							<g>
								<g>
									<path class="st3" d="M31.4,79.6c-1.5,7.4,0.2,13.7,3.2,20.6c2.6,6.3,8,14.6,6,21.7c-1,3.5,4.5,5.1,5.5,1.5
										c1.8-6.9-1.1-13-3.7-19.2c-3.1-7.4-7.1-14.8-5.5-23.1C37.6,77.6,32.1,76,31.4,79.6L31.4,79.6z"/>
								</g>
							</g>
							<g>
								<path class="st3" d="M7.6,142c-3,0-6-0.2-9-0.4l0.5-5.7c4,0.3,8,0.5,12,0.3c5.5-0.2,12.4-0.9,17.1-4.9
									c3.2-2.7,5.2-6.9,5.2-11.2c0-1.2-0.4-2.5-0.8-4c-0.2-0.7-0.4-1.4-0.5-2.1c-0.5-2.5-1.5-4.9-2.7-7.1
									c-0.4-0.7-0.8-1.5-1.4-2.2c-0.9-1.5-1.9-2.9-2.6-4.7c-1.5-3.5-1.6-7-0.2-9.8l5.1,2.5c-0.6,1.2-0.5,3,0.3,4.9
									c0.5,1.3,1.4,2.5,2.2,3.9c0.5,0.8,1,1.5,1.5,2.4c1.5,2.7,2.7,5.6,3.4,8.7c0.2,0.6,0.3,1.2,0.5,1.8c0.5,1.7,1,3.6,0.9,5.6
									c-0.2,5.9-2.8,11.6-7.2,15.4c-6.1,5.2-14.2,6.1-20.6,6.3C10.1,142,8.8,142,7.6,142z"/>
							</g>
							<g>
								<path class="st3" d="M2.5,133.7l-1.2-5.6c2.1-0.4,4.2-0.6,6.2-0.8c2.2-0.2,4.2-0.5,6.2-0.9c2.9-0.6,6.8-2,8.7-5.1
									c1.5-2.3,1.8-5.5,1.1-8.9c-0.8-3.3-2.5-6.4-4.5-9.7l4.9-2.9c2.1,3.6,4.1,7.2,5.1,11.3c1.2,4.9,0.5,9.8-1.8,13.4
									c-2.4,3.7-6.7,6.3-12.3,7.5c-2.3,0.5-4.5,0.8-6.8,1C6.3,133.2,4.4,133.3,2.5,133.7z"/>
							</g>
							<g>
								<path class="st3" d="M48.9,112.7l-5.3-2.2c1.7-3.9,2-8.5,0.9-12.6c-0.5-2-1.4-3.9-2.2-6c-0.4-0.9-0.8-1.8-1.2-2.7
									c-1.2-2.9-2.5-6.8-2-10.9c0.5-5.5,4.2-10.4,9.2-12.5l2.2,5.3c-3.1,1.3-5.5,4.5-5.8,7.8c-0.3,2.9,0.7,5.9,1.6,8.1
									c0.3,0.8,0.7,1.7,1.1,2.5c0.9,2.2,1.9,4.4,2.5,6.9C51.4,101.8,51,107.6,48.9,112.7z"/>
							</g>
							<g>
								<path class="st3" d="M55.3,96.5c-2.8-2.9-6.7-6.9-7.5-12.2c-0.7-4.2,0.8-8.7,3.9-11.7l4,4.2c-1.8,1.7-2.6,4.2-2.2,6.6
									c0.5,3.2,3,6,6,9L55.3,96.5z"/>
							</g>
							<g>
								<path class="st4" d="M41.5,92.5c5.7-4.2,4-6.9,4-6.9s-4,1.6-6.1,4.5c0.6-5.4-1.4-6.9-3.4-8.1c0.5,5.2,1,6.8,1.1,7
									c-0.3-0.5-2.4-4.7-5.5-5.9c0.5,3.3,2.1,5.5,3.1,6.6c0.5,0.5,0.9,0.8,0.9,0.9c-0.1-0.1-0.5-0.3-0.9-0.9
									c-1.5-1.2-4.9-2.9-9,0.5c3.6,2.1,9,1.5,9.7,1.4c-0.9,0.2-10.9,3.2-10.1,8.5c4.5-1.6,8.4-5.2,9.2-5.9
									c-0.8,0.8-5.4,5.5-5.5,10.4c3.3-2.8,5.3-4.5,6.5-5.5c-0.6,2.8-1.2,5.4-1.8,7.9c-2.3,10.5-4.8,21.3-6.5,21.3
									c-0.7,0-1.4-1.7-2-3.2c-1.1-2.8-2.4-6.2-5.9-6.1c-1.6,0-6.5,0.1-16,33.2l2,0.6c6.7-23.3,11.6-31.7,14-31.7
									c1.9,0,2.9,1.9,3.9,4.8c0.9,2.3,1.8,4.6,4,4.6c3.5-0.1,5.1-7.2,8.5-23c0.5-2.3,1.1-4.7,1.6-7.3c0.3,2.5,0.6,5.8,0.2,8
									c3.4-6.2,2-11,2-11s4.8,6.9,6.5,7.9c1.1-5.5-4.2-9.3-4.2-9.3s7.4-1.8,6.7,3.2C52.1,96,49.8,91.3,41.5,92.5z"/>
							</g>
						</g>
					</g>
				</g>
			</g>
		</g>
		<g>
			<g>
				<g>
					<g>
						<defs>
							<polygon id="SVGID_3_" points="65.4,113.9 53.6,93.4 25.2,142.6 49.6,142.6 65.8,114.4 							"/>
						</defs>
						<clipPath id="SVGID_4_">
							<use xlink:href="#SVGID_3_"  style="overflow:visible;"/>
						</clipPath>
						<g class="st5">
							<path class="st6" d="M69.4,102.4v6.7l-17.9,33.5c-1,1.8-2.9,3-5.1,3.1l-24.4-0.2l37-62.3l8.9,14.1
								C68.8,98.8,69.4,100.6,69.4,102.4z"/>
							<g>
								<g>
									<polyline class="st7" points="38.5,118.1 52,130.8 52,118.1 									"/>
									<polyline class="st7" points="43.1,118.1 52,130.8 47.3,118.1 									"/>
									<polyline class="st7" points="38.6,121.5 52,130.8 38.7,125.8 									"/>
									<line class="st7" x1="52" y1="130.8" x2="39.2" y2="130.8"/>
								</g>
								<g>
									<polyline class="st8" points="64.8,119.1 52,130.8 52,119.1 									"/>
									<polyline class="st8" points="61,118.3 52,130.8 56.7,118.1 									"/>
									<polyline class="st8" points="65,122.1 52,130.8 65.4,126.6 									"/>
									<line class="st8" x1="52" y1="130.8" x2="64.1" y2="130.8"/>
								</g>
								<g>
									<polyline class="st8" points="38.5,143.6 52,130.8 52,143.6 									"/>
									<polyline class="st8" points="43.2,143.6 52,130.8 47.3,143.6 									"/>
									<polyline class="st8" points="38.8,140 52,130.8 39.2,135.5 									"/>
									<line class="st8" x1="52" y1="130.8" x2="39.2" y2="130.8"/>
								</g>
								<g>
									<polyline class="st7" points="65.4,143.6 52,130.8 52,143.6 									"/>
									<polyline class="st7" points="60.8,143.6 52,130.8 56.7,143.6 									"/>
									<polyline class="st7" points="65.2,140 52,130.8 64.8,135.5 									"/>
									<line class="st7" x1="52" y1="130.8" x2="64.8" y2="130.8"/>
								</g>
								<rect x="38.5" y="118.1" class="st7" width="27" height="25.6"/>
							</g>
							<g>
								<line class="st8" x1="54.9" y1="117.8" x2="39.7" y2="102.5"/>
								<line class="st8" x1="65.1" y1="107.7" x2="49.6" y2="92"/>
								<line class="st8" x1="66.1" y1="101.7" x2="50" y2="117.5"/>
								<line class="st8" x1="55" y1="92.4" x2="38.9" y2="108.4"/>
								<line class="st7" x1="39.2" y1="92.2" x2="52.6" y2="105"/>
								<line class="st7" x1="66.1" y1="92.2" x2="52.6" y2="105"/>
								<path class="st9" d="M66.2,107.7l-8,7.6l-2.8,2.6c-0.7,0.7-1.7,1.1-2.6,1.1c-1.1,0.1-2.2-0.3-3-1.1l-7.2-6.9l-3.5-3.3
									c-0.8-0.8-1.2-1.8-1.2-2.9c0-0.9,0.5-1.8,1.2-2.5l6.5-6.2l4.2-4.1c0.8-0.8,1.8-1.1,2.8-1.1c1,0,2.1,0.4,2.8,1.1l10.7,10.2
									c0.8,0.8,1.2,1.7,1.2,2.7C67.4,105.9,67,106.9,66.2,107.7z"/>
								<rect x="39.2" y="92.2" class="st10" width="27" height="25.6"/>
								<path class="st9" d="M58.2,94.7l8,7.6c0.8,0.8,1.2,1.7,1.2,2.7"/>
								<path class="st9" d="M45.6,96.1l4.2-4.1c0.8-0.8,1.8-1.1,2.8-1.1"/>
								<path class="st9" d="M42.6,111l-3.5-3.3c-0.8-0.8-1.2-1.8-1.2-2.9"/>
								<path class="st9" d="M58.2,115.2l-2.8,2.6c-0.7,0.7-1.7,1.1-2.6,1.1"/>
								<line class="st7" x1="52.6" y1="105" x2="39.2" y2="117.8"/>
								<line class="st7" x1="52.6" y1="105" x2="66.1" y2="117.8"/>
							</g>
							<g>
								<line class="st8" x1="27.4" y1="143.9" x2="11.8" y2="128.2"/>
								<line class="st8" x1="37.3" y1="133.5" x2="21.7" y2="117.8"/>
								<line class="st8" x1="37.9" y1="127.8" x2="21.9" y2="143.6"/>
								<line class="st8" x1="27.2" y1="118.1" x2="11.1" y2="134.1"/>
								<line class="st7" x1="11.3" y1="117.9" x2="24.8" y2="130.7"/>
								<line class="st7" x1="38.2" y1="117.9" x2="24.8" y2="130.7"/>
								<path class="st9" d="M38.3,133.4l-8,7.6l-2.8,2.6c-0.7,0.7-1.7,1.1-2.6,1.1c-1.1,0.1-2.2-0.3-3-1.1l-7.2-6.9l-3.5-3.3
									c-0.8-0.8-1.2-1.8-1.2-2.9c0-0.9,0.5-1.8,1.2-2.5l6.5-6.2l4.2-4.1c0.8-0.8,1.8-1.1,2.9-1.1c1,0,2.1,0.4,2.9,1.1l10.7,10.2
									c0.8,0.8,1.2,1.7,1.2,2.7C39.5,131.7,39.1,132.6,38.3,133.4z"/>
								<rect x="11.3" y="117.9" class="st10" width="27" height="25.6"/>
								<path class="st9" d="M30.3,120.5l8,7.6c0.8,0.8,1.2,1.7,1.2,2.7"/>
								<path class="st9" d="M17.7,121.9l4.2-4.1c0.8-0.8,1.8-1.1,2.9-1.1"/>
								<path class="st9" d="M14.7,136.7l-3.5-3.3c-0.8-0.8-1.2-1.8-1.2-2.9"/>
								<path class="st9" d="M30.3,140.9l-2.8,2.6c-0.7,0.7-1.7,1.1-2.6,1.1"/>
								<line class="st7" x1="24.8" y1="130.7" x2="11.3" y2="143.5"/>
								<line class="st7" x1="24.8" y1="130.7" x2="38.2" y2="143.5"/>
							</g>
						</g>
					</g>
				</g>
			</g>
		</g>
		<g>
			<g>
				<g>
					<g>
						<defs>
							<polygon id="SVGID_5_" points="25.2,0 -0.4,0 65.8,114.4 78.6,92.3 							"/>
						</defs>
						<clipPath id="SVGID_6_">
							<use xlink:href="#SVGID_5_"  style="overflow:visible;"/>
						</clipPath>
						<g class="st11">
							<g>
								<path class="st12" d="M80.6,96.1l-3.5,6l-11.9,19.6l0.2-6.4c0.1-1.7-0.4-3.4-1.3-4.9l-8.3-13.9l-0.1-0.2L43.4,75.9L0.6,4.4
									c-2.3-3.9-4.1-9.6,0.8-9.6L23-4.5L80.6,96.1z"/>
							</g>
							<g>
								<path class="st13" d="M29.2,66.6l-5.5-2.4c2.5-5.8,8.8-8,13.8-8.2c2.5-0.1,4.8,0.2,7.1,0.5c2.2,0.2,4.2,0.5,6.1,0.5
									c3.2-0.1,7-1.3,8.5-4.5l5.5,2.5c-2.5,5.8-8.8,7.9-13.8,8.1c-2.4,0.1-4.8-0.2-7-0.5c-2.2-0.2-4.2-0.5-6.2-0.5
									C34.5,62.2,30.6,63.4,29.2,66.6z"/>
							</g>
							<g>
								<g>
									<path class="st13" d="M65.9,65.1c-9.5,3.2-23.6-7.9-29,5.1c-0.6,1.5,0.6,3.8,0,5.2c5.5-13.1,19.5-1.9,29-5.1
										C66.5,70.2,65.4,65.2,65.9,65.1L65.9,65.1z"/>
								</g>
							</g>
							<g>
								<g>
									<path class="st13" d="M40.3,82c2.4-7.4,8.9-7.2,15.2-5c6.7,2.3,14,4.2,19.9-1.1c0.8-0.8-0.8-4.2,0-5
										c-5.8,5.3-13.2,3.4-19.9,1.1c-6.2-2.2-12.8-2.4-15.2,5C39.8,78.6,40.8,80.6,40.3,82L40.3,82z"/>
								</g>
							</g>
							<g>
								<g>
									<path class="st13" d="M76.4,80.2C73,81,69.4,81.8,66,81.7c-3.6-0.1-7-1.5-10.5-2.1c-7-1.2-14.2,0-19.1,5.5
										c-0.8,1,0.8,4.3,0,5.2c4.9-5.5,12.1-6.7,19.1-5.5c3.3,0.5,6.5,1.8,9.9,2.1c3.7,0.2,7.5-0.6,11.1-1.4
										C76.8,85.4,76.1,80.3,76.4,80.2L76.4,80.2z"/>
								</g>
							</g>
							<g>
								<g>
									<path class="st13" d="M47.8,99.4c5.1-4.8,11.5-4.6,18-4.2c6.1,0.4,11.2-1.6,14.3-7.1c0.8-1.3-0.8-3.9,0-5.2
										c-3.1,5.4-8.2,7.5-14.3,7.1c-6.5-0.5-12.9-0.6-18,4.2C46.9,95,48.6,98.6,47.8,99.4L47.8,99.4z"/>
								</g>
							</g>
							<g>
								<g>
									<path class="st13" d="M82.8,89.6c-6.6,11.7-21.2,11-32.8,9.5c0.2,0-0.2,5.2,0,5.2c11.6,1.5,26.1,2.2,32.8-9.5
										C83.5,93.6,82,91,82.8,89.6L82.8,89.6z"/>
								</g>
							</g>
							<g>
								<g>
									<path class="st13" d="M84,100.4c-8.2,10.7-22.5,8.2-33.7,5.2c0.4,0.1-0.5,5.2,0,5.2c11.2,3,25.6,5.6,33.7-5.2
										C84.8,104.5,83.1,101.5,84,100.4L84,100.4z"/>
								</g>
							</g>
							<g>
								<path class="st13" d="M26.4,58.2l-4.9-2.1c2.4-5.6,7.5-7.5,11.7-7.4c2,0.1,3.9,0.5,5.6,0.8c1.6,0.4,3.2,0.7,4.7,0.7
									c1.2,0,4.9-0.2,6.6-4.2l4.9,2.1c-2.3,5.6-7.5,7.5-11.6,7.5c-2-0.1-3.9-0.5-5.7-0.8c-1.6-0.4-3.2-0.7-4.6-0.7
									C31.9,54,28.1,54.2,26.4,58.2z"/>
							</g>
							<g>
								<g>
									<path class="st13" d="M19.9,48.2c9.2-4.2,24.3,5.4,28.3-8.2c0.5-1.6-0.5-3.6,0-5.2c-4,13.6-19.2,4-28.3,8.2
										C19.2,43.3,20.5,47.9,19.9,48.2L19.9,48.2z"/>
								</g>
							</g>
							<g>
								<g>
									<path class="st13" d="M45.1,29c-2.4,7.4-8.9,7.2-15.1,5.1c-6.7-2.2-14.1-4.2-19.9,1.2c-0.8,0.8,0.8,4.2,0,5
										c5.8-5.3,13.2-3.5,19.9-1.2c6.2,2.1,12.8,2.3,15.1-5.1C45.6,32.4,44.6,30.4,45.1,29L45.1,29z"/>
								</g>
							</g>
							<g>
								<g>
									<path class="st13" d="M9.1,30.9c3.4-0.8,6.9-1.5,10.4-1.5c3.6,0.1,7,1.5,10.5,2.1c7,1.2,14.2-0.1,19.1-5.6
										c0.8-1-0.8-4.3,0-5.2c-4.9,5.5-12.1,6.8-19.1,5.6c-3.3-0.5-6.5-1.8-9.9-2C16.4,24,12.6,24.9,9,25.7
										C8.6,25.7,9.4,30.8,9.1,30.9L9.1,30.9z"/>
								</g>
							</g>
							<g>
								<g>
									<path class="st13" d="M37.6,11.6c-5.1,4.8-11.5,4.7-18,4.2C13.4,15.5,8.4,17.6,5.3,23c-0.8,1.3,0.8,3.9,0,5.2
										c3.1-5.5,8.2-7.5,14.2-7.2c6.5,0.4,12.9,0.5,18-4.2C38.5,16,36.7,12.4,37.6,11.6L37.6,11.6z"/>
								</g>
							</g>
							<g>
								<g>
									<path class="st13" d="M2.7,21.5c6.6-11.7,21.2-11.1,32.7-9.6c-0.2,0,0.2-5.2,0-5.2C23.8,5.2,9.3,4.5,2.7,16.2
										C1.9,17.6,3.4,20.2,2.7,21.5L2.7,21.5z"/>
								</g>
							</g>
							<g>
								<g>
									<path class="st13" d="M1.4,10.7C9.4-0.1,23.8,2.5,35.1,5.5c-0.4-0.1,0.5-5.2,0-5.2C23.8-2.7,9.4-5.2,1.4,5.5
										C0.5,6.6,2.2,9.6,1.4,10.7L1.4,10.7z"/>
								</g>
							</g>
							<g>
								<path class="st14" d="M23.2-5.2c7.6,21.8-7.3,25.1-7.3,25.1l26.4,2.6C42.3,22.5,30.7,9.2,23.2-5.2z"/>
							</g>
							<g>
								<polygon class="st14" points="20.5,26 43.9,21.8 39.6,27.7 21.1,27.6 								"/>
							</g>
							<g>
								<path class="st14" d="M29.2,31c1.2,22.6-13.9,21.6-13.9,21.6l24,9.9C39.3,62.3,43.3,47.7,29.2,31z"/>
							</g>
							<g>
								<polygon class="st14" points="24.8,65.7 47.6,61.5 43.4,67.3 25.3,67.2 								"/>
							</g>
							<g>
								<path class="st14" d="M57.1,66.4c1.3,26.2-16.1,25-16.1,25l27.9,11.4C68.9,102.8,73.5,85.9,57.1,66.4z"/>
							</g>
							<g>
								<polygon class="st14" points="52,106.7 78.6,101.8 73.7,108.6 52.6,108.4 								"/>
							</g>
						</g>
					</g>
				</g>
			</g>
		</g>
		<g>
			<g>
				<g>
					<g>
						<defs>
							<path id="SVGID_7_" d="M86.8,77.9c2.4-4.2,2.4-9.2,0-13.4L49.5,0H25.1l53.4,92.3L86.8,77.9z"/>
						</defs>
						<clipPath id="SVGID_8_">
							<use xlink:href="#SVGID_7_"  style="overflow:visible;"/>
						</clipPath>
						<g class="st15">
							<g>
								<polygon class="st16" points="43.6,-10.1 15.1,-10.1 80,108.7 98.5,76.2 								"/>
								<g>
									<path class="st17" d="M98.4,91.7C97.3,90,96.8,88,96.6,86c-0.2-1.9-0.7-3.9-1.8-5.7c-1.1-1.8-2.5-3.2-4.2-4.2
										c-1.7-1-3.1-2.5-4.2-4.2c-1.1-1.8-1.6-3.7-1.8-5.7c-0.2-1.9-0.7-3.9-1.8-5.7c-1.1-1.8-2.5-3.2-4.2-4.2
										c-1.7-1-3.1-2.5-4.2-4.2c-1.1-1.8-1.6-3.7-1.8-5.7c-0.2-1.9-0.7-3.9-1.8-5.7c-1.1-1.8-2.5-3.2-4.2-4.2l0,0
										c-1.6-1-3.1-2.5-4.2-4.2c-1.1-1.8-1.6-3.8-1.8-5.7c-0.2-1.9-0.7-3.9-1.8-5.7s-2.5-3.2-4.2-4.2c-1.6-1-3.1-2.5-4.2-4.2
										s-1.6-3.8-1.8-5.7s-0.7-3.9-1.8-5.7s-2.5-3.2-4.2-4.2c-1.6-1-3.1-2.5-4.2-4.2c-1.1-1.8-1.6-3.7-1.8-5.7"/>
									<path class="st17" d="M93.1,95c-1.1-1.8-1.6-3.7-1.8-5.7c-0.2-1.9-0.7-3.9-1.8-5.7c-1.1-1.8-2.5-3.2-4.2-4.2
										c-1.7-1-3.1-2.5-4.2-4.2s-1.6-3.7-1.8-5.7c-0.2-1.9-0.7-3.9-1.8-5.7c-1.1-1.8-2.5-3.2-4.2-4.2s-3.1-2.5-4.2-4.2
										c-1.1-1.8-1.6-3.7-1.8-5.7c-0.2-1.9-0.7-3.9-1.8-5.7c-1.1-1.8-2.5-3.2-4.2-4.2l0,0c-1.6-1-3.1-2.5-4.2-4.2
										c-1.1-1.8-1.6-3.8-1.8-5.7C55.6,27.7,55,25.7,54,24s-2.5-3.2-4.2-4.2c-1.6-1-3.1-2.5-4.2-4.2s-1.6-3.8-1.8-5.7
										s-0.7-3.9-1.8-5.7s-2.5-3.2-4.2-4.2c-1.6-1-3.1-2.5-4.2-4.2c-1.1-1.8-1.8-4.7-1.9-6.6"/>
									<path class="st17" d="M87.7,98.1c-1.1-1.8-1.6-3.7-1.8-5.7c-0.2-1.9-0.7-3.9-1.8-5.7c-1.1-1.8-2.5-3.2-4.2-4.2
										c-1.7-1-3.1-2.5-4.2-4.2c-1.1-1.8-1.6-3.7-1.8-5.7c-0.2-1.9-0.7-3.9-1.8-5.7c-1.1-1.8-2.5-3.2-4.2-4.2S65,60.1,64,58.4
										c-1.1-1.8-1.6-3.7-1.8-5.7c-0.2-1.9-0.7-3.9-1.8-5.7c-1.1-1.8-2.5-3.2-4.2-4.2l0,0c-1.6-1-3.1-2.5-4.2-4.2
										c-1.1-1.8-1.6-3.8-1.8-5.7c-0.2-1.9-0.7-3.9-1.8-5.7s-2.5-3.2-4.2-4.2c-1.6-1-3.1-2.5-4.2-4.2c-1.1-1.8-1.6-3.8-1.8-5.7
										C38.3,11,37.8,9,36.7,7.2S34.2,4,32.5,3c-1.6-1-3.1-2.5-4.2-4.2c-1.1-1.8-2-5.6-2.1-7.5"/>
									<path class="st17" d="M82.3,101.4c-1.1-1.8-1.6-3.7-1.8-5.7c-0.2-1.9-0.7-3.9-1.8-5.7c-1.1-1.8-2.5-3.2-4.2-4.2
										s-3.1-2.5-4.2-4.2c-1.1-1.8-1.6-3.7-1.8-5.7c-0.2-1.9-0.7-3.9-1.8-5.7c-1.1-1.8-2.5-3.2-4.2-4.2c-1.7-1-3.1-2.5-4.2-4.2
										s-1.6-3.7-1.8-5.7c-0.2-1.9-0.7-3.9-1.8-5.7C54,48.4,52.6,47,50.9,46l0,0c-1.6-1-3.1-2.5-4.2-4.2S45.1,38,44.9,36
										c-0.2-1.9-0.7-3.9-1.8-5.7s-2.5-3.2-4.2-4.2c-1.6-1-3.1-2.5-4.2-4.2c-1.1-1.8-1.6-3.8-1.8-5.7c-0.2-1.9-0.7-3.9-1.8-5.7
										s-2.5-3.2-4.2-4.2c-1.6-1-3.1-2.5-4.2-4.2s-2.2-6.5-2.2-8.5"/>
								</g>
								<line class="st18" x1="12.7" y1="-9" x2="11.8" y2="-10.4"/>
							</g>
							<g>
								<g>
									<polygon class="st19" points="51.3,42.3 51.3,38.1 58.3,26.5 65.3,38.1 65.3,64.2 67.7,68 67.7,64.1 74.7,52.4 81.6,64.1 
										81.6,91.8 81.6,97.7 51.3,47.7 									"/>
								</g>
								<g>
									<polyline class="st19" points="49,38.4 51.3,42.3 51.3,31.8 58.3,20.2 65.3,31.8 65.3,66 65.3,71.9 34.9,22 									"/>
								</g>
								<g>
									<polyline class="st19" points="34.9,17.6 34.9,13.6 41.9,2 49,13.6 49,41.4 49,47.2 									"/>
								</g>
								<g>
									<g>
										<g>
											<rect x="73.4" y="60.5" class="st20" width="1.9" height="13.3"/>
										</g>
										<g>
											<rect x="70.2" y="63.7" class="st20" width="8.5" height="1.9"/>
										</g>
									</g>
									<g>
										<g>
											<rect x="69.2" y="76.2" class="st20" width="2.8" height="2.8"/>
										</g>
										<g>
											<rect x="73.1" y="76.2" class="st20" width="2.8" height="2.8"/>
										</g>
										<g>
											<rect x="76.9" y="76.2" class="st20" width="2.8" height="2.8"/>
										</g>
										<g>
											<rect x="69.2" y="80.3" class="st20" width="2.8" height="2.8"/>
										</g>
										<g>
											<rect x="73.1" y="80.3" class="st20" width="2.8" height="2.8"/>
										</g>
										<g>
											<rect x="76.9" y="80.3" class="st20" width="2.8" height="2.8"/>
										</g>
										<g>
											<rect x="69.2" y="84.4" class="st20" width="2.8" height="2.8"/>
										</g>
										<g>
											<rect x="73.1" y="84.4" class="st20" width="2.8" height="2.8"/>
										</g>
										<g>
											<rect x="76.9" y="84.4" class="st20" width="2.8" height="2.8"/>
										</g>
										<g>
											<rect x="69.2" y="88.6" class="st20" width="2.8" height="2.8"/>
										</g>
										<g>
											<rect x="73.1" y="88.6" class="st20" width="2.8" height="2.8"/>
										</g>
										<g>
											<rect x="76.9" y="88.6" class="st20" width="2.8" height="2.8"/>
										</g>
									</g>
								</g>
								<g>
									<g>
										<rect x="56.9" y="26.8" class="st20" width="1.9" height="13.3"/>
									</g>
									<g>
										<rect x="53.6" y="30.1" class="st20" width="8.5" height="1.9"/>
									</g>
								</g>
								<g>
									<g>
										<rect x="41" y="10.3" class="st20" width="1.9" height="13.3"/>
									</g>
									<g>
										<rect x="37.8" y="13.6" class="st20" width="8.5" height="1.9"/>
									</g>
								</g>
								<g>
									<g>
										<rect x="52.6" y="42.5" class="st20" width="2.8" height="2.8"/>
									</g>
									<g>
										<rect x="56.5" y="42.5" class="st20" width="2.8" height="2.8"/>
									</g>
									<g>
										<rect x="60.3" y="42.5" class="st20" width="2.8" height="2.8"/>
									</g>
									<g>
										<rect x="52.6" y="46.6" class="st20" width="2.8" height="2.8"/>
									</g>
									<g>
										<rect x="56.5" y="46.6" class="st20" width="2.8" height="2.8"/>
									</g>
									<g>
										<rect x="60.3" y="46.6" class="st20" width="2.8" height="2.8"/>
									</g>
									<g>
										<rect x="52.6" y="50.8" class="st20" width="2.8" height="2.8"/>
									</g>
									<g>
										<rect x="56.5" y="50.8" class="st20" width="2.8" height="2.8"/>
									</g>
									<g>
										<rect x="60.3" y="50.8" class="st20" width="2.8" height="2.8"/>
									</g>
									<g>
										<rect x="52.6" y="54.8" class="st20" width="2.8" height="2.8"/>
									</g>
									<g>
										<rect x="56.5" y="54.8" class="st20" width="2.8" height="2.8"/>
									</g>
									<g>
										<rect x="60.3" y="54.8" class="st20" width="2.8" height="2.8"/>
									</g>
								</g>
								<g>
									<g>
										<rect x="36.8" y="26" class="st20" width="2.8" height="2.8"/>
									</g>
									<g>
										<rect x="40.6" y="26" class="st20" width="2.8" height="2.8"/>
									</g>
									<g>
										<rect x="44.5" y="26" class="st20" width="2.8" height="2.8"/>
									</g>
									<g>
										<rect x="36.8" y="30.2" class="st20" width="2.8" height="2.8"/>
									</g>
									<g>
										<rect x="40.6" y="30.2" class="st20" width="2.8" height="2.8"/>
									</g>
									<g>
										<rect x="44.5" y="30.2" class="st20" width="2.8" height="2.8"/>
									</g>
									<g>
										<rect x="36.8" y="34.3" class="st20" width="2.8" height="2.8"/>
									</g>
									<g>
										<rect x="40.6" y="34.3" class="st20" width="2.8" height="2.8"/>
									</g>
									<g>
										<rect x="44.5" y="34.3" class="st20" width="2.8" height="2.8"/>
									</g>
									<g>
										<rect x="36.8" y="38.4" class="st20" width="2.8" height="2.8"/>
									</g>
									<g>
										<rect x="40.6" y="38.4" class="st20" width="2.8" height="2.8"/>
									</g>
									<g>
										<rect x="44.5" y="38.4" class="st20" width="2.8" height="2.8"/>
									</g>
								</g>
							</g>
						</g>
					</g>
				</g>
			</g>
		</g>
	</g>
	<path id="XMLID_21_" class="st18" d="M86.9,64.5L49.6,0h-50l41.2,71.2l-41.2,71.2h50l37.4-64.5C89.3,73.8,89.3,68.7,86.9,64.5z"/>
	<path id="XMLID_20_" class="st18" d="M86.9,64.5L49.6,0h-50l41.2,71.2l-41.2,71.2h50l37.4-64.5C89.3,73.8,89.3,68.7,86.9,64.5z"/>
	<path id="XMLID_19_" class="st18" d="M86.9,64.5L49.6,0h-50l41.2,71.2l-41.2,71.2h50l37.4-64.5C89.3,73.8,89.3,68.7,86.9,64.5z"/>
	<path id="XMLID_18_" class="st21" d="M49.6,141.4H25.8l-0.6,1.2h24.4l16.2-28.1l-0.4-0.5L49.6,141.4z"/>
	<path id="XMLID_17_" class="st18" d="M86.9,64.5L49.6,0h-50l41.2,71.2l-41.2,71.2h50l37.4-64.5C89.3,73.8,89.3,68.7,86.9,64.5z"/>
	<path id="XMLID_16_" class="st22" d="M0.3,141.4l-0.6,1.2h25.6l0.6-1.2H0.3z"/>
	<path id="XMLID_15_" class="st18" d="M86.9,64.5L49.6,0h-50l41.2,71.2l-41.2,71.2h50l37.4-64.5C89.3,73.8,89.3,68.7,86.9,64.5z"/>
	<path id="XMLID_14_" class="st23" d="M-0.4,142.6h0.6l40.9-70.7l-0.4-0.5L-0.4,142.6z"/>
	<path id="XMLID_13_" class="st18" d="M86.9,64.5L49.6,0h-50l41.2,71.2l-41.2,71.2h50l37.4-64.5C89.3,73.8,89.3,68.7,86.9,64.5z"/>
	
		<radialGradient id="SVGID_9_" cx="-203.9065" cy="683.2007" r="29.415" gradientTransform="matrix(0.6394 0 0 -0.6394 180.6768 529.68)" gradientUnits="userSpaceOnUse">
		<stop  offset="0" style="stop-color:#263238"/>
		<stop  offset="1" style="stop-color:#263238"/>
	</radialGradient>
	<polygon class="st24" points="65.8,114.4 50.6,98.6 34.8,81.8 40.8,71.2 53.6,93.4 	"/>
	<path id="XMLID_12_" class="st18" d="M86.9,64.5L49.6,0h-50l41.2,71.2l-41.2,71.2h50l37.4-64.5C89.3,73.8,89.3,68.7,86.9,64.5z"/>
	<path id="XMLID_11_" class="st18" d="M86.9,64.5L49.6,0h-50l41.2,71.2l-41.2,71.2h50l37.4-64.5C89.3,73.8,89.3,68.7,86.9,64.5z"/>
	<path id="XMLID_10_" class="st18" d="M86.9,64.5L49.6,0h-50l41.2,71.2l-41.2,71.2h50l37.4-64.5C89.3,73.8,89.3,68.7,86.9,64.5z"/>
	<path id="XMLID_9_" class="st18" d="M86.9,64.5L49.6,0h-50l41.2,71.2l-41.2,71.2h50l37.4-64.5C89.3,73.8,89.3,68.7,86.9,64.5z"/>
	<path id="XMLID_8_" class="st25" d="M78.6,92.3l-0.3-0.5l-12.5,21.6L0.3,0h-0.6l66.2,114.4L78.6,92.3z"/>
	<path id="XMLID_6_" class="st18" d="M86.9,64.5L49.6,0h-50l41.2,71.2l-41.2,71.2h50l37.4-64.5C89.3,73.8,89.3,68.7,86.9,64.5z"/>
	<path id="XMLID_5_" class="st23" d="M49.6,1.2l37.4,64.5c1.1,1.9,1.6,4,1.8,6.2c0.1-2.5-0.5-5-1.8-7.2L49.6,0.1h-50l0.6,1.2
		L49.6,1.2L49.6,1.2z"/>
	<path id="XMLID_4_" class="st18" d="M86.9,64.5L49.6,0h-50l41.2,71.2l-41.2,71.2h50l37.4-64.5C89.3,73.8,89.3,68.7,86.9,64.5z"/>
	<path id="XMLID_3_" class="st26" d="M78.6,92.3l8.2-14.3c1.3-2.2,1.8-4.8,1.8-7.2c-0.1,2.2-0.6,4.2-1.8,6.2l-8.6,14.9L78.6,92.3z"
		/>
	<path id="XMLID_2_" class="st18" d="M86.9,64.5L49.6,0h-50l41.2,71.2l-41.2,71.2h50l37.4-64.5C89.3,73.8,89.3,68.7,86.9,64.5z"/>
	
		<radialGradient id="XMLID_33_" cx="-284.9024" cy="2503.6077" r="234.0014" gradientTransform="matrix(0.6394 0 0 -0.6394 180.6768 1601.8936)" gradientUnits="userSpaceOnUse">
		<stop  offset="0" style="stop-color:#FFFFFF;stop-opacity:0.1"/>
		<stop  offset="1" style="stop-color:#FFFFFF;stop-opacity:0"/>
	</radialGradient>
	<path id="XMLID_1_" class="st27" d="M86.9,64.5L49.6,0h-50l41.2,71.2l-41.2,71.2h50l37.4-64.5C89.3,73.8,89.3,68.7,86.9,64.5z"/>
</g>
<g>
	<path class="st0" d="M149.1,133.9h-7.4V76.6h7.4l19.9,34.9h0.3l19.9-34.9h7.4v57.3h-7.4v-34l0.3-9.6h-0.3l-17.9,31.4H167
		l-17.9-31.4h-0.3l0.3,9.6V133.9z"/>
	<path class="st0" d="M220.6,93.4c5.4,0,9.7,1.5,12.9,4.4c3.1,2.9,4.7,6.9,4.7,12v24.2h-7v-5.4h-0.3c-3,4.5-7.1,6.7-12.2,6.7
		c-4.3,0-7.9-1.3-10.8-3.8c-2.9-2.6-4.4-5.8-4.4-9.6c0-4.1,1.5-7.3,4.6-9.7c3.1-2.4,7.2-3.6,12.3-3.6c4.4,0,8,0.8,10.8,2.4v-1.7
		c0-2.6-1-4.7-3-6.5c-2-1.8-4.4-2.7-7.1-2.7c-4.1,0-7.4,1.7-9.8,5.2l-6.5-4.1C208.3,96,213.6,93.4,220.6,93.4z M211,121.9
		c0,1.9,0.8,3.5,2.4,4.8c1.6,1.3,3.5,1.9,5.7,1.9c3.1,0,5.9-1.1,8.3-3.4c2.4-2.3,3.6-5,3.6-8.1c-2.3-1.8-5.5-2.7-9.6-2.7
		c-3,0-5.5,0.7-7.5,2.2C212,118,211,119.8,211,121.9z"/>
	<path class="st0" d="M264,135.2c-5.8,0-10.6-2-14.5-5.9c-3.8-4.1-5.7-9-5.7-15c0-6,1.9-11,5.7-15c3.8-3.9,8.7-5.9,14.5-5.9
		c4,0,7.5,1,10.5,3c3,2,5.2,4.8,6.7,8.3l-6.7,2.8c-2.1-4.9-5.7-7.4-11-7.4c-3.4,0-6.3,1.4-8.7,4.1c-2.4,2.7-3.6,6.1-3.6,10.1
		s1.2,7.4,3.6,10.1c2.5,2.7,5.4,4.1,8.7,4.1c5.4,0,9.2-2.5,11.4-7.4l6.6,2.8c-1.4,3.5-3.7,6.3-6.8,8.3
		C271.6,134.2,268.1,135.2,264,135.2z"/>
	<path class="st0" d="M305,135.2c-5.8,0-10.5-2-14.2-5.9c-3.7-3.9-5.6-8.9-5.6-15c0-6,1.8-10.9,5.4-14.9c3.6-4,8.3-6,13.9-6
		c5.8,0,10.4,1.9,13.9,5.6c3.4,3.8,5.2,9,5.2,15.8l-0.1,0.8h-30.8c0.1,3.8,1.4,6.9,3.8,9.3c2.5,2.3,5.4,3.5,8.8,3.5
		c4.7,0,8.4-2.3,11-7l6.6,3.2c-1.8,3.3-4.2,5.9-7.3,7.8C312.5,134.2,309,135.2,305,135.2z M293.3,109.6h22.5c-0.2-2.7-1.3-5-3.3-6.8
		c-2-1.8-4.7-2.7-8-2.7c-2.8,0-5.2,0.9-7.2,2.6C295.2,104.4,293.9,106.7,293.3,109.6z"/>
	<path class="st0" d="M339.8,81.2c0,1.4-0.5,2.7-1.5,3.7c-1,1-2.2,1.5-3.7,1.5c-1.4,0-2.7-0.5-3.7-1.5c-1-1-1.5-2.2-1.5-3.7
		c0-1.4,0.5-2.7,1.5-3.7c1-1,2.2-1.5,3.7-1.5c1.4,0,2.7,0.5,3.7,1.5C339.3,78.5,339.8,79.7,339.8,81.2z M338.3,94.7v39.2H331V94.7
		H338.3z"/>
	<path class="st0" d="M345.3,114.3c0-6,1.9-11,5.7-15c3.8-3.9,8.7-5.9,14.5-5.9c5.8,0,10.6,2,14.4,5.9c3.8,3.9,5.8,8.9,5.8,15
		c0,6.1-1.9,11.1-5.8,15c-3.8,3.9-8.6,5.9-14.4,5.9c-5.8,0-10.6-2-14.5-5.9C347.2,125.3,345.3,120.3,345.3,114.3z M352.6,114.3
		c0,4.2,1.2,7.6,3.7,10.2c2.5,2.6,5.5,3.9,9.1,3.9c3.6,0,6.7-1.3,9.1-3.9c2.5-2.6,3.7-6,3.7-10.2c0-4.2-1.2-7.5-3.7-10.2
		c-2.5-2.7-5.5-4-9.1-4c-3.6,0-6.6,1.3-9.1,4C353.9,106.7,352.6,110.1,352.6,114.3z M374.1,76.6l-5.8,10.2h-6.4l4.2-10.2H374.1z"/>
	<path class="st0" d="M443.5,126.8v7h-34.9v-7.4l14.2-14.3c4.7-4.9,8-8.5,9.8-10.9c1.8-2.4,2.7-5,2.7-7.6c0-2.4-0.9-4.5-2.8-6.2
		c-1.9-1.7-4.3-2.6-7.2-2.6c-2.5,0-4.7,0.7-6.5,2.2c-1.8,1.5-3,3.3-3.5,5.4l-6.7-2.7c1.1-3.4,3.1-6.2,6.2-8.5
		c3-2.3,6.6-3.5,10.7-3.5c5,0,9.1,1.5,12.4,4.6c3.3,3,5,6.8,5,11.2c0,5.3-2.9,11-8.7,17.1l-16,16.1H443.5z"/>
	<path class="st0" d="M450.6,106.5c0-8.3,2.1-15.2,6.2-20.6c4.1-5.4,9.4-8.1,15.8-8.1s11.7,2.7,15.8,8.2c4.1,5.4,6.2,12.2,6.2,20.5
		c0,8.2-2.1,15.1-6.2,20.6c-4.1,5.4-9.4,8.1-15.8,8.1s-11.7-2.7-15.8-8.1C452.6,121.6,450.6,114.7,450.6,106.5z M487,106.5
		c0-6.3-1.3-11.5-4-15.5c-2.6-4.1-6.1-6.1-10.5-6.1s-7.9,2-10.5,6.1c-2.7,4.1-4,9.2-4,15.5c0,6.3,1.3,11.5,4,15.6
		c2.6,4,6.1,6,10.5,6s7.9-2,10.5-6.1C485.7,117.9,487,112.8,487,106.5z"/>
	<path class="st0" d="M521.3,79.2v54.7h-7.4V88.3l-10.6,4.6l-2.8-6.2l16.1-7.5H521.3z"/>
	<path class="st0" d="M566.6,86.7l-26.6,48.5l-6.6-3.4l25.4-45.6h-27.7l0.2-7h35.3V86.7z"/>
</g>
</svg>
