<?xml version="1.0" encoding="utf-8"?>
<!-- Generator: Adobe Illustrator 17.0.0, SVG Export Plug-In . SVG Version: 6.00 Build 0)  -->
<!DOCTYPE svg PUBLIC "-//W3C//DTD SVG 1.1//EN" "http://www.w3.org/Graphics/SVG/1.1/DTD/svg11.dtd">
<svg version="1.1" id="Layer_4" xmlns="http://www.w3.org/2000/svg" xmlns:xlink="http://www.w3.org/1999/xlink" x="0px" y="0px"
	 width="607.521px" height="142.554px" viewBox="0 350.242 607.521 142.554" enable-background="new 0 350.242 607.521 142.554"
	 xml:space="preserve">
<g>
	<g id="XMLID_22_">
		<path id="XMLID_32_" fill="#767676" d="M195.47,386.995c0,7.734-2.27,13.977-6.882,18.518c-5.25,5.463-12.062,8.23-20.434,8.23
			c-8.017,0-14.829-2.767-20.434-8.372c-5.605-5.534-8.443-12.487-8.443-20.647c0-8.159,2.838-15.113,8.443-20.647
			s12.416-8.372,20.434-8.372c3.973,0,7.805,0.78,11.423,2.341c3.618,1.561,6.527,3.618,8.656,6.244l-4.896,4.896
			c-3.689-4.399-8.727-6.598-15.184-6.598c-5.818,0-10.926,2.058-15.184,6.173c-4.257,4.115-6.386,9.436-6.386,16.035
			s2.129,11.92,6.386,16.035s9.295,6.173,15.184,6.173c6.244,0,11.352-2.058,15.538-6.244c2.696-2.696,4.257-6.457,4.683-11.281
			h-20.221v-6.669h26.961C195.328,384.299,195.47,385.647,195.47,386.995z"/>
		<path id="XMLID_31_" fill="#767676" d="M202.495,412.538v-55.555h17.028c8.514,0,15.396,2.554,20.505,7.734
			c5.108,5.179,7.663,11.849,7.663,20.079s-2.554,14.9-7.663,20.079c-5.108,5.179-11.92,7.734-20.505,7.734h-17.028V412.538z
			 M209.661,405.726h9.862c6.386,0,11.494-1.845,15.255-5.534c3.76-3.689,5.605-8.798,5.605-15.467
			c0-6.598-1.845-11.707-5.605-15.396s-8.869-5.534-15.255-5.534h-9.862C209.661,363.794,209.661,405.726,209.661,405.726z"/>
		<path id="XMLID_30_" fill="#767676" d="M308.283,386.995c0,7.734-2.27,13.977-6.882,18.518c-5.25,5.463-12.062,8.23-20.434,8.23
			c-8.017,0-14.829-2.767-20.434-8.372c-5.605-5.534-8.443-12.487-8.443-20.647c0-8.159,2.838-15.113,8.443-20.647
			c5.605-5.534,12.416-8.372,20.434-8.372c3.973,0,7.805,0.78,11.423,2.341c3.619,1.561,6.528,3.618,8.656,6.244l-4.896,4.896
			c-3.689-4.399-8.727-6.598-15.184-6.598c-5.818,0-10.926,2.058-15.184,6.173c-4.257,4.115-6.386,9.436-6.386,16.035
			s2.129,11.92,6.386,16.035s9.295,6.173,15.184,6.173c6.244,0,11.352-2.058,15.538-6.244c2.696-2.696,4.257-6.457,4.683-11.281
			h-20.221v-6.669h26.961C308.141,384.299,308.283,385.647,308.283,386.995z"/>
		<path id="XMLID_29_" fill="#767676" d="M334.038,412.538v-55.555h17.028c8.514,0,15.396,2.554,20.505,7.734
			s7.663,11.849,7.663,20.079s-2.554,14.9-7.663,20.079c-5.108,5.179-11.92,7.734-20.505,7.734h-17.028L334.038,412.538z
			 M341.204,405.726h9.862c6.386,0,11.494-1.845,15.255-5.534c3.76-3.689,5.605-8.798,5.605-15.467
			c0-6.598-1.845-11.707-5.605-15.396s-8.869-5.534-15.255-5.534h-9.862C341.204,363.794,341.204,405.726,341.204,405.726z"/>
		<path id="XMLID_28_" fill="#767676" d="M402.577,413.815c-5.747,0-10.43-1.916-13.977-5.747
			c-3.618-3.831-5.392-8.656-5.392-14.545c0-5.534,1.774-10.288,5.25-14.261s7.947-5.96,13.41-5.96
			c5.605,0,10.146,1.845,13.552,5.534s5.108,8.585,5.108,14.758l-0.071,1.348h-30.012c0.213,3.831,1.49,6.882,3.831,9.082
			c2.341,2.199,5.108,3.335,8.23,3.335c5.108,0,8.585-2.199,10.43-6.527l6.386,2.625c-1.277,2.98-3.264,5.392-6.102,7.379
			C410.24,412.822,406.763,413.815,402.577,413.815L402.577,413.815z M412.865,388.982c-0.142-2.199-1.135-4.257-2.98-6.244
			s-4.541-2.98-8.159-2.98c-2.625,0-4.896,0.851-6.882,2.483c-1.916,1.632-3.264,3.902-3.973,6.669h21.995v0.072H412.865z"/>
		<path id="XMLID_27_" fill="#767676" d="M435.427,412.538l-15.396-38.03h7.805l11.21,29.516h0.142l11.352-29.516h7.592
			l-15.538,38.03H435.427z"/>
		<path id="XMLID_26_" fill="#767676" d="M469.413,412.538h-7.166v-55.555h32.425v6.811h-25.33v18.234h22.846v6.669h-22.846v23.84
			L469.413,412.538L469.413,412.538z"/>
		<path id="XMLID_25_" fill="#767676" d="M516.311,413.815c-5.747,0-10.43-1.916-13.977-5.747
			c-3.618-3.831-5.392-8.656-5.392-14.545c0-5.534,1.774-10.288,5.25-14.261s7.947-5.96,13.41-5.96
			c5.605,0,10.146,1.845,13.552,5.534s5.109,8.585,5.109,14.758l-0.071,1.348H504.18c0.213,3.831,1.49,6.882,3.831,9.082
			c2.341,2.199,5.109,3.335,8.23,3.335c5.108,0,8.585-2.199,10.43-6.527l6.386,2.625c-1.277,2.98-3.264,5.392-6.102,7.379
			C523.903,412.822,520.427,413.815,516.311,413.815L516.311,413.815z M526.528,388.982c-0.142-2.199-1.135-4.257-2.98-6.244
			s-4.541-2.98-8.159-2.98c-2.625,0-4.896,0.851-6.882,2.483c-1.916,1.632-3.264,3.902-3.973,6.669h21.995v0.072H526.528z"/>
		<path id="XMLID_24_" fill="#767676" d="M553.064,413.815c-4.257,0-7.734-1.064-10.501-3.122c-2.767-2.058-4.825-4.683-6.102-7.734
			l6.386-2.625c1.987,4.754,5.463,7.166,10.288,7.166c2.199,0,4.044-0.497,5.463-1.49c1.419-0.993,2.129-2.27,2.129-3.902
			c0-2.483-1.703-4.186-5.179-5.038l-7.663-1.845c-2.412-0.639-4.754-1.774-6.882-3.548c-2.199-1.703-3.264-4.044-3.264-7.024
			c0-3.335,1.49-6.102,4.47-8.159c2.98-2.129,6.528-3.122,10.572-3.122c3.335,0,6.386,0.78,9.011,2.27
			c2.625,1.561,4.541,3.689,5.676,6.527l-6.244,2.554c-1.419-3.335-4.328-5.038-8.656-5.038c-2.129,0-3.902,0.426-5.321,1.348
			c-1.419,0.851-2.199,2.058-2.199,3.548c0,2.199,1.703,3.618,5.038,4.399l7.521,1.774c3.548,0.851,6.244,2.27,7.947,4.257
			s2.554,4.328,2.554,6.811c0,3.406-1.419,6.244-4.186,8.514C561.082,412.68,557.463,413.815,553.064,413.815L553.064,413.815z"/>
		<path id="XMLID_23_" fill="#767676" d="M589.533,413.176c-3.973,0-7.024-1.064-9.153-3.193c-2.128-2.129-3.122-5.108-3.122-9.011
			v-19.937h-6.669v-6.527h6.669v-11.636h7.166v11.636h9.295v6.527h-9.295v19.37c0,4.115,1.703,6.244,5.109,6.244
			c1.277,0,2.412-0.213,3.264-0.639l2.483,6.102C593.719,412.822,591.803,413.176,589.533,413.176L589.533,413.176z"/>
	</g>
	<g>
		<path fill="#767676" d="M143.803,485.216v-53.381h8.35l25.945,41.526h0.298l-0.298-10.288v-31.238h6.859v53.381H177.8
			l-27.137-43.539h-0.298l0.298,10.288v33.251H143.803z"/>
		<path fill="#767676" d="M197.705,453.046c3.528-3.702,8.026-5.555,13.494-5.555c5.467,0,9.965,1.853,13.494,5.555
			c3.529,3.703,5.293,8.338,5.293,13.904c0,5.567-1.765,10.202-5.293,13.904c-3.529,3.703-8.027,5.554-13.494,5.554
			c-5.468,0-9.966-1.851-13.494-5.554c-3.53-3.702-5.293-8.337-5.293-13.904C192.411,461.384,194.175,456.749,197.705,453.046z
			 M202.812,476.531c2.36,2.411,5.156,3.616,8.387,3.616c3.23,0,6.026-1.205,8.387-3.616c2.36-2.41,3.542-5.604,3.542-9.58
			c0-3.976-1.181-7.169-3.542-9.58c-2.361-2.41-5.157-3.616-8.387-3.616c-3.231,0-6.027,1.206-8.387,3.616
			c-2.361,2.411-3.542,5.604-3.542,9.58C199.27,470.927,200.451,474.121,202.812,476.531z"/>
		<path fill="#767676" d="M242.363,485.216h-6.859v-36.531h6.561v5.964h0.298c0.695-1.987,2.125-3.627,4.287-4.92
			c2.162-1.292,4.261-1.938,6.3-1.938c2.038,0,3.752,0.298,5.144,0.895l-2.609,6.411c-0.895-0.347-2.113-0.521-3.653-0.521
			c-2.486,0-4.686,0.982-6.598,2.945c-1.914,1.964-2.87,4.536-2.87,7.716v19.979H242.363z"/>
		<path fill="#767676" d="M275.614,486.409c-4.723,0-8.797-1.863-12.227-5.591s-5.145-8.351-5.145-13.867s1.715-10.14,5.145-13.867
			c3.429-3.728,7.504-5.592,12.227-5.592c2.783,0,5.281,0.597,7.493,1.79c2.211,1.192,3.864,2.684,4.958,4.473h0.298l-0.298-5.069
			v-16.85h6.859v53.381h-6.561v-5.069h-0.298c-1.094,1.789-2.747,3.28-4.958,4.473C280.894,485.813,278.397,486.409,275.614,486.409
			z M276.732,480.147c3.23,0,5.976-1.193,8.238-3.579c2.261-2.386,3.392-5.592,3.392-9.617c0-4.026-1.131-7.231-3.392-9.617
			c-2.262-2.386-5.008-3.579-8.238-3.579c-3.181,0-5.915,1.206-8.201,3.616c-2.287,2.411-3.43,5.604-3.43,9.58
			c0,3.977,1.143,7.17,3.43,9.58C270.817,478.942,273.551,480.147,276.732,480.147z"/>
		<path fill="#767676" d="M319.45,486.409c-5.516,0-10.002-1.838-13.457-5.517c-3.455-3.678-5.18-8.324-5.18-13.941
			c0-5.317,1.676-9.89,5.031-13.718c3.355-3.827,7.643-5.741,12.861-5.741c5.416,0,9.754,1.766,13.01,5.294
			c3.254,3.529,4.883,8.251,4.883,14.165l-0.074,1.268H307.67c0.199,3.679,1.43,6.586,3.691,8.723
			c2.26,2.138,4.908,3.206,7.939,3.206c4.92,0,8.25-2.088,9.99-6.263l6.113,2.535c-1.193,2.833-3.156,5.207-5.889,7.119
			C326.782,485.452,323.426,486.409,319.45,486.409z M329.291,462.552c-0.148-2.088-1.107-4.075-2.871-5.965
			c-1.764-1.888-4.387-2.833-7.865-2.833c-2.533,0-4.734,0.796-6.598,2.386c-1.863,1.592-3.145,3.728-3.84,6.412L329.291,462.552
			L329.291,462.552z"/>
		<path fill="#767676" d="M356.801,486.409c-4.076,0-7.444-0.994-10.103-2.981s-4.61-4.474-5.853-7.456l6.113-2.534
			c1.938,4.573,5.243,6.858,9.916,6.858c2.137,0,3.889-0.472,5.256-1.416c1.366-0.943,2.051-2.187,2.051-3.728
			c0-2.386-1.666-4.001-4.995-4.847l-7.381-1.789c-2.337-0.597-4.548-1.727-6.636-3.392c-2.087-1.665-3.131-3.914-3.131-6.747
			c0-3.23,1.428-5.853,4.286-7.866s6.25-3.02,10.177-3.02c3.23,0,6.113,0.734,8.648,2.2s4.349,3.566,5.442,6.3l-5.964,2.46
			c-1.343-3.23-4.126-4.846-8.351-4.846c-2.038,0-3.753,0.423-5.144,1.267c-1.393,0.846-2.088,1.989-2.088,3.43
			c0,2.088,1.614,3.504,4.846,4.25l7.232,1.715c3.429,0.795,5.964,2.162,7.604,4.1c1.64,1.938,2.46,4.127,2.46,6.562
			c0,3.28-1.342,6.014-4.026,8.2C364.48,485.315,361.025,486.409,356.801,486.409z"/>
		<path fill="#767676" d="M392.586,485.813c-3.828,0-6.747-1.019-8.76-3.057c-2.014-2.038-3.02-4.921-3.02-8.648v-19.16h-6.412
			v-6.263h6.412v-11.184h6.858v11.184h8.946v6.263h-8.946v18.638c0,3.978,1.641,5.965,4.921,5.965c1.242,0,2.285-0.198,3.131-0.597
			l2.386,5.89C396.612,485.489,394.773,485.813,392.586,485.813z"/>
		<path fill="#767676" d="M419.351,486.409c-5.517,0-10.003-1.838-13.457-5.517c-3.455-3.678-5.181-8.324-5.181-13.941
			c0-5.317,1.677-9.89,5.032-13.718c3.354-3.827,7.642-5.741,12.86-5.741c5.417,0,9.754,1.766,13.01,5.294
			c3.255,3.529,4.883,8.251,4.883,14.165l-0.074,1.268h-28.853c0.198,3.679,1.429,6.586,3.69,8.723
			c2.261,2.138,4.908,3.206,7.94,3.206c4.92,0,8.25-2.088,9.99-6.263l6.113,2.535c-1.193,2.833-3.157,5.207-5.89,7.119
			C426.682,485.452,423.328,486.409,419.351,486.409z M429.193,462.552c-0.149-2.088-1.107-4.075-2.871-5.965
			c-1.765-1.888-4.387-2.833-7.865-2.833c-2.534,0-4.734,0.796-6.598,2.386c-1.864,1.592-3.145,3.728-3.84,6.412L429.193,462.552
			L429.193,462.552z"/>
		<path fill="#767676" d="M490.474,485.216h-32.505v-6.859c9.74-9.791,15.979-16.178,18.713-19.16
			c2.435-2.732,4.074-4.809,4.92-6.225c0.845-1.417,1.268-3.169,1.268-5.257c0-2.136-0.846-4.025-2.534-5.666
			c-1.69-1.64-3.952-2.46-6.785-2.46c-2.585,0-4.672,0.759-6.262,2.274c-1.592,1.517-2.609,3.144-3.057,4.883l-6.263-2.535
			c0.845-2.684,2.609-5.219,5.293-7.604s6.162-3.578,10.438-3.578c4.722,0,8.599,1.442,11.631,4.324
			c3.03,2.883,4.548,6.337,4.548,10.362c0,4.971-2.71,10.289-8.127,15.955l-14.91,14.985h23.633v6.561H490.474z"/>
		<path fill="#767676" d="M532.372,478.73c-3.778,5.12-8.723,7.679-14.837,7.679c-6.113,0-11.06-2.559-14.836-7.679
			c-3.777-5.118-5.666-11.455-5.666-19.011c0-7.604,1.889-13.953,5.666-19.049c3.776-5.094,8.723-7.642,14.836-7.642
			c6.114,0,11.059,2.548,14.837,7.642c3.776,5.096,5.666,11.444,5.666,19.049C538.038,467.275,536.149,473.612,532.372,478.73z
			 M517.536,479.848c4.075,0,7.344-1.912,9.805-5.74c2.46-3.827,3.69-8.623,3.69-14.389c0-5.815-1.23-10.624-3.69-14.427
			c-2.461-3.802-5.729-5.703-9.805-5.703c-4.126,0-7.406,1.901-9.841,5.703c-2.436,3.803-3.653,8.611-3.653,14.427
			c0,5.766,1.218,10.562,3.653,14.389C510.129,477.936,513.41,479.848,517.536,479.848z"/>
		<path fill="#767676" d="M562.939,485.216h-6.859V442.72l-9.915,4.324l-2.609-5.814l14.985-7.009h4.398V485.216z"/>
		<path fill="#767676" d="M591.566,452.636c3.976,0,7.629,1.629,10.96,4.884c3.329,3.256,4.995,7.194,4.995,11.816
			c0,4.523-1.728,8.499-5.182,11.929c-3.455,3.43-7.543,5.144-12.265,5.144c-5.069,0-9.257-1.726-12.562-5.181
			c-3.307-3.454-4.958-7.418-4.958-11.892c0-4.722,1.987-9.99,5.964-15.806l13.867-20.502l5.517,3.802l-12.152,16.85l0.149,0.149
			C587.142,453.035,589.032,452.636,591.566,452.636z M590.075,479.774c2.882,0,5.355-0.994,7.418-2.982
			c2.062-1.987,3.095-4.447,3.095-7.381c0-2.882-1.032-5.33-3.095-7.344c-2.062-2.013-4.536-3.019-7.418-3.019
			c-2.883,0-5.367,1.006-7.455,3.019c-2.088,2.014-3.131,4.462-3.131,7.344c0,2.934,1.03,5.394,3.094,7.381
			C584.644,478.78,587.142,479.774,590.075,479.774z"/>
	</g>
	<g>
		<g>
			<g>
				<g>
					<g>
						<defs>
							<polygon id="SVGID_1_" points="41.203,421.481 54.064,443.661 25.646,492.796 0.077,492.796 							"/>
						</defs>
						<clipPath id="SVGID_2_">
							<use xlink:href="#SVGID_1_"  overflow="visible"/>
						</clipPath>
						<g clip-path="url(#SVGID_2_)">
							<g>
								<polygon fill="#0F9D58" points="57.684,438.424 24.491,495.646 -3.389,496.108 44.745,414.088 								"/>
							</g>
							<g>
								<g>
									<path fill="#07864F" d="M31.807,429.876c-1.463,7.393,0.231,13.709,3.158,20.563c2.618,6.315,8.01,14.633,6.007,21.718
										c-1.001,3.543,4.544,5.083,5.545,1.54c1.848-6.854-1.078-13.015-3.697-19.177c-3.081-7.393-7.085-14.787-5.468-23.104
										C38.045,427.796,32.5,426.256,31.807,429.876L31.807,429.876z"/>
								</g>
							</g>
							<g>
								<path fill="#07864F" d="M8.01,492.257c-3.004,0-6.007-0.154-9.011-0.385l0.462-5.699c4.005,0.308,8.01,0.462,12.014,0.308
									c5.468-0.231,12.399-0.924,17.097-4.929c3.158-2.695,5.16-6.854,5.237-11.167c0-1.232-0.385-2.541-0.77-4.005
									c-0.154-0.693-0.385-1.386-0.539-2.079c-0.539-2.541-1.463-4.929-2.696-7.085c-0.385-0.693-0.847-1.463-1.386-2.156
									c-0.924-1.463-1.925-2.927-2.618-4.698c-1.54-3.543-1.617-7.008-0.231-9.781l5.083,2.541
									c-0.616,1.232-0.462,3.004,0.308,4.929c0.539,1.309,1.386,2.541,2.233,3.851c0.462,0.77,1.001,1.54,1.463,2.387
									c1.54,2.695,2.696,5.622,3.389,8.703c0.154,0.616,0.308,1.232,0.462,1.848c0.462,1.694,1.001,3.62,0.924,5.622
									c-0.154,5.93-2.85,11.629-7.239,15.403c-6.084,5.16-14.248,6.084-20.64,6.315C10.474,492.257,9.242,492.257,8.01,492.257z"
									/>
							</g>
							<g>
								<path fill="#07864F" d="M2.927,483.94l-1.155-5.622c2.079-0.385,4.236-0.616,6.238-0.847
									c2.156-0.231,4.159-0.462,6.161-0.924c2.85-0.616,6.777-2.002,8.703-5.083c1.463-2.31,1.848-5.545,1.078-8.934
									c-0.77-3.312-2.464-6.392-4.467-9.704l4.929-2.85c2.079,3.62,4.082,7.239,5.083,11.321
									c1.155,4.929,0.539,9.781-1.848,13.401c-2.387,3.697-6.7,6.315-12.322,7.547c-2.31,0.462-4.544,0.77-6.777,1.001
									C6.7,483.401,4.775,483.555,2.927,483.94z"/>
							</g>
							<g>
								<path fill="#07864F" d="M49.289,462.992l-5.314-2.233c1.694-3.928,2.002-8.472,0.924-12.63
									c-0.539-2.002-1.386-3.928-2.233-6.007c-0.385-0.924-0.77-1.771-1.155-2.695c-1.155-2.927-2.464-6.777-2.002-10.859
									c0.539-5.468,4.236-10.397,9.242-12.476l2.233,5.314c-3.081,1.309-5.468,4.467-5.776,7.778
									c-0.308,2.85,0.693,5.853,1.617,8.087c0.308,0.847,0.693,1.694,1.078,2.541c0.924,2.156,1.925,4.39,2.541,6.854
									C51.831,452.056,51.446,457.832,49.289,462.992z"/>
							</g>
							<g>
								<path fill="#07864F" d="M55.758,446.742c-2.85-2.927-6.7-6.854-7.547-12.168c-0.693-4.236,0.847-8.703,3.928-11.706
									l4.005,4.159c-1.771,1.694-2.618,4.236-2.233,6.623c0.539,3.235,3.004,6.007,6.007,9.011L55.758,446.742z"/>
							</g>
							<g>
								<path fill="#004F2B" d="M41.896,442.737c5.699-4.159,4.005-6.931,4.005-6.931s-4.005,1.617-6.084,4.467
									c0.616-5.391-1.386-6.931-3.389-8.087c0.539,5.237,1.001,6.777,1.078,7.008c-0.308-0.539-2.387-4.698-5.468-5.853
									c0.539,3.312,2.079,5.468,3.081,6.623c0.539,0.462,0.924,0.847,0.924,0.924c-0.077-0.077-0.462-0.308-0.924-0.924
									c-1.54-1.232-4.852-2.85-9.011,0.539c3.62,2.079,9.011,1.463,9.704,1.386c-0.924,0.231-10.859,3.235-10.089,8.472
									c4.467-1.617,8.395-5.237,9.242-5.93c-0.847,0.847-5.391,5.468-5.545,10.397c3.312-2.773,5.314-4.467,6.469-5.545
									c-0.616,2.773-1.232,5.391-1.771,7.855c-2.31,10.474-4.775,21.256-6.546,21.333c-0.693,0-1.386-1.694-2.002-3.235
									c-1.078-2.773-2.387-6.161-5.93-6.084c-1.617,0-6.469,0.077-16.019,33.193l2.002,0.616
									c6.7-23.258,11.629-31.653,14.017-31.653c1.925,0,2.85,1.925,3.928,4.775c0.924,2.31,1.771,4.621,4.005,4.621
									c3.466-0.077,5.083-7.239,8.549-22.95c0.539-2.31,1.078-4.698,1.617-7.316c0.308,2.464,0.616,5.776,0.154,8.009
									c3.389-6.238,2.002-11.013,2.002-11.013s4.775,6.931,6.546,7.855c1.078-5.545-4.236-9.319-4.236-9.319
									s7.393-1.848,6.7,3.235C52.524,446.28,50.213,441.582,41.896,442.737z"/>
							</g>
						</g>
					</g>
				</g>
			</g>
			<g>
				<g>
					<g>
						<defs>
							<polygon id="SVGID_3_" points="65.847,464.147 53.987,443.661 25.569,492.796 49.982,492.796 66.232,464.686 							"/>
						</defs>
						<clipPath id="SVGID_4_">
							<use xlink:href="#SVGID_3_"  overflow="visible"/>
						</clipPath>
						<g clip-path="url(#SVGID_4_)">
							<path fill="#FFC107" d="M69.775,452.595v6.7l-17.944,33.501c-1.001,1.848-2.927,3.004-5.083,3.081l-24.414-0.154
								l36.967-62.305l8.934,14.094C69.236,449.052,69.775,450.824,69.775,452.595z"/>
							<g>
								<g>
									
										<polyline fill="none" stroke="#E5A300" stroke-width="2.1021" stroke-linecap="round" stroke-linejoin="round" stroke-miterlimit="10" points="
										38.892,468.306 52.37,481.09 52.37,468.306 									"/>
									
										<polyline fill="none" stroke="#E5A300" stroke-width="2.1021" stroke-linecap="round" stroke-linejoin="round" stroke-miterlimit="10" points="
										43.513,468.306 52.37,481.09 47.672,468.306 									"/>
									
										<polyline fill="none" stroke="#E5A300" stroke-width="2.1021" stroke-linecap="round" stroke-linejoin="round" stroke-miterlimit="10" points="
										38.969,471.772 52.37,481.09 39.123,476.007 									"/>
									
										<line fill="none" stroke="#E5A300" stroke-width="2.1021" stroke-linecap="round" stroke-linejoin="round" stroke-miterlimit="10" x1="52.37" y1="481.09" x2="39.585" y2="481.09"/>
								</g>
								<g>
									
										<polyline fill="none" stroke="#A56B17" stroke-width="2.1021" stroke-linecap="round" stroke-linejoin="round" stroke-miterlimit="10" points="
										65.231,469.307 52.37,481.09 52.37,469.307 									"/>
									
										<polyline fill="none" stroke="#A56B17" stroke-width="2.1021" stroke-linecap="round" stroke-linejoin="round" stroke-miterlimit="10" points="
										61.381,468.537 52.37,481.09 57.145,468.306 									"/>
									
										<polyline fill="none" stroke="#A56B17" stroke-width="2.1021" stroke-linecap="round" stroke-linejoin="round" stroke-miterlimit="10" points="
										65.385,472.388 52.37,481.09 65.847,476.854 									"/>
									
										<line fill="none" stroke="#A56B17" stroke-width="2.1021" stroke-linecap="round" stroke-linejoin="round" stroke-miterlimit="10" x1="52.37" y1="481.09" x2="64.538" y2="481.09"/>
								</g>
								<g>
									
										<polyline fill="none" stroke="#A56B17" stroke-width="2.1021" stroke-linecap="round" stroke-linejoin="round" stroke-miterlimit="10" points="
										38.892,493.875 52.37,481.09 52.37,493.875 									"/>
									
										<polyline fill="none" stroke="#A56B17" stroke-width="2.1021" stroke-linecap="round" stroke-linejoin="round" stroke-miterlimit="10" points="
										43.59,493.798 52.37,481.09 47.672,493.875 									"/>
									
										<polyline fill="none" stroke="#A56B17" stroke-width="2.1021" stroke-linecap="round" stroke-linejoin="round" stroke-miterlimit="10" points="
										39.2,490.255 52.37,481.09 39.585,485.788 									"/>
									
										<line fill="none" stroke="#A56B17" stroke-width="2.1021" stroke-linecap="round" stroke-linejoin="round" stroke-miterlimit="10" x1="52.37" y1="481.09" x2="39.585" y2="481.09"/>
								</g>
								<g>
									
										<polyline fill="none" stroke="#E5A300" stroke-width="2.1021" stroke-linecap="round" stroke-linejoin="round" stroke-miterlimit="10" points="
										65.847,493.875 52.37,481.09 52.37,493.875 									"/>
									
										<polyline fill="none" stroke="#E5A300" stroke-width="2.1021" stroke-linecap="round" stroke-linejoin="round" stroke-miterlimit="10" points="
										61.227,493.875 52.37,481.09 57.145,493.875 									"/>
									
										<polyline fill="none" stroke="#E5A300" stroke-width="2.1021" stroke-linecap="round" stroke-linejoin="round" stroke-miterlimit="10" points="
										65.616,490.255 52.37,481.09 65.231,485.788 									"/>
									
										<line fill="none" stroke="#E5A300" stroke-width="2.1021" stroke-linecap="round" stroke-linejoin="round" stroke-miterlimit="10" x1="52.37" y1="481.09" x2="65.231" y2="481.09"/>
								</g>
								
									<rect x="38.892" y="468.306" fill="none" stroke="#E5A300" stroke-width="2.1021" stroke-linecap="round" stroke-linejoin="round" stroke-miterlimit="10" width="26.955" height="25.646"/>
							</g>
							<g>
								
									<line fill="none" stroke="#A56B17" stroke-width="2.1021" stroke-linecap="round" stroke-linejoin="round" stroke-miterlimit="10" x1="55.296" y1="467.998" x2="40.125" y2="452.749"/>
								
									<line fill="none" stroke="#A56B17" stroke-width="2.1021" stroke-linecap="round" stroke-linejoin="round" stroke-miterlimit="10" x1="65.539" y1="457.986" x2="49.982" y2="442.275"/>
								
									<line fill="none" stroke="#A56B17" stroke-width="2.1021" stroke-linecap="round" stroke-linejoin="round" stroke-miterlimit="10" x1="66.54" y1="451.902" x2="50.444" y2="467.767"/>
								
									<line fill="none" stroke="#A56B17" stroke-width="2.1021" stroke-linecap="round" stroke-linejoin="round" stroke-miterlimit="10" x1="55.45" y1="442.66" x2="39.354" y2="458.602"/>
								
									<line fill="none" stroke="#E5A300" stroke-width="2.1021" stroke-linecap="round" stroke-linejoin="round" stroke-miterlimit="10" x1="39.585" y1="442.429" x2="53.063" y2="455.213"/>
								
									<line fill="none" stroke="#E5A300" stroke-width="2.1021" stroke-linecap="round" stroke-linejoin="round" stroke-miterlimit="10" x1="66.54" y1="442.429" x2="53.063" y2="455.213"/>
								
									<path fill="none" stroke="#A56B17" stroke-width="1.4573" stroke-linecap="round" stroke-linejoin="round" stroke-miterlimit="10" d="
									M66.618,457.909l-8.01,7.624l-2.773,2.618c-0.693,0.693-1.694,1.078-2.618,1.078c-1.078,0.077-2.233-0.308-3.004-1.078
									l-7.239-6.931l-3.466-3.312c-0.847-0.77-1.232-1.848-1.155-2.85c0-0.924,0.462-1.848,1.155-2.541l6.469-6.161l4.236-4.082
									c0.77-0.77,1.771-1.078,2.85-1.078c1.001,0,2.079,0.385,2.85,1.078l10.705,10.166c0.77,0.77,1.155,1.694,1.155,2.696
									S67.388,457.139,66.618,457.909z"/>
								
									<rect x="39.585" y="442.429" fill="none" stroke="#E5A300" stroke-width="1.4573" stroke-linecap="round" stroke-linejoin="round" stroke-miterlimit="10" width="26.955" height="25.646"/>
								
									<path fill="none" stroke="#A56B17" stroke-width="1.4573" stroke-linecap="round" stroke-linejoin="round" stroke-miterlimit="10" d="
									M58.608,444.893l8.01,7.624c0.77,0.77,1.155,1.694,1.155,2.695"/>
								
									<path fill="none" stroke="#A56B17" stroke-width="1.4573" stroke-linecap="round" stroke-linejoin="round" stroke-miterlimit="10" d="
									M45.978,446.357l4.236-4.082c0.77-0.77,1.771-1.078,2.85-1.078"/>
								
									<path fill="none" stroke="#A56B17" stroke-width="1.4573" stroke-linecap="round" stroke-linejoin="round" stroke-miterlimit="10" d="
									M42.974,461.221l-3.466-3.312c-0.847-0.77-1.232-1.848-1.155-2.85"/>
								
									<path fill="none" stroke="#A56B17" stroke-width="1.4573" stroke-linecap="round" stroke-linejoin="round" stroke-miterlimit="10" d="
									M58.608,465.456l-2.773,2.618c-0.693,0.693-1.694,1.078-2.618,1.078"/>
								
									<line fill="none" stroke="#E5A300" stroke-width="2.1021" stroke-linecap="round" stroke-linejoin="round" stroke-miterlimit="10" x1="53.063" y1="455.213" x2="39.585" y2="467.998"/>
								
									<line fill="none" stroke="#E5A300" stroke-width="2.1021" stroke-linecap="round" stroke-linejoin="round" stroke-miterlimit="10" x1="53.063" y1="455.213" x2="66.54" y2="467.998"/>
							</g>
							<g>
								
									<line fill="none" stroke="#A56B17" stroke-width="2.1021" stroke-linecap="round" stroke-linejoin="round" stroke-miterlimit="10" x1="27.802" y1="494.106" x2="12.245" y2="478.472"/>
								
									<line fill="none" stroke="#A56B17" stroke-width="2.1021" stroke-linecap="round" stroke-linejoin="round" stroke-miterlimit="10" x1="37.737" y1="483.709" x2="22.103" y2="467.998"/>
								
									<line fill="none" stroke="#A56B17" stroke-width="2.1021" stroke-linecap="round" stroke-linejoin="round" stroke-miterlimit="10" x1="38.276" y1="478.01" x2="22.334" y2="493.798"/>
								
									<line fill="none" stroke="#A56B17" stroke-width="2.1021" stroke-linecap="round" stroke-linejoin="round" stroke-miterlimit="10" x1="27.648" y1="468.383" x2="11.552" y2="484.325"/>
								
									<line fill="none" stroke="#E5A300" stroke-width="2.1021" stroke-linecap="round" stroke-linejoin="round" stroke-miterlimit="10" x1="11.706" y1="468.152" x2="25.184" y2="480.936"/>
								
									<line fill="none" stroke="#E5A300" stroke-width="2.1021" stroke-linecap="round" stroke-linejoin="round" stroke-miterlimit="10" x1="38.661" y1="468.152" x2="25.184" y2="480.936"/>
								
									<path fill="none" stroke="#A56B17" stroke-width="1.4573" stroke-linecap="round" stroke-linejoin="round" stroke-miterlimit="10" d="
									M38.738,483.632l-8.009,7.624l-2.773,2.618c-0.693,0.693-1.694,1.078-2.618,1.078c-1.078,0.077-2.233-0.308-3.004-1.078
									l-7.239-6.931l-3.466-3.312c-0.847-0.77-1.232-1.848-1.155-2.85c0-0.924,0.462-1.848,1.155-2.541l6.469-6.161l4.236-4.082
									c0.77-0.77,1.771-1.078,2.85-1.078c1.001,0,2.079,0.385,2.85,1.078l10.705,10.166c0.77,0.77,1.155,1.694,1.155,2.695
									C39.894,481.937,39.508,482.862,38.738,483.632z"/>
								
									<rect x="11.706" y="468.152" fill="none" stroke="#E5A300" stroke-width="1.4573" stroke-linecap="round" stroke-linejoin="round" stroke-miterlimit="10" width="26.955" height="25.646"/>
								
									<path fill="none" stroke="#A56B17" stroke-width="1.4573" stroke-linecap="round" stroke-linejoin="round" stroke-miterlimit="10" d="
									M30.729,470.693l8.01,7.624c0.77,0.77,1.155,1.694,1.155,2.695"/>
								
									<path fill="none" stroke="#A56B17" stroke-width="1.4573" stroke-linecap="round" stroke-linejoin="round" stroke-miterlimit="10" d="
									M18.098,472.157l4.236-4.082c0.77-0.77,1.771-1.078,2.85-1.078"/>
								
									<path fill="none" stroke="#A56B17" stroke-width="1.4573" stroke-linecap="round" stroke-linejoin="round" stroke-miterlimit="10" d="
									M15.095,486.943l-3.466-3.312c-0.847-0.77-1.232-1.848-1.155-2.85"/>
								
									<path fill="none" stroke="#A56B17" stroke-width="1.4573" stroke-linecap="round" stroke-linejoin="round" stroke-miterlimit="10" d="
									M30.729,491.179l-2.773,2.618c-0.693,0.693-1.694,1.078-2.618,1.078"/>
								
									<line fill="none" stroke="#E5A300" stroke-width="2.1021" stroke-linecap="round" stroke-linejoin="round" stroke-miterlimit="10" x1="25.184" y1="480.936" x2="11.706" y2="493.721"/>
								
									<line fill="none" stroke="#E5A300" stroke-width="2.1021" stroke-linecap="round" stroke-linejoin="round" stroke-miterlimit="10" x1="25.184" y1="480.936" x2="38.661" y2="493.721"/>
							</g>
						</g>
					</g>
				</g>
			</g>
			<g>
				<g>
					<g>
						<defs>
							<polygon id="SVGID_5_" points="25.569,350.243 0,350.243 66.232,464.686 79.017,442.506 							"/>
						</defs>
						<clipPath id="SVGID_6_">
							<use xlink:href="#SVGID_5_"  overflow="visible"/>
						</clipPath>
						<g clip-path="url(#SVGID_6_)">
							<g>
								<path fill="#4285F4" d="M81.019,446.357l-3.543,6.007l-11.86,19.562l0.231-6.392c0.077-1.694-0.385-3.389-1.309-4.929
									l-8.318-13.863l-0.077-0.154l-12.322-20.486l-42.82-71.469c-2.31-3.928-4.082-9.627,0.77-9.627l21.641,0.693L81.019,446.357
									z"/>
							</g>
							<g>
								<path fill="#2167CE" d="M29.651,416.86l-5.545-2.387c2.541-5.776,8.78-8.01,13.786-8.164
									c2.464-0.077,4.775,0.231,7.085,0.462c2.156,0.231,4.159,0.462,6.084,0.462c3.158-0.077,7.008-1.309,8.472-4.544L65,405.154
									c-2.541,5.776-8.78,7.932-13.786,8.087c-2.387,0.077-4.775-0.231-7.008-0.462c-2.156-0.231-4.159-0.462-6.161-0.462
									C34.888,412.393,31.037,413.626,29.651,416.86z"/>
							</g>
							<g>
								<g>
									<path fill="#2167CE" d="M66.309,415.32c-9.55,3.235-23.566-7.932-29.034,5.083c-0.616,1.463,0.616,3.774,0,5.237
										c5.468-13.092,19.485-1.925,29.034-5.083C66.926,420.403,65.847,415.474,66.309,415.32L66.309,415.32z"/>
								</g>
							</g>
							<g>
								<g>
									<path fill="#2167CE" d="M40.741,432.263c2.387-7.393,8.934-7.162,15.172-5.006c6.7,2.31,14.017,4.236,19.87-1.078
										c0.847-0.77-0.847-4.236,0-5.006c-5.776,5.314-13.169,3.389-19.87,1.078c-6.238-2.156-12.784-2.387-15.172,5.006
										C40.202,428.797,41.203,430.8,40.741,432.263L40.741,432.263z"/>
								</g>
							</g>
							<g>
								<g>
									<path fill="#2167CE" d="M76.783,430.492c-3.389,0.77-6.931,1.54-10.397,1.463c-3.62-0.077-7.008-1.54-10.474-2.079
										c-7.008-1.155-14.248,0-19.1,5.545c-0.847,1.001,0.847,4.313,0,5.237c4.852-5.468,12.091-6.7,19.1-5.545
										c3.312,0.539,6.469,1.848,9.858,2.079c3.697,0.231,7.47-0.616,11.09-1.386C77.246,435.652,76.475,430.569,76.783,430.492
										L76.783,430.492z"/>
								</g>
							</g>
							<g>
								<g>
									<path fill="#2167CE" d="M48.211,449.668c5.083-4.775,11.475-4.621,18.021-4.159c6.084,0.385,11.167-1.617,14.325-7.085
										c0.77-1.309-0.77-3.928,0-5.237c-3.081,5.391-8.241,7.47-14.325,7.085c-6.546-0.462-12.938-0.616-18.021,4.159
										C47.287,445.202,49.058,448.821,48.211,449.668L48.211,449.668z"/>
								</g>
							</g>
							<g>
								<g>
									<path fill="#2167CE" d="M83.176,439.888c-6.623,11.706-21.179,11.013-32.808,9.473c0.154,0-0.231,5.237,0,5.237
										c11.552,1.463,26.108,2.156,32.808-9.473C83.869,443.815,82.405,441.197,83.176,439.888L83.176,439.888z"/>
								</g>
							</g>
							<g>
								<g>
									<path fill="#2167CE" d="M84.408,450.67c-8.164,10.705-22.488,8.164-33.732,5.16c0.385,0.077-0.462,5.16,0,5.237
										c11.244,3.004,25.646,5.622,33.732-5.16C85.255,454.751,83.561,451.748,84.408,450.67L84.408,450.67z"/>
								</g>
							</g>
							<g>
								<path fill="#2167CE" d="M26.801,408.466l-4.929-2.079c2.387-5.622,7.547-7.47,11.706-7.393
									c2.002,0.077,3.851,0.462,5.622,0.847c1.617,0.385,3.158,0.693,4.698,0.693c1.155,0,4.929-0.231,6.623-4.159l4.929,2.079
									c-2.31,5.622-7.547,7.547-11.629,7.47c-2.002-0.077-3.851-0.462-5.699-0.847c-1.617-0.385-3.158-0.693-4.621-0.693
									C32.346,404.23,28.495,404.461,26.801,408.466z"/>
							</g>
							<g>
								<g>
									<path fill="#2167CE" d="M20.332,398.454c9.165-4.236,24.26,5.391,28.264-8.241c0.462-1.617-0.462-3.62,0-5.237
										c-4.005,13.632-19.177,4.005-28.264,8.241C19.639,393.525,20.948,398.146,20.332,398.454L20.332,398.454z"/>
								</g>
							</g>
							<g>
								<g>
									<path fill="#2167CE" d="M45.516,379.2c-2.387,7.393-8.857,7.162-15.095,5.083c-6.7-2.233-14.094-4.159-19.87,1.155
										c-0.847,0.77,0.847,4.236,0,5.006c5.776-5.314,13.169-3.466,19.87-1.155c6.238,2.079,12.784,2.31,15.095-5.083
										C46.055,382.666,45.053,380.663,45.516,379.2L45.516,379.2z"/>
								</g>
							</g>
							<g>
								<g>
									<path fill="#2167CE" d="M9.473,381.125c3.389-0.77,6.931-1.54,10.397-1.463c3.62,0.077,7.008,1.463,10.474,2.079
										c7.008,1.155,14.248-0.077,19.1-5.622c0.847-1.001-0.847-4.313,0-5.237c-4.852,5.545-12.091,6.777-19.1,5.622
										c-3.312-0.539-6.469-1.848-9.858-2.002c-3.697-0.231-7.47,0.616-11.09,1.463C9.011,375.966,9.781,381.048,9.473,381.125
										L9.473,381.125z"/>
								</g>
							</g>
							<g>
								<g>
									<path fill="#2167CE" d="M37.968,361.872c-5.083,4.775-11.475,4.698-18.021,4.236c-6.084-0.385-11.167,1.694-14.248,7.162
										c-0.77,1.309,0.77,3.928,0,5.237c3.081-5.468,8.164-7.547,14.248-7.162c6.546,0.385,12.938,0.539,18.021-4.236
										C38.892,366.262,37.121,362.642,37.968,361.872L37.968,361.872z"/>
								</g>
							</g>
							<g>
								<g>
									<path fill="#2167CE" d="M3.081,371.73c6.623-11.706,21.179-11.09,32.731-9.627c-0.154,0,0.231-5.237,0-5.237
										c-11.552-1.463-26.108-2.079-32.731,9.627C2.31,367.802,3.774,370.42,3.081,371.73L3.081,371.73z"/>
								</g>
							</g>
							<g>
								<g>
									<path fill="#2167CE" d="M1.771,360.948c8.087-10.782,22.411-8.241,33.732-5.237c-0.385-0.077,0.462-5.16,0-5.237
										c-11.244-2.927-25.646-5.468-33.732,5.237C0.924,356.866,2.618,359.869,1.771,360.948L1.771,360.948z"/>
								</g>
							</g>
							<g>
								<path fill="#144570" d="M23.643,345.006c7.624,21.795-7.316,25.107-7.316,25.107l26.416,2.618
									C42.666,372.731,31.114,359.484,23.643,345.006z"/>
							</g>
							<g>
								<polygon fill="#144570" points="20.948,376.274 44.36,372.038 39.971,377.968 21.487,377.814 								"/>
							</g>
							<g>
								<path fill="#144570" d="M29.574,381.202c1.155,22.565-13.863,21.564-13.863,21.564l24.029,9.858
									C39.739,412.547,43.667,397.992,29.574,381.202z"/>
							</g>
							<g>
								<polygon fill="#144570" points="25.184,415.936 48.057,411.7 43.821,417.553 25.723,417.399 								"/>
							</g>
							<g>
								<path fill="#144570" d="M57.53,416.629c1.309,26.185-16.096,24.953-16.096,24.953l27.879,11.398
									C69.313,453.057,73.934,436.114,57.53,416.629z"/>
							</g>
							<g>
								<polygon fill="#144570" points="52.447,456.908 79.017,452.056 74.088,458.833 53.063,458.679 								"/>
							</g>
						</g>
					</g>
				</g>
			</g>
			<g>
				<g>
					<g>
						<defs>
							<path id="SVGID_7_" d="M87.257,428.181c2.387-4.159,2.387-9.242,0-13.401l-37.352-64.538H25.492l53.448,92.263
								L87.257,428.181z"/>
						</defs>
						<clipPath id="SVGID_8_">
							<use xlink:href="#SVGID_7_"  overflow="visible"/>
						</clipPath>
						<g clip-path="url(#SVGID_8_)">
							<g>
								<polygon fill="#DB4437" points="44.052,340.154 15.48,340.154 80.403,458.91 98.964,426.487 								"/>
								<g>
									<path fill="none" stroke="#A00000" stroke-width="4.7048" stroke-miterlimit="10" d="M98.81,441.967
										c-1.078-1.771-1.617-3.697-1.771-5.699c-0.154-1.925-0.693-3.851-1.771-5.699c-1.078-1.771-2.464-3.235-4.159-4.236
										c-1.694-1.001-3.081-2.464-4.159-4.236c-1.078-1.771-1.617-3.697-1.771-5.699c-0.154-1.925-0.693-3.851-1.771-5.699
										c-1.078-1.771-2.464-3.235-4.159-4.236c-1.694-1.001-3.081-2.464-4.159-4.236c-1.078-1.771-1.617-3.697-1.771-5.699
										c-0.154-1.925-0.693-3.851-1.771-5.699c-1.078-1.771-2.464-3.235-4.159-4.236l0,0c-1.617-1.001-3.081-2.464-4.159-4.236
										c-1.078-1.771-1.617-3.774-1.771-5.699s-0.693-3.928-1.771-5.699s-2.464-3.235-4.159-4.236
										c-1.617-1.001-3.081-2.464-4.159-4.236c-1.078-1.771-1.617-3.774-1.771-5.699s-0.693-3.928-1.771-5.699
										s-2.541-3.235-4.159-4.236c-1.617-1.001-3.081-2.464-4.159-4.236c-1.078-1.771-1.617-3.697-1.771-5.699"/>
									<path fill="none" stroke="#A00000" stroke-width="4.7048" stroke-miterlimit="10" d="M93.496,445.202
										c-1.078-1.771-1.617-3.697-1.771-5.699c-0.154-1.925-0.693-3.851-1.771-5.699c-1.078-1.771-2.464-3.235-4.159-4.236
										c-1.694-1.001-3.081-2.464-4.159-4.236c-1.078-1.771-1.617-3.697-1.771-5.699c-0.154-1.925-0.693-3.851-1.771-5.699
										c-1.078-1.771-2.464-3.235-4.159-4.236c-1.694-1.001-3.081-2.464-4.159-4.236c-1.078-1.771-1.617-3.697-1.771-5.699
										c-0.154-1.925-0.693-3.851-1.771-5.699c-1.078-1.771-2.464-3.235-4.159-4.236l0,0c-1.617-1.001-3.081-2.464-4.159-4.236
										s-1.617-3.774-1.771-5.699c-0.154-1.925-0.693-3.928-1.771-5.699s-2.464-3.235-4.159-4.236
										c-1.617-1.001-3.081-2.464-4.159-4.236s-1.617-3.774-1.771-5.699c-0.154-1.925-0.693-3.928-1.771-5.699
										s-2.541-3.235-4.159-4.236c-1.617-1.001-3.081-2.464-4.159-4.236s-1.848-4.698-1.925-6.623"/>
									<path fill="none" stroke="#A00000" stroke-width="4.7048" stroke-miterlimit="10" d="M88.105,448.359
										c-1.078-1.771-1.617-3.697-1.771-5.699c-0.154-1.925-0.693-3.851-1.771-5.699c-1.078-1.771-2.464-3.235-4.159-4.236
										c-1.694-1.001-3.081-2.464-4.159-4.236c-1.078-1.771-1.617-3.697-1.771-5.699c-0.154-1.925-0.693-3.851-1.771-5.699
										c-1.078-1.771-2.464-3.235-4.159-4.236c-1.694-1.001-3.081-2.464-4.159-4.236c-1.078-1.771-1.617-3.697-1.771-5.699
										c-0.154-1.925-0.693-3.851-1.771-5.699c-1.078-1.771-2.464-3.235-4.159-4.236l0,0c-1.617-1.001-3.081-2.464-4.159-4.236
										s-1.617-3.774-1.771-5.699c-0.154-1.925-0.693-3.928-1.771-5.699s-2.464-3.235-4.159-4.236
										c-1.617-1.001-3.081-2.464-4.159-4.236c-1.078-1.771-1.617-3.774-1.771-5.699s-0.693-3.928-1.771-5.699
										s-2.541-3.235-4.159-4.236c-1.617-1.001-3.081-2.464-4.159-4.236s-2.002-5.622-2.079-7.547"/>
									<path fill="none" stroke="#A00000" stroke-width="4.7048" stroke-miterlimit="10" d="M82.714,451.594
										c-1.078-1.771-1.617-3.697-1.771-5.699c-0.154-1.925-0.693-3.851-1.771-5.699c-1.078-1.771-2.464-3.235-4.159-4.236
										c-1.694-1.001-3.081-2.464-4.159-4.236c-1.078-1.771-1.617-3.697-1.771-5.699c-0.154-1.925-0.693-3.851-1.771-5.699
										c-1.078-1.771-2.464-3.235-4.159-4.236c-1.694-1.001-3.081-2.464-4.159-4.236c-1.078-1.771-1.617-3.697-1.771-5.699
										c-0.154-1.925-0.693-3.851-1.771-5.699c-1.078-1.771-2.464-3.235-4.159-4.236l0,0c-1.617-1.001-3.081-2.464-4.159-4.236
										c-1.078-1.771-1.617-3.774-1.771-5.699c-0.154-1.925-0.693-3.928-1.771-5.699s-2.464-3.235-4.159-4.236
										c-1.617-1.001-3.081-2.464-4.159-4.236s-1.617-3.774-1.771-5.699c-0.154-1.925-0.693-3.928-1.771-5.699
										s-2.541-3.235-4.159-4.236c-1.617-1.001-3.081-2.464-4.159-4.236s-2.156-6.546-2.233-8.472"/>
								</g>
								<line fill="none" x1="13.092" y1="341.232" x2="12.168" y2="339.846"/>
							</g>
							<g>
								<g>
									<polygon fill="#630000" points="51.754,392.524 51.754,388.365 58.685,376.736 65.693,388.365 65.693,414.396 
										68.081,418.246 68.081,414.319 75.089,402.69 82.02,414.319 82.02,442.044 82.02,447.897 51.754,397.992 									"/>
								</g>
								<g>
									<polyline fill="#630000" points="49.366,388.673 51.677,392.524 51.677,382.05 58.685,370.42 65.693,382.05 
										65.693,416.244 65.693,422.097 35.35,372.269 									"/>
								</g>
								<g>
									<polyline fill="#630000" points="35.35,367.802 35.35,363.874 42.358,352.245 49.366,363.874 49.366,391.599 
										49.366,397.453 									"/>
								</g>
								<g>
									<g>
										<g>
											<rect x="73.857" y="410.776" fill="#D9413D" width="1.925" height="13.324"/>
										</g>
										<g>
											<rect x="70.592" y="413.978" fill="#D9413D" width="8.472" height="1.925"/>
										</g>
									</g>
									<g>
										<g>
											<rect x="69.621" y="426.487" fill="#D9413D" width="2.773" height="2.773"/>
										</g>
										<g>
											<rect x="73.472" y="426.487" fill="#D9413D" width="2.773" height="2.773"/>
										</g>
										<g>
											<rect x="77.323" y="426.487" fill="#D9413D" width="2.773" height="2.773"/>
										</g>
										<g>
											<rect x="69.621" y="430.569" fill="#D9413D" width="2.773" height="2.773"/>
										</g>
										<g>
											<rect x="73.472" y="430.569" fill="#D9413D" width="2.773" height="2.773"/>
										</g>
										<g>
											<rect x="77.323" y="430.569" fill="#D9413D" width="2.773" height="2.773"/>
										</g>
										<g>
											<rect x="69.621" y="434.651" fill="#D9413D" width="2.773" height="2.773"/>
										</g>
										<g>
											<rect x="73.472" y="434.651" fill="#D9413D" width="2.773" height="2.773"/>
										</g>
										<g>
											<rect x="77.323" y="434.651" fill="#D9413D" width="2.773" height="2.773"/>
										</g>
										<g>
											<rect x="69.621" y="438.809" fill="#D9413D" width="2.773" height="2.773"/>
										</g>
										<g>
											<rect x="73.472" y="438.809" fill="#D9413D" width="2.773" height="2.773"/>
										</g>
										<g>
											<rect x="77.323" y="438.809" fill="#D9413D" width="2.773" height="2.773"/>
										</g>
									</g>
								</g>
								<g>
									<g>
										<rect x="57.299" y="377.044" fill="#D9413D" width="1.925" height="13.324"/>
									</g>
									<g>
										<rect x="54.048" y="380.298" fill="#D9413D" width="8.472" height="1.925"/>
									</g>
								</g>
								<g>
									<g>
										<rect x="41.434" y="360.563" fill="#D9413D" width="1.925" height="13.324"/>
									</g>
									<g>
										<rect x="38.22" y="363.828" fill="#D9413D" width="8.472" height="1.925"/>
									</g>
								</g>
								<g>
									<g>
										<rect x="53.063" y="392.755" fill="#D9413D" width="2.773" height="2.773"/>
									</g>
									<g>
										<rect x="56.914" y="392.755" fill="#D9413D" width="2.773" height="2.773"/>
									</g>
									<g>
										<rect x="60.764" y="392.755" fill="#D9413D" width="2.773" height="2.773"/>
									</g>
									<g>
										<rect x="53.063" y="396.836" fill="#D9413D" width="2.773" height="2.773"/>
									</g>
									<g>
										<rect x="56.914" y="396.836" fill="#D9413D" width="2.773" height="2.773"/>
									</g>
									<g>
										<rect x="60.764" y="396.836" fill="#D9413D" width="2.773" height="2.773"/>
									</g>
									<g>
										<rect x="53.063" y="400.995" fill="#D9413D" width="2.773" height="2.773"/>
									</g>
									<g>
										<rect x="56.914" y="400.995" fill="#D9413D" width="2.773" height="2.773"/>
									</g>
									<g>
										<rect x="60.764" y="400.995" fill="#D9413D" width="2.773" height="2.773"/>
									</g>
									<g>
										<rect x="53.063" y="405.077" fill="#D9413D" width="2.773" height="2.773"/>
									</g>
									<g>
										<rect x="56.914" y="405.077" fill="#D9413D" width="2.773" height="2.773"/>
									</g>
									<g>
										<rect x="60.764" y="405.077" fill="#D9413D" width="2.773" height="2.773"/>
									</g>
								</g>
								<g>
									<g>
										<rect x="37.198" y="376.274" fill="#D9413D" width="2.773" height="2.773"/>
									</g>
									<g>
										<rect x="41.049" y="376.274" fill="#D9413D" width="2.773" height="2.773"/>
									</g>
									<g>
										<rect x="44.899" y="376.274" fill="#D9413D" width="2.773" height="2.773"/>
									</g>
									<g>
										<rect x="37.198" y="380.432" fill="#D9413D" width="2.773" height="2.773"/>
									</g>
									<g>
										<rect x="41.049" y="380.432" fill="#D9413D" width="2.773" height="2.773"/>
									</g>
									<g>
										<rect x="44.899" y="380.432" fill="#D9413D" width="2.773" height="2.773"/>
									</g>
									<g>
										<rect x="37.198" y="384.514" fill="#D9413D" width="2.773" height="2.773"/>
									</g>
									<g>
										<rect x="41.049" y="384.514" fill="#D9413D" width="2.773" height="2.773"/>
									</g>
									<g>
										<rect x="44.899" y="384.514" fill="#D9413D" width="2.773" height="2.773"/>
									</g>
									<g>
										<rect x="37.198" y="388.596" fill="#D9413D" width="2.773" height="2.773"/>
									</g>
									<g>
										<rect x="41.049" y="388.596" fill="#D9413D" width="2.773" height="2.773"/>
									</g>
									<g>
										<rect x="44.899" y="388.596" fill="#D9413D" width="2.773" height="2.773"/>
									</g>
								</g>
							</g>
						</g>
					</g>
				</g>
			</g>
		</g>
		<path id="XMLID_21_" fill="none" d="M87.334,414.781l-37.352-64.538H0l41.203,71.238L0,492.719h49.982l37.352-64.538
			C89.722,424.023,89.722,418.94,87.334,414.781z"/>
		<path id="XMLID_20_" fill="none" d="M87.334,414.781l-37.352-64.538H0l41.203,71.238L0,492.719h49.982l37.352-64.538
			C89.722,424.023,89.722,418.94,87.334,414.781z"/>
		<path id="XMLID_19_" fill="none" d="M87.334,414.781l-37.352-64.538H0l41.203,71.238L0,492.719h49.982l37.352-64.538
			C89.722,424.023,89.722,418.94,87.334,414.781z"/>
		<path id="XMLID_18_" opacity="0.2" fill="#BF360C" enable-background="new    " d="M49.982,491.641h-23.72l-0.616,1.155H50.06
			l16.25-28.11l-0.385-0.539L49.982,491.641z"/>
		<path id="XMLID_17_" fill="none" d="M87.334,414.781l-37.352-64.538H0l41.203,71.238L0,492.719h49.982l37.352-64.538
			C89.722,424.023,89.722,418.94,87.334,414.781z"/>
		<path id="XMLID_16_" opacity="0.2" fill="#263238" enable-background="new    " d="M0.693,491.641l-0.616,1.155h25.569
			l0.616-1.155H0.693z"/>
		<path id="XMLID_15_" fill="none" d="M87.334,414.781l-37.352-64.538H0l41.203,71.238L0,492.719h49.982l37.352-64.538
			C89.722,424.023,89.722,418.94,87.334,414.781z"/>
		<path id="XMLID_14_" opacity="0.2" fill="#FFFFFF" enable-background="new    " d="M0,492.796h0.616l40.895-70.699l-0.385-0.539
			L0,492.796z"/>
		<path id="XMLID_13_" fill="none" d="M87.334,414.781l-37.352-64.538H0l41.203,71.238L0,492.719h49.982l37.352-64.538
			C89.722,424.023,89.722,418.94,87.334,414.781z"/>
		
			<radialGradient id="SVGID_9_" cx="-199.9907" cy="-190.9321" r="29.415" gradientTransform="matrix(0.6394 0 0 0.6394 178.588 565.1655)" gradientUnits="userSpaceOnUse">
			<stop  offset="0" style="stop-color:#263238"/>
			<stop  offset="1" style="stop-color:#263238"/>
		</radialGradient>
		<polygon opacity="0.25" fill="url(#SVGID_9_)" enable-background="new    " points="66.232,464.686 51.061,448.821 
			35.196,432.032 41.203,421.481 54.064,443.661 		"/>
		<path id="XMLID_12_" fill="none" d="M87.334,414.781l-37.352-64.538H0l41.203,71.238L0,492.719h49.982l37.352-64.538
			C89.722,424.023,89.722,418.94,87.334,414.781z"/>
		<path id="XMLID_11_" fill="none" d="M87.334,414.781l-37.352-64.538H0l41.203,71.238L0,492.719h49.982l37.352-64.538
			C89.722,424.023,89.722,418.94,87.334,414.781z"/>
		<path id="XMLID_10_" fill="none" d="M87.334,414.781l-37.352-64.538H0l41.203,71.238L0,492.719h49.982l37.352-64.538
			C89.722,424.023,89.722,418.94,87.334,414.781z"/>
		<path id="XMLID_9_" fill="none" d="M87.334,414.781l-37.352-64.538H0l41.203,71.238L0,492.719h49.982l37.352-64.538
			C89.722,424.023,89.722,418.94,87.334,414.781z"/>
		<path id="XMLID_8_" opacity="0.2" fill="#1A237E" enable-background="new    " d="M79.017,442.506l-0.308-0.539l-12.476,21.564
			L0.693,350.243H0.077l66.232,114.444L79.017,442.506z"/>
		<path id="XMLID_6_" fill="none" d="M87.334,414.781l-37.352-64.538H0l41.203,71.238L0,492.719h49.982l37.352-64.538
			C89.722,424.023,89.722,418.94,87.334,414.781z"/>
		<path id="XMLID_5_" opacity="0.2" fill="#FFFFFF" enable-background="new    " d="M49.982,351.398l37.352,64.538
			c1.078,1.925,1.617,4.005,1.771,6.161c0.077-2.464-0.462-5.006-1.771-7.239L49.982,350.32H0l0.616,1.155h49.366
			C49.982,351.475,49.982,351.398,49.982,351.398z"/>
		<path id="XMLID_4_" fill="none" d="M87.334,414.781l-37.352-64.538H0l41.203,71.238L0,492.719h49.982l37.352-64.538
			C89.722,424.023,89.722,418.94,87.334,414.781z"/>
		<path id="XMLID_3_" opacity="0.2" fill="#3E2723" enable-background="new    " d="M79.017,442.506l8.241-14.325
			c1.309-2.233,1.848-4.775,1.771-7.239c-0.077,2.156-0.616,4.236-1.771,6.161l-8.626,14.864L79.017,442.506z"/>
		<path id="XMLID_2_" fill="none" d="M87.334,414.781l-37.352-64.538H0l41.203,71.238L0,492.719h49.982l37.352-64.538
			C89.722,424.023,89.722,418.94,87.334,414.781z"/>
		
			<radialGradient id="XMLID_33_" cx="-280.9866" cy="-2011.3386" r="234.0014" gradientTransform="matrix(0.6394 0 0 0.6394 178.588 1637.3792)" gradientUnits="userSpaceOnUse">
			<stop  offset="0" style="stop-color:#FFFFFF;stop-opacity:0.1"/>
			<stop  offset="1" style="stop-color:#FFFFFF;stop-opacity:0"/>
		</radialGradient>
		<path id="XMLID_1_" fill="url(#XMLID_33_)" d="M87.334,414.781l-37.352-64.538H0l41.203,71.238L0,492.719h49.982l37.352-64.538
			C89.722,424.023,89.722,418.94,87.334,414.781z"/>
	</g>
</g>
</svg>
