<?xml version="1.0" encoding="UTF-8" standalone="no"?>
<svg width="141px" height="34px" viewBox="0 0 141 34" version="1.1" xmlns="http://www.w3.org/2000/svg" xmlns:xlink="http://www.w3.org/1999/xlink">
    <!-- Generator: Sketch 39.1 (31720) - http://www.bohemiancoding.com/sketch -->
    <title>Slice 1</title>
    <desc>Created with Sketch.</desc>
    <defs>
        <polygon id="path-1" points="9.60732061 0.110809489 12.5642328 5.20988514 6.03084092 16.505786 0.152880311 16.505786"></polygon>
        <polygon id="path-3" points="9.29581262 4.86182377 6.56925547 0.152190626 0.035863652 11.4480915 5.64852519 11.4480915 9.38432225 4.98573732"></polygon>
        <polygon id="path-5" points="6.01313898 0.0558645347 0.135178381 0.0558645347 15.3615976 26.3659914 18.3005779 21.2669157"></polygon>
        <path d="M14.2178689,17.9736669 C14.7666288,17.0175328 14.7666288,15.8489754 14.2178689,14.8928413 L5.63082325,0.0558645347 L0.0181617212,0.0558645347 L12.3056006,21.2666858 L14.2178689,17.9736669 L14.2178689,17.9736669 L14.2178689,17.9736669 Z" id="path-7"></path>
        <radialGradient cx="50.000192%" cy="49.9999906%" fx="50.000192%" fy="49.9999906%" r="94.774946%" id="radialGradient-9">
            <stop stop-color="#263238" offset="0%"></stop>
            <stop stop-color="#263238" offset="100%"></stop>
        </radialGradient>
        <radialGradient cx="-1.20642685%" cy="0.762857317%" fx="-1.20642685%" fy="0.762857317%" r="262.556375%" id="radialGradient-10">
            <stop stop-color="#FFFFFF" stop-opacity="0.1" offset="0%"></stop>
            <stop stop-color="#FFFFFF" stop-opacity="0" offset="100%"></stop>
        </radialGradient>
    </defs>
    <g id="Page-1" stroke="none" stroke-width="1" fill="none" fill-rule="evenodd">
        <g id="logo-white">
            <g id="Page-1">
                <g id="logo-white">
                    <g id="Group">
                        <g id="XMLID_22_" transform="translate(31.955434, 1.149476)" fill="#FFFFFF">
                            <path d="M13.1173606,7.35572695 C13.1173606,9.13373651 12.5954985,10.5689722 11.5352218,11.6129264 C10.328272,12.8688439 8.76222584,13.5049639 6.83754319,13.5049639 C4.99447335,13.5049639 3.42842719,12.8688439 2.13986457,11.5802812 C0.851301945,10.3080412 0.198859352,8.70957985 0.198859352,6.83363494 C0.198859352,4.95769008 0.851301945,3.35922873 2.13986457,2.08698867 C3.42842719,0.814748608 4.99424342,0.162306015 6.83754319,0.162306015 C7.75091684,0.162306015 8.63187524,0.341624275 9.46363613,0.700490689 C10.295397,1.0593571 10.9641621,1.53225154 11.453609,2.13595635 L10.3280421,3.26152327 C9.47995867,2.25021427 8.32174664,1.74467471 6.83731331,1.74467471 C5.499783,1.74467471 4.32547828,2.21779904 3.3465845,3.16381781 C2.36792061,4.10983658 1.87847372,5.33333888 1.87847372,6.85018742 C1.87847372,8.367036 2.36792061,9.59053825 3.3465845,10.536557 C4.32524838,11.4825758 5.48346041,11.9557002 6.83731331,11.9557002 C8.27277897,11.9557002 9.44708366,11.4825758 10.409425,10.5202345 C11.0292225,9.90043701 11.3880889,9.03580116 11.4860242,7.92678669 L6.83731331,7.92678669 L6.83731331,6.39361556 L13.0355179,6.39361556 C13.0847155,6.73592952 13.1173606,7.04582824 13.1173606,7.35572695 L13.1173606,7.35572695 L13.1173606,7.35572695 Z" id="XMLID_32_"></path>
                            <path d="M14.7321445,13.2277103 L14.7321445,0.455882192 L18.6468001,0.455882192 C20.6041278,0.455882192 22.1862666,1.04303454 23.3608012,2.23389171 C24.5351059,3.42451897 25.1224882,4.95791997 25.1224882,6.84995753 C25.1224882,8.74199505 24.5353359,10.2753961 23.3608012,11.4660233 C22.1864966,12.6566506 20.6204504,13.2440329 18.6468001,13.2440329 L14.7321445,13.2440329 L14.7321445,13.2277103 L14.7321445,13.2277103 L14.7321445,13.2277103 Z M16.3795736,11.6618941 L18.6468001,11.6618941 C20.1149108,11.6618941 21.2892156,11.2377374 22.1536215,10.389654 C23.0180275,9.54157058 23.4421841,8.367036 23.4421841,6.83386487 C23.4421841,5.31701629 23.0180275,4.1424817 22.1536215,3.29439829 C21.2892156,2.44631487 20.1146809,2.02215822 18.6468001,2.02215822 L16.3795736,2.02215822 C16.3795736,2.02192833 16.3795736,11.6618941 16.3795736,11.6618941 L16.3795736,11.6618941 L16.3795736,11.6618941 Z" id="XMLID_31_"></path>
                            <path d="M39.0522985,7.35572695 C39.0522985,9.13373651 38.5304363,10.5689722 37.4701597,11.6129264 C36.2632098,12.8688439 34.6971637,13.5049639 32.772481,13.5049639 C30.9294112,13.5049639 29.363365,12.8688439 28.0748024,11.5802812 C26.7862398,10.3080412 26.1337972,8.70957985 26.1337972,6.83363494 C26.1337972,4.95769008 26.7862398,3.35922873 28.0748024,2.08698867 C29.363365,0.814748608 30.9291813,0.162306015 32.772481,0.162306015 C33.6858547,0.162306015 34.5668131,0.341624275 35.398574,0.700490689 C36.2303348,1.0593571 36.8991,1.53225154 37.3885469,2.13595635 L36.26298,3.26152327 C35.4148965,2.25021427 34.2566845,1.74467471 32.7722512,1.74467471 C31.4347208,1.74467471 30.2604162,2.21779904 29.2815224,3.16381781 C28.3028585,4.10983658 27.8134116,5.33333888 27.8134116,6.85018742 C27.8134116,8.367036 28.3028585,9.59053825 29.2815224,10.536557 C30.2601862,11.4825758 31.4183983,11.9557002 32.7722512,11.9557002 C34.2077168,11.9557002 35.3820215,11.4825758 36.3443628,10.5202345 C36.9641603,9.90043701 37.3230267,9.03580116 37.4209621,7.92678669 L32.7722512,7.92678669 L32.7722512,6.39361556 L38.9704558,6.39361556 C39.0196533,6.73592952 39.0522985,7.04582824 39.0522985,7.35572695 L39.0522985,7.35572695 L39.0522985,7.35572695 Z" id="XMLID_30_"></path>
                            <path d="M44.9732495,13.2277103 L44.9732495,0.455882192 L48.887905,0.455882192 C50.845233,0.455882192 52.4273718,1.04303454 53.6019064,2.23389171 C54.7762107,3.42451897 55.3635932,4.95791997 55.3635932,6.84995753 C55.3635932,8.74199505 54.776441,10.2753961 53.6019064,11.4660233 C52.4273718,12.6566506 50.8615551,13.2440329 48.887905,13.2440329 L44.9732495,13.2440329 L44.9732495,13.2277103 L44.9732495,13.2277103 L44.9732495,13.2277103 Z M46.6209084,11.6618941 L48.8881348,11.6618941 C50.3562457,11.6618941 51.5305505,11.2377374 52.3949564,10.389654 C53.2593623,9.54157058 53.6835189,8.367036 53.6835189,6.83386487 C53.6835189,5.31701629 53.2593623,4.1424817 52.3949564,3.29439829 C51.5305505,2.44631487 50.3560159,2.02215822 48.8881348,2.02215822 L46.6209084,2.02215822 C46.6209084,2.02192833 46.6209084,11.6618941 46.6209084,11.6618941 L46.6209084,11.6618941 L46.6209084,11.6618941 Z" id="XMLID_29_"></path>
                            <path d="M60.7300371,13.5215164 C59.408829,13.5215164 58.3322299,13.0810372 57.5167918,12.2003087 C56.6850306,11.3195801 56.2771966,10.2103357 56.2771966,8.85648288 C56.2771966,7.58424279 56.6850306,6.49132102 57.4841466,5.57794737 C58.2832621,4.66457372 59.3111237,4.20777194 60.567041,4.20777194 C61.8556039,4.20777194 62.8995578,4.63192859 63.6825811,5.48001202 C64.4656043,6.32809541 64.8568858,7.45366235 64.8568858,8.87280542 L64.8405633,9.18270418 L57.9409484,9.18270418 C57.9899161,10.0634327 58.283492,10.764843 58.8216768,11.2706124 C59.3598617,11.776152 59.9959816,12.0373129 60.7137145,12.0373129 C61.8880193,12.0373129 62.6873646,11.5317734 63.1115212,10.536557 L64.5796321,11.1400319 C64.2860558,11.8251197 63.8292541,12.3796269 63.1768116,12.8364287 C62.4917239,13.2930005 61.692378,13.5215164 60.7300371,13.5215164 L60.7300371,13.5215164 L60.7300371,13.5215164 L60.7300371,13.5215164 Z M63.0951986,7.81252874 C63.0625539,7.30698921 62.8342679,6.83386487 62.4101109,6.37706308 C61.9859543,5.92026134 61.366157,5.69197539 60.5343963,5.69197539 C59.9309211,5.69197539 59.408829,5.88761621 58.9522571,6.26280519 C58.5117779,6.63799417 58.2018795,7.15985625 58.0388834,7.79597627 L63.0954289,7.79597627 L63.0954289,7.81252874 L63.0951986,7.81252874 L63.0951986,7.81252874 L63.0951986,7.81252874 Z" id="XMLID_28_"></path>
                            <polygon id="XMLID_27_" points="68.2823243 13.2277103 64.7428576 4.48479566 66.53719 4.48479566 69.1143149 11.2703825 69.1469601 11.2703825 71.7567306 4.48479566 73.5020948 4.48479566 69.9299833 13.2277103"></polygon>
                            <polygon id="XMLID_26_" points="76.0953129 13.2277103 74.4478838 13.2277103 74.4478838 0.455882192 81.902236 0.455882192 81.902236 2.02169843 76.0789903 2.02169843 76.0789903 6.21360758 81.3311761 6.21360758 81.3311761 7.74677871 76.0789903 7.74677871 76.0789903 13.2274804"></polygon>
                            <path d="M86.877168,13.5215164 C85.5559604,13.5215164 84.4793609,13.0810372 83.6639227,12.2003087 C82.832162,11.3195801 82.4243276,10.2103357 82.4243276,8.85648288 C82.4243276,7.58424279 82.832162,6.49132102 83.6312776,5.57794737 C84.4303935,4.66457372 85.4582547,4.20777194 86.7141724,4.20777194 C88.0027349,4.20777194 89.0466892,4.63192859 89.829712,5.48001202 C90.6127353,6.32809541 91.0042466,7.45366235 91.0042466,8.87280542 L90.9879241,9.18270418 L84.0883091,9.18270418 C84.1372769,10.0634327 84.4308532,10.764843 84.9690376,11.2706124 C85.5072225,11.776152 86.1435722,12.0373129 86.8610753,12.0373129 C88.0356099,12.0373129 88.8347259,11.5317734 89.2588824,10.536557 L90.7269929,11.1400319 C90.4334171,11.8251197 89.9766153,12.3796269 89.3241728,12.8364287 C88.6225322,13.2930005 87.8231869,13.5215164 86.877168,13.5215164 L86.877168,13.5215164 L86.877168,13.5215164 L86.877168,13.5215164 Z M89.2260074,7.81252874 C89.1933623,7.30698921 88.9650763,6.83386487 88.5409197,6.37706308 C88.1167632,5.92026134 87.4969654,5.69197539 86.6652047,5.69197539 C86.0617299,5.69197539 85.5396378,5.88761621 85.0830659,6.26280519 C84.6425867,6.63799417 84.3326879,7.15985625 84.1696923,7.79597627 L89.2262373,7.79597627 L89.2262373,7.81252874 L89.2260074,7.81252874 L89.2260074,7.81252874 L89.2260074,7.81252874 Z" id="XMLID_25_"></path>
                            <path d="M95.3265064,13.5215164 C94.3478428,13.5215164 93.548497,13.2769079 92.9123771,12.8037835 C92.2762571,12.3306592 91.8031328,11.7271843 91.5095565,11.025774 L92.9776674,10.4222991 C93.4344692,11.5152209 94.2335847,12.0697282 95.3428289,12.0697282 C95.8483686,12.0697282 96.2725252,11.9554702 96.5987467,11.7271843 C96.9249677,11.4988984 97.0879638,11.2053222 97.0879638,10.8301332 C97.0879638,10.2593034 96.6964519,9.86779188 95.8973364,9.67192118 L94.1356491,9.24776452 C93.5811422,9.10086149 93.0427275,8.83993041 92.5535104,8.43209634 C92.0479712,8.04058481 91.8031328,7.5024001 91.8031328,6.8173124 C91.8031328,6.05061189 92.1456764,5.41449187 92.8307641,4.94159742 C93.5158518,4.45215054 94.3315202,4.2238646 95.2612165,4.2238646 C96.0279166,4.2238646 96.7293269,4.40318286 97.3328021,4.74572672 C97.9362769,5.10459311 98.376756,5.5938101 98.6376872,6.2464826 L97.2022214,6.83363494 C96.8760004,6.06693444 96.2072348,5.67542291 95.2122487,5.67542291 C94.7228018,5.67542291 94.3151976,5.77335827 93.9889761,5.98532168 C93.6627551,6.1809625 93.4834365,6.45844601 93.4834365,6.80098986 C93.4834365,7.30652939 93.8749483,7.6327507 94.6416485,7.81229886 L96.3706906,8.22013293 C97.1863585,8.41577375 97.8061563,8.74199505 98.1976677,9.19879684 C98.5891791,9.65559859 98.7848199,10.1937833 98.7848199,10.7646131 C98.7848199,11.5476362 98.4585988,12.2000787 97.8224789,12.7219408 C97.1695762,13.2603554 96.3378155,13.5215164 95.3265064,13.5215164 L95.3265064,13.5215164 L95.3265064,13.5215164 L95.3265064,13.5215164 Z" id="XMLID_24_"></path>
                            <path d="M103.710325,13.3746133 C102.796951,13.3746133 102.095541,13.1300048 101.606094,12.640558 C101.116647,12.151111 100.888361,11.4662532 100.888361,10.5689722 L100.888361,5.98555156 L99.3551902,5.98555156 L99.3551902,4.48502555 L100.888361,4.48502555 L100.888361,1.80996495 L102.53579,1.80996495 L102.53579,4.48502555 L104.672666,4.48502555 L104.672666,5.98578144 L102.53579,5.98578144 L102.53579,10.4388516 C102.53579,11.3848704 102.927302,11.8743172 103.710325,11.8743172 C104.003901,11.8743172 104.264832,11.8253496 104.460703,11.7274142 L105.031533,13.1302347 C104.672896,13.2930005 104.232417,13.3746133 103.710325,13.3746133 L103.710325,13.3746133 L103.710325,13.3746133 L103.710325,13.3746133 Z" id="XMLID_23_"></path>
                        </g>
                        <g id="Shape" transform="translate(33.104909, 18.621512)" fill="#FFFFFF">
                            <polygon points="0.08965913 12.4642283 0.08965913 0.192192391 2.00928409 0.192192391 7.9739152 9.73882067 8.04242397 9.73882067 7.9739152 7.37365882 7.9739152 0.192192391 9.55076642 0.192192391 9.55076642 12.4642283 7.90540643 12.4642283 1.66674023 2.454821 1.59823147 2.454821 1.66674023 4.81998285 1.66674023 12.4642283"></polygon>
                            <path d="M12.4814705,5.06849959 C13.2925408,4.21742753 14.3266094,3.79143172 15.5836764,3.79143172 C16.8405135,3.79143172 17.8745821,4.21742753 18.6858823,5.06849959 C19.4971824,5.91980153 19.9027176,6.9853658 19.9027176,8.26496252 C19.9027176,9.54478913 19.4969526,10.6103534 18.6858823,11.4614255 C17.8745821,12.3127274 16.8405135,12.7382634 15.5836764,12.7382634 C14.3266094,12.7382634 13.2925408,12.3127274 12.4814705,11.4614255 C11.6699404,10.6103534 11.2646352,9.54478913 11.2646352,8.26496252 C11.2646352,6.9853658 11.6701703,5.91980153 12.4814705,5.06849959 L12.4814705,5.06849959 L12.4814705,5.06849959 Z M13.6555453,10.4673586 C14.198098,11.0216359 14.840885,11.2986596 15.5836764,11.2986596 C16.3262379,11.2986596 16.9690249,11.0216359 17.5118075,10.4673586 C18.0543601,9.91331112 18.3260963,9.17902587 18.3260963,8.26496252 C18.3260963,7.35089917 18.05459,6.6168438 17.5118075,6.06256647 C16.9690249,5.50851902 16.3262379,5.2312654 15.5836764,5.2312654 C14.840885,5.2312654 14.198098,5.50851902 13.6555453,6.06256647 C13.1127627,6.6168438 12.8412565,7.35089917 12.8412565,8.26496252 C12.8414863,9.17925575 13.1127627,9.91331112 13.6555453,10.4673586 L13.6555453,10.4673586 L13.6555453,10.4673586 Z"></path>
                            <path d="M22.7483604,12.4642283 L21.1715092,12.4642283 L21.1715092,4.0659266 L22.6798516,4.0659266 L22.6798516,5.43702159 L22.7483604,5.43702159 C22.9081376,4.98021984 23.2368877,4.6031917 23.7339211,4.30593719 C24.2309546,4.00891258 24.7135046,3.86040028 25.182261,3.86040028 C25.6507874,3.86040028 26.0448278,3.92890905 26.3648419,4.06615649 L25.7650453,5.54001465 C25.5592891,5.460241 25.2792767,5.42023923 24.9252381,5.42023923 C24.3537186,5.42023923 23.8479492,5.64599633 23.4083895,6.09728065 C22.9683701,6.5487948 22.7485903,7.14008527 22.7485903,7.87115203 L22.7485903,12.4642283 L22.7483604,12.4642283 L22.7483604,12.4642283 L22.7483604,12.4642283 Z"></path>
                            <path d="M30.392376,12.7382634 C29.3065809,12.7382634 28.3699879,12.3099686 27.5814473,11.4529193 C26.7929068,10.59587 26.3986365,9.53306448 26.3986365,8.26496252 C26.3986365,6.99686056 26.7929068,5.93382514 27.5814473,5.07700569 C28.369758,4.21995638 29.3065809,3.79143172 30.392376,3.79143172 C31.0321743,3.79143172 31.6064526,3.92867916 32.1149808,4.20294414 C32.623279,4.47697922 33.0032958,4.81998285 33.2548012,5.2312654 L33.3233099,5.2312654 L33.2548012,4.0659266 L33.2548012,0.192192391 L34.8316524,0.192192391 L34.8316524,12.4642283 L33.3233099,12.4642283 L33.3233099,11.2988895 L33.2548012,11.2988895 C33.0032958,11.710172 32.623279,12.0529458 32.1149808,12.3272108 C31.6064526,12.6014758 31.0321743,12.7382634 30.392376,12.7382634 L30.392376,12.7382634 L30.392376,12.7382634 Z M30.6493988,11.2988895 C31.3919603,11.2988895 32.0232526,11.0246246 32.5432755,10.4760946 C33.0630686,9.92756463 33.32308,9.19052059 33.32308,8.2651924 C33.32308,7.33963429 33.0630686,6.60282018 32.5432755,6.05429021 C32.0232526,5.50576024 31.3919603,5.23149528 30.6493988,5.23149528 C29.9181022,5.23149528 29.2895687,5.50874891 28.7640282,6.06279635 C28.2382579,6.61707368 27.9754877,7.35112906 27.9754877,8.2651924 C27.9754877,9.17948563 28.2382579,9.91354101 28.7640282,10.4675885 C29.2895687,11.0218658 29.9181022,11.2988895 30.6493988,11.2988895 L30.6493988,11.2988895 L30.6493988,11.2988895 Z"></path>
                            <path d="M40.4700622,12.7382634 C39.2019602,12.7382634 38.1706504,12.315716 37.3763624,11.4699315 C36.5820745,10.624377 36.1855053,9.55628389 36.1855053,8.26496252 C36.1855053,7.04260969 36.5708096,5.99129892 37.342108,5.1112601 C38.1134064,4.23145114 39.0991971,3.79143172 40.2987902,3.79143172 C41.5439027,3.79143172 42.5411881,4.19742665 43.2897269,5.00849692 C44.0378059,5.81979713 44.4123051,6.90536226 44.4123051,8.26496252 L44.3952929,8.55646965 L37.7618967,8.55646965 C37.8076458,9.40225411 38.0906468,10.0705595 38.6104399,10.5618455 C39.130003,11.0533615 39.7387656,11.2988895 40.4355779,11.2988895 C41.5666623,11.2988895 42.3322134,10.8188683 42.732231,9.85905586 L44.1375804,10.4418402 C43.8633154,11.0931333 43.4120311,11.6389045 42.7837275,12.0784642 C42.1556538,12.5182537 41.3843554,12.7382634 40.4700622,12.7382634 L40.4700622,12.7382634 L40.4700622,12.7382634 Z M42.7326908,7.2538834 C42.6986663,6.7738622 42.4781968,6.31706046 42.0726617,5.8825585 C41.6671265,5.44851635 41.0641114,5.2312654 40.2645359,5.2312654 C39.6822113,5.2312654 39.176212,5.41426199 38.7476873,5.77979537 C38.3193926,6.14578851 38.0246669,6.63684466 37.8648897,7.2538834 L42.7326908,7.2538834 L42.7326908,7.2538834 L42.7326908,7.2538834 L42.7326908,7.2538834 Z"></path>
                            <path d="M49.057108,12.7382634 C48.1200551,12.7382634 47.345768,12.5097476 46.7344765,12.0529458 C46.1231855,11.596144 45.6746597,11.0243946 45.3889,10.3388472 L46.7942494,9.75629272 C47.2397864,10.8076035 47.99959,11.332914 49.0738903,11.332914 C49.5651764,11.332914 49.9679525,11.2244035 50.2822193,11.0073824 C50.5962562,10.7905913 50.7537343,10.5046016 50.7537343,10.1503331 C50.7537343,9.60180313 50.3707292,9.23052235 49.605408,9.03603104 L47.9085515,8.62474849 C47.3712864,8.48750107 46.8629882,8.22771949 46.3829669,7.84494399 C45.9031755,7.46216845 45.6631651,6.94513415 45.6631651,6.29384105 C45.6631651,5.55127953 45.9914551,4.94826441 46.6484957,4.48548534 C47.3055364,4.0227063 48.085341,3.79120183 48.9881393,3.79120183 C49.7307006,3.79120183 50.3934886,3.9599449 50.9762729,4.29697127 C51.5590573,4.63399763 51.9760875,5.11677757 52.2273627,5.74531107 L50.8562679,6.31085328 C50.5475187,5.56829177 49.90772,5.1967811 48.9364131,5.1967811 C48.4678864,5.1967811 48.0736161,5.29402676 47.7538318,5.48805835 C47.433588,5.68254966 47.2738106,5.94531991 47.2738106,6.27659888 C47.2738106,6.75662008 47.6448618,7.08215169 48.3878828,7.25365352 L50.0504848,7.64792378 C50.8387957,7.83069049 51.42158,8.14495722 51.798608,8.59049413 C52.1756364,9.03603104 52.3641504,9.53927165 52.3641504,10.0990665 C52.3641504,10.8531227 52.055631,11.4816562 51.4385921,11.9842072 C50.8222433,12.486988 50.0279553,12.7382634 49.057108,12.7382634 L49.057108,12.7382634 L49.057108,12.7382634 Z"></path>
                            <path d="M57.2839077,12.6014758 C56.4038687,12.6014758 55.7328048,12.3672125 55.2700259,11.8986861 C54.8070167,11.4301597 54.5757424,10.7673718 54.5757424,9.91055239 L54.5757424,5.50576024 L53.1016543,5.50576024 L53.1016543,4.0659266 L54.5757424,4.0659266 L54.5757424,1.49477862 L56.1523637,1.49477862 L56.1523637,4.0659266 L58.2090063,4.0659266 L58.2090063,5.50576024 L56.1523637,5.50576024 L56.1523637,9.79054709 C56.1523637,10.7050702 56.5296215,11.161872 57.2836779,11.161872 C57.5692076,11.161872 57.8089886,11.1163527 58.0034797,11.0246246 L58.5520096,12.3787073 C58.2092361,12.5267598 57.7864586,12.6014758 57.2839077,12.6014758 L57.2839077,12.6014758 L57.2839077,12.6014758 Z"></path>
                            <path d="M63.4368229,12.7382634 C62.1684912,12.7382634 61.1371815,12.315716 60.3431234,11.4699315 C59.5488353,10.624377 59.1520363,9.55628389 59.1520363,8.26496252 C59.1520363,7.04260969 59.5375705,5.99129892 60.3088689,5.1112601 C61.0799373,4.23145114 62.0657281,3.79143172 63.2653215,3.79143172 C64.5106635,3.79143172 65.507719,4.19742665 66.2562579,5.00849692 C67.0045665,5.81979713 67.378836,6.90536226 67.378836,8.26496252 L67.3618239,8.55646965 L60.7286576,8.55646965 C60.7741769,9.40225411 61.0571779,10.0705595 61.5769707,10.5618455 C62.096764,11.0533615 62.7052965,11.2988895 63.402339,11.2988895 C64.5334233,11.2988895 65.2989743,10.8188683 65.698992,9.85905586 L67.1043412,10.4418402 C66.8300763,11.0931333 66.3785622,11.6389045 65.7502586,12.0784642 C65.1224146,12.5182537 64.3511163,12.7382634 63.4368229,12.7382634 L63.4368229,12.7382634 L63.4368229,12.7382634 Z M65.6994517,7.2538834 C65.6651972,6.7738622 65.4449578,6.31706046 65.0394227,5.8825585 C64.6336577,5.44851635 64.0308725,5.2312654 63.2312968,5.2312654 C62.6487423,5.2312654 62.1429728,5.41426199 61.7144484,5.77979537 C61.2859235,6.14578851 60.9914279,6.63684466 60.8316505,7.2538834 L65.6994517,7.2538834 L65.6994517,7.2538834 L65.6994517,7.2538834 L65.6994517,7.2538834 Z"></path>
                            <path d="M79.7878895,12.4642283 L72.3151462,12.4642283 L72.3151462,10.8873771 C74.5543251,8.63647319 75.9886412,7.16813251 76.6171752,6.482585 C77.1769698,5.85451131 77.5537679,5.37701896 77.7482595,5.05148735 C77.9425208,4.72572581 78.0397663,4.32294944 78.0397663,3.84292824 C78.0397663,3.35187209 77.8452752,2.91760004 77.4572118,2.54034202 C77.0686893,2.16331388 76.5486662,1.97479981 75.8973733,1.97479981 C75.3030939,1.97479981 74.8233029,2.14929027 74.4577691,2.49758151 C74.0917761,2.84633253 73.8579726,3.22037203 73.7549798,3.62015979 L72.3151462,3.03737545 C72.5094075,2.42033672 72.9149426,1.83755237 73.5319815,1.28925231 C74.1490198,0.740952246 74.9485955,0.466687265 75.9316273,0.466687265 C77.0171928,0.466687265 77.9084961,0.798196153 78.6055386,1.46075413 C79.3021209,2.12354201 79.6511018,2.91760004 79.6511018,3.84292824 C79.6511018,4.98573732 79.0280858,6.20831999 77.7827438,7.51090624 L74.355006,10.9558859 L79.7881193,10.9558859 L79.7881193,12.4642283 L79.7878895,12.4642283 L79.7878895,12.4642283 L79.7878895,12.4642283 Z"></path>
                            <path d="M89.4200389,10.973128 C88.551495,12.1501915 87.4146629,12.7384933 86.0090838,12.7384933 C84.6037346,12.7384933 83.4664428,12.1501915 82.5983586,10.973128 C81.7300441,9.79652437 81.2957724,8.33967846 81.2957724,6.6025903 C81.2957724,4.85446714 81.7300441,3.39486249 82.5983586,2.22331653 C83.4664428,1.05223035 84.6037346,0.466457372 86.0090838,0.466457372 C87.4146629,0.466457372 88.551495,1.05223035 89.4200389,2.22331653 C90.2881231,3.39486249 90.7226251,4.85423726 90.7226251,6.6025903 C90.7226251,8.33967846 90.2881231,9.79629449 89.4200389,10.973128 L89.4200389,10.973128 L89.4200389,10.973128 Z M86.0090838,11.2301509 C86.9459069,11.2301509 87.6974341,10.7905913 88.2632063,9.91055239 C88.8287483,9.03074345 89.1115195,7.92816603 89.1115195,6.6025903 C89.1115195,5.26574969 88.8287483,4.16018363 88.2632063,3.28589216 C87.6974341,2.4118306 86.9461367,1.97479981 86.0090838,1.97479981 C85.0605363,1.97479981 84.30648,2.4118306 83.7466849,3.28589216 C83.1866604,4.16018363 82.906878,5.26551976 82.906878,6.6025903 C82.906878,7.92816603 83.1868903,9.03074345 83.7466849,9.91055239 C84.30648,10.7905913 85.0605363,11.2301509 86.0090838,11.2301509 L86.0090838,11.2301509 L86.0090838,11.2301509 Z"></path>
                            <polygon points="96.4470159 12.4642283 94.8701647 12.4642283 94.8701647 2.6946017 92.5907537 3.68866856 91.9909568 2.35205784 95.4359365 0.740722348 96.4470159 0.740722348"></polygon>
                            <path d="M103.028226,4.97424256 C103.942289,4.97424256 104.782096,5.34874184 105.547877,6.09705072 C106.313199,6.84558952 106.696204,7.75091684 106.696204,8.81349249 C106.696204,9.8533085 106.298945,10.7673718 105.504887,11.5559124 C104.710599,12.3444529 103.770787,12.7384933 102.685222,12.7384933 C101.519883,12.7384933 100.557082,12.3416942 99.7972787,11.5474062 C99.0370153,10.7533482 98.6574582,9.84204362 98.6574582,8.81349249 C98.6574582,7.72792731 99.11426,6.51683936 100.028553,5.17976887 L103.21651,0.466457372 L104.484842,1.34051894 L101.691155,5.21425316 L101.72541,5.24850752 C102.01117,5.06574085 102.445671,4.97424256 103.028226,4.97424256 L103.028226,4.97424256 L103.028226,4.97424256 Z M102.685452,11.2131386 C103.34801,11.2131386 103.916541,10.9846228 104.390815,10.5275911 C104.864859,10.0707893 105.10234,9.50524713 105.10234,8.83073461 C105.10234,8.16817663 104.865088,7.60539316 104.390815,7.14238424 C103.916771,6.67960517 103.34801,6.44833059 102.685452,6.44833059 C102.022664,6.44833059 101.451604,6.67960517 100.971583,7.14238424 C100.491562,7.60539316 100.251782,8.16817663 100.251782,8.83073461 C100.251782,9.50524713 100.488573,10.0707893 100.963077,10.5275911 C101.436891,10.9843929 102.01117,11.2131386 102.685452,11.2131386 L102.685452,11.2131386 L102.685452,11.2131386 Z"></path>
                        </g>
                        <g>
                            <g id="Clipped">
                                <g id="Group" transform="translate(0.000000, 16.322559)">
                                    <g id="Group-Clipped">
                                        <mask id="mask-2" fill="white">
                                            <use xlink:href="#path-1"></use>
                                        </mask>
                                        <g id="path-1"></g>
                                        <g id="Group" mask="url(#mask-2)">
                                            <g transform="translate(-0.912055, -1.824110)" id="Shape">
                                                <g transform="translate(0.222369, 0.214843)">
                                                    <polygon fill="#0F9D58" points="14.0859091 5.6151904 6.45499758 18.7702538 0.0457491458 18.8764654 11.1115249 0.020230778"></polygon>
                                                    <path d="M8.13691089,3.64981627 C7.80057421,5.34943154 8.1900167,6.80144962 8.86291993,8.37715137 C9.46478559,9.82893958 10.7041506,11.7412079 10.2439004,13.3700154 C10.0137753,14.1845342 11.2885442,14.5385728 11.5186693,13.7240541 C11.9435157,12.1483523 11.2708423,10.731968 10.6687468,9.31535371 C9.96043964,7.61573846 9.03993924,5.91589333 9.41167979,4.00385489 C9.57122709,3.17186414 8.29645815,2.81782553 8.13691089,3.64981627 L8.13691089,3.64981627 L8.13691089,3.64981627 L8.13691089,3.64981627 Z" fill="#07864F"></path>
                                                    <path d="M2.66609469,17.991139 C1.9754895,17.991139 1.28511419,17.9557351 0.594508998,17.9026293 L0.700720586,16.5924565 C1.62145088,16.6632643 2.54218117,16.6986681 3.46268158,16.6632643 C4.71974857,16.6101585 6.31315221,16.4508411 7.39319991,15.5301108 C8.11920896,14.9105432 8.57945913,13.9544091 8.59716107,12.962871 C8.59716107,12.6796401 8.50865144,12.3784774 8.42014176,12.0421407 C8.38473789,11.8828234 8.33163213,11.723506 8.29622826,11.5641886 C8.17231476,10.979795 7.95989158,10.4310351 7.67643078,9.93538107 C7.58792115,9.7760637 7.48170954,9.5990444 7.35779604,9.43972702 C7.14537286,9.1033903 6.91524775,8.76682374 6.75593038,8.35967932 C6.40189177,7.5451606 6.38418983,6.74857375 6.70282458,6.11107433 L7.87138191,6.69523806 C7.72976647,6.97846893 7.76517034,7.38584323 7.94218965,7.82839152 C8.06610315,8.12932433 8.26082439,8.41255524 8.45554563,8.71371794 C8.56175724,8.89073724 8.68567074,9.06775655 8.79188231,9.26247779 C9.14592092,9.88227527 9.41167979,10.5549487 9.57099716,11.2632558 C9.60640103,11.4048712 9.6418049,11.5464866 9.67720877,11.6881021 C9.78342034,12.0775446 9.90733384,12.5203227 9.88963195,12.980573 C9.85422808,14.3438515 9.2344306,15.6540243 8.22542052,16.5216488 C6.82673812,17.7079081 4.94987364,17.9203312 3.48038351,17.973437 C3.23255648,17.991139 2.94932558,17.991139 2.66609469,17.991139 L2.66609469,17.991139 L2.66609469,17.991139 Z" fill="#07864F"></path>
                                                    <path d="M1.49753737,16.0788706 L1.2320084,14.7863998 C1.70996053,14.6978901 2.20584449,14.6447843 2.66609469,14.5916785 C3.16174875,14.5385728 3.62222885,14.485467 4.08247905,14.3792554 C4.73768039,14.2376399 5.64047886,13.9190052 6.08325703,13.2106981 C6.4195937,12.6796401 6.50810334,11.9359291 6.33108403,11.1568143 C6.15406472,10.3954014 5.76462229,9.68732414 5.30414218,8.92591123 L6.43729564,8.27070988 C6.91524775,9.10293053 7.37572786,9.93492126 7.60585297,10.8733535 C7.87138191,12.006507 7.72976647,13.1219585 7.18100662,13.9541792 C6.63224676,14.8041017 5.64070874,15.4059674 4.34823791,15.6891982 C3.81717998,15.7954099 3.30359409,15.8662176 2.7902381,15.9193234 C2.36516187,15.9549571 1.92238371,15.990361 1.49753737,16.0788706 L1.49753737,16.0788706 L1.49753737,16.0788706 Z" fill="#07864F"></path>
                                                    <path d="M12.1561688,11.2630259 L10.9345056,10.7496699 C11.3239481,9.84664151 11.3947558,8.80199773 11.1469288,7.84609346 C11.0230153,7.38584323 10.8282941,6.94306511 10.6335728,6.46511295 C10.5450631,6.25268977 10.4565535,6.05796853 10.3680438,5.84531547 C10.1025149,5.17241223 9.80158208,4.28731568 9.90779365,3.34888345 C10.0317071,2.09181647 10.8816297,0.958663005 12.0324851,0.480710874 L12.5458411,1.70237399 C11.837534,2.00330681 11.2887742,2.72931587 11.2179664,3.4904989 C11.1471587,4.14570023 11.3772838,4.83607551 11.589707,5.34966142 C11.6605147,5.54438266 11.7490243,5.7391039 11.837534,5.93382514 C12.0499572,6.42947919 12.2800823,6.94306511 12.4216977,7.50952685 C12.7403325,8.74889192 12.6518228,10.0769965 12.1561688,11.2630259 L12.1561688,11.2630259 L12.1561688,11.2630259 Z" fill="#07864F"></path>
                                                    <path d="M13.6433608,7.52722878 C12.9881595,6.85432555 12.1030629,5.95152708 11.9083417,4.72986394 C11.7490243,3.75602786 12.1030629,2.72908598 12.8113701,2.03871068 L13.7321004,2.99484484 C13.324956,3.38428731 13.1302347,3.96868092 13.2187444,4.51744078 C13.3426579,5.26115174 13.9093496,5.89842127 14.5997249,6.58902645 L13.6433608,7.52722878 L13.6433608,7.52722878 L13.6433608,7.52722878 Z" fill="#07864F"></path>
                                                    <path d="M10.4563236,6.60672838 C11.7664964,5.65059423 11.3770539,5.01332474 11.3770539,5.01332474 C11.3770539,5.01332474 10.4563236,5.38506529 9.97837146,6.04026659 C10.1199869,4.80090157 9.65973672,4.44686295 9.19925661,4.18110409 C9.32317016,5.38506529 9.42938172,5.7391039 9.44708366,5.79220971 C9.37627592,5.66829616 8.8983238,4.71216201 8.1900167,4.44663305 C8.3139302,5.20804598 8.66796881,5.70370003 8.8983238,5.96922902 C9.02223731,6.07544058 9.11074698,6.16395026 9.11074698,6.18165215 C9.09304505,6.16395026 9.00453537,6.11084445 8.8983238,5.96922902 C8.54428519,5.6859981 7.78287228,5.31402767 6.82673812,6.09314252 C7.65895873,6.57109463 8.8983238,6.42947919 9.05764118,6.41177726 C8.845218,6.46488306 6.56120914,7.15548824 6.73822845,8.35944944 C7.76517034,7.98770889 8.66819869,7.15548824 8.86291993,6.99617087 C8.66819869,7.19089211 7.62355491,8.25323787 7.58815104,9.38639134 C8.34956395,8.74889192 8.80981413,8.35944944 9.07534311,8.11162239 C8.93372768,8.74912181 8.79211224,9.35098747 8.66819869,9.91744925 C8.13714077,12.3253716 7.5704491,14.8041017 7.16330468,14.8218036 C7.00398731,14.8218036 6.84466994,14.4323612 6.70305451,14.0780927 C6.45522746,13.4405933 6.15429465,12.6617083 5.33977593,12.6794102 C4.96803538,12.6794102 3.85258384,12.6971122 1.65708464,20.3103218 L2.11733484,20.4519372 C3.65763271,15.1050346 4.79078619,13.1750643 5.33977593,13.1750643 C5.78232417,13.1750643 5.99497728,13.6176126 6.24280428,14.2728139 C6.45522746,14.8038718 6.6499487,15.3351596 7.16353457,15.3351596 C7.96035135,15.3174577 8.3320919,13.6709483 9.12890868,10.0590647 C9.25282223,9.52800677 9.37673573,8.97901703 9.50064923,8.37715137 C9.57145697,8.94361316 9.64226467,9.70502608 9.5360531,10.2186119 C10.315168,8.78452568 9.99630328,7.68677608 9.99630328,7.68677608 C9.99630328,7.68677608 11.0940529,9.28017972 11.5011973,9.4926029 C11.7490243,8.217834 10.5273612,7.35020948 10.5273612,7.35020948 C10.5273612,7.35020948 12.2269765,6.92536317 12.0676591,8.09392046 C12.8996498,7.42101722 12.3685919,6.34096956 10.4563236,6.60672838 L10.4563236,6.60672838 L10.4563236,6.60672838 Z" fill="#004F2B"></path>
                                                </g>
                                            </g>
                                        </g>
                                    </g>
                                </g>
                                <g id="Group" transform="translate(5.977275, 21.380254)">
                                    <g id="Group-Clipped">
                                        <mask id="mask-4" fill="white">
                                            <use xlink:href="#path-3"></use>
                                        </mask>
                                        <g id="path-3"></g>
                                        <g id="Group" mask="url(#mask-4)">
                                            <g transform="translate(-3.648219, -2.736164)">
                                                <g transform="translate(0.199791, 0.437213)">
                                                    <path d="M13.647269,4.50502644 L13.647269,6.0453243 L9.52202948,13.7470436 C9.29190437,14.1718899 8.84912625,14.4376488 8.35347215,14.4553507 L2.74081063,14.4199468 L11.2393467,0.0963260911 L13.2932304,3.33646911 C13.5233555,3.69050773 13.647269,4.09765213 13.647269,4.50502644 L13.647269,4.50502644 L13.647269,4.50502644 Z" id="Shape" fill="#FFC107"></path>
                                                    <g transform="translate(6.437066, 8.046332)" stroke-width="2.1021">
                                                        <g id="Shape" stroke="#E5A300">
                                                            <polyline points="0.110349698 0.0703479329 3.20864738 3.00955813 3.20864738 0.0703479329"></polyline>
                                                            <polyline points="1.17269544 0.0703479329 3.20864738 3.00955813 2.1285997 0.0703479329"></polyline>
                                                            <polyline points="0.128051629 0.867164713 3.20864738 3.00955813 0.163455491 1.8410008"></polyline>
                                                            <path d=""></path>
                                                        </g>
                                                        <g id="Shape" transform="translate(2.988638, 0.000000)" stroke="#A56B17">
                                                            <polyline points="3.17692184 0.300702928 0.220009711 3.00955813 0.220009711 0.300702928"></polyline>
                                                            <polyline points="2.2915954 0.12368362 0.220009711 3.00955813 1.31775931 0.0703479329"></polyline>
                                                            <polyline points="3.2123257 1.00878016 0.220009711 3.00955813 3.31853728 2.03572204"></polyline>
                                                            <path d=""></path>
                                                        </g>
                                                        <g id="Shape" transform="translate(0.000000, 2.988638)" stroke="#A56B17">
                                                            <polyline points="0.110349698 2.95990076 3.20864738 0.0209204636 3.20864738 2.95990076"></polyline>
                                                            <polyline points="1.19039737 2.94219883 3.20864738 0.0209204636 2.1285997 2.95990076"></polyline>
                                                            <polyline points="0.181157422 2.12791001 3.20864738 0.0209204636 0.269667075 1.10096814"></polyline>
                                                            <path d=""></path>
                                                        </g>
                                                        <g id="Shape" transform="translate(2.988638, 2.988638)" stroke="#E5A300">
                                                            <polyline points="3.31853728 2.95990076 0.220009711 0.0209204636 0.220009711 2.95990076"></polyline>
                                                            <polyline points="2.25619154 2.95990076 0.220009711 0.0209204636 1.31775931 2.95990076"></polyline>
                                                            <polyline points="3.26543149 2.12791001 0.220009711 0.0209204636 3.17692184 1.10096814"></polyline>
                                                            <path d=""></path>
                                                        </g>
                                                        <rect id="Rectangle-path" stroke="#E5A300" x="0.110349698" y="0.0703479329" width="6.19682523" height="5.89589242"></rect>
                                                    </g>
                                                    <g transform="translate(6.207171, 1.839162)">
                                                        <path d="M4.11144584,6.20671076 L0.623475795,2.70126866" id="Shape" stroke="#A56B17" stroke-width="2.1021"></path>
                                                        <path d="M6.46626241,3.90522985 L2.88978273,0.293346282" id="Shape" stroke="#A56B17" stroke-width="2.1021"></path>
                                                        <path d="M6.69638752,2.50631752 L2.99599431,6.15360496" id="Shape" stroke="#A56B17" stroke-width="2.1021"></path>
                                                        <path d="M4.14684971,0.381855935 L0.446456488,4.04684529" id="Shape" stroke="#A56B17" stroke-width="2.1021"></path>
                                                        <path d="M0.499562281,0.328750143 L3.59785996,3.26773044" id="Shape" stroke="#E5A300" stroke-width="2.1021"></path>
                                                        <path d="M6.69638752,0.328750143 L3.59785996,3.26773044" id="Shape" stroke="#E5A300" stroke-width="2.1021"></path>
                                                        <path d="M6.71408946,3.88752792 L4.87285877,5.64024897 L4.23535936,6.24211459 C4.07604198,6.401432 3.84591688,6.48994163 3.63349372,6.48994163 C3.38566668,6.50764357 3.12013772,6.41913389 2.94288852,6.24211459 L1.27867713,4.64871095 L0.48186035,3.88729802 C0.287139111,3.71027871 0.198629457,3.46245168 0.216331388,3.23209668 C0.216331388,3.01967352 0.322542972,2.80725035 0.48186035,2.64793297 L1.96905243,1.23154861 L2.94288852,0.293116386 C3.11990783,0.116097079 3.35003292,0.0452893554 3.59808985,0.0452893554 C3.82821495,0.0452893554 4.07604198,0.133799009 4.25329118,0.293116386 L6.71431934,2.63023104 C6.89133865,2.80725035 6.97984832,3.01967352 6.97984832,3.24979861 C6.97961844,3.48015361 6.89110876,3.71027871 6.71408946,3.88752792 L6.71408946,3.88752792 L6.71408946,3.88752792 Z" id="Shape" stroke="#A56B17" stroke-width="1.4573"></path>
                                                        <rect id="Rectangle-path" stroke="#E5A300" stroke-width="1.4573" x="0.499562281" y="0.328750143" width="6.19682523" height="5.89589242"></rect>
                                                        <path d="M4.87285877,0.895211926 L6.71408946,2.64793297 C6.89110876,2.82495228 6.97961844,3.03737545 6.97961844,3.26750055" id="Shape" stroke="#A56B17" stroke-width="1.4573"></path>
                                                        <path d="M1.96905243,1.23154861 L2.94288852,0.293116386 C3.11990783,0.116097079 3.35003292,0.0452893554 3.59808985,0.0452893554" id="Shape" stroke="#A56B17" stroke-width="1.4573"></path>
                                                        <path d="M1.27867713,4.64871095 L0.48186035,3.88729802 C0.287139111,3.71027871 0.198629457,3.46245168 0.216331388,3.23209668" id="Shape" stroke="#A56B17" stroke-width="1.4573"></path>
                                                        <path d="M4.87285877,5.62254704 L4.23535936,6.22441265 C4.07604198,6.38373007 3.84591688,6.4722397 3.63349372,6.4722397" id="Shape" stroke="#A56B17" stroke-width="1.4573"></path>
                                                        <path d="M3.59785996,3.26773044 L0.499562281,6.20671076" id="Shape" stroke="#E5A300" stroke-width="2.1021"></path>
                                                        <path d="M3.59785996,3.26773044 L6.69638752,6.20671076" id="Shape" stroke="#E5A300" stroke-width="2.1021"></path>
                                                    </g>
                                                    <g transform="translate(0.000000, 7.586542)">
                                                        <path d="M3.99787762,6.46143463 L0.42139791,2.86725299" id="Shape" stroke="#A56B17" stroke-width="2.1021"></path>
                                                        <path d="M6.28188647,4.07121418 L2.68770484,0.459330622" id="Shape" stroke="#A56B17" stroke-width="2.1021"></path>
                                                        <path d="M6.40579997,2.76104141 L2.74081063,6.39062689" id="Shape" stroke="#A56B17" stroke-width="2.1021"></path>
                                                        <path d="M3.96247375,0.548070167 L0.262080533,4.21305953" id="Shape" stroke="#A56B17" stroke-width="2.1021"></path>
                                                        <path d="M0.297484395,0.494734483 L3.39578207,3.43394468" id="Shape" stroke="#E5A300" stroke-width="2.1021"></path>
                                                        <path d="M6.49430965,0.494734483 L3.39578207,3.43394468" id="Shape" stroke="#E5A300" stroke-width="2.1021"></path>
                                                        <path d="M6.51201158,4.05351225 L4.67055097,5.80623328 L4.03305158,6.40809894 C3.8737342,6.56741631 3.6436091,6.65592599 3.43118593,6.65592599 C3.1833589,6.67362792 2.91782994,6.58511825 2.74058074,6.40809894 L1.07636935,4.81469526 L0.279552569,4.05328236 C0.0848313306,3.87626305 -0.00367832328,3.62843602 0.0140236075,3.39808103 C0.0140236075,3.18565785 0.120235192,2.97323469 0.279552569,2.81368741 L1.76674465,1.39730306 L2.74058074,0.458870827 C2.91760004,0.281851521 3.14772515,0.211043798 3.39578207,0.211043798 C3.62590717,0.211043798 3.8737342,0.299553452 4.05098341,0.458870827 L6.51201158,2.79598548 C6.68903089,2.97300479 6.77754052,3.18542796 6.77754052,3.41555306 C6.77754052,3.66406977 6.68903089,3.87649295 6.51201158,4.05351225 L6.51201158,4.05351225 L6.51201158,4.05351225 Z" id="Shape" stroke="#A56B17" stroke-width="1.4573"></path>
                                                        <rect id="Rectangle-path" stroke="#E5A300" stroke-width="1.4573" x="0.297484395" y="0.494734483" width="6.19682523" height="5.89589242"></rect>
                                                        <path d="M4.67055097,1.07912809 L6.51201158,2.83184913 C6.68903089,3.00886844 6.77754052,3.22129161 6.77754052,3.45164661" id="Shape" stroke="#A56B17" stroke-width="1.4573"></path>
                                                        <path d="M1.76697454,1.41546478 L2.74081063,0.477032552 C2.91782994,0.300013242 3.14795504,0.229205519 3.39601197,0.229205519" id="Shape" stroke="#A56B17" stroke-width="1.4573"></path>
                                                        <path d="M1.07636935,4.81492518 L0.279552569,4.05351225 C0.0848313306,3.87649295 -0.00367832328,3.62866591 0.0140236075,3.39831092" id="Shape" stroke="#A56B17" stroke-width="1.4573"></path>
                                                        <path d="M4.67055097,5.78876128 L4.03305158,6.39062689 C3.8737342,6.54994431 3.6436091,6.63845394 3.43118593,6.63845394" id="Shape" stroke="#A56B17" stroke-width="1.4573"></path>
                                                        <path d="M3.39578207,3.43394468 L0.297484395,6.37292495" id="Shape" stroke="#E5A300" stroke-width="2.1021"></path>
                                                        <path d="M3.39578207,3.43394468 L6.49430965,6.37292495" id="Shape" stroke="#E5A300" stroke-width="2.1021"></path>
                                                    </g>
                                                </g>
                                            </g>
                                        </g>
                                    </g>
                                </g>
                                <g id="Group-Clipped">
                                    <mask id="mask-6" fill="white">
                                        <use xlink:href="#path-5"></use>
                                    </mask>
                                    <g id="path-5"></g>
                                    <g id="Group" mask="url(#mask-6)">
                                        <g transform="translate(-0.456027, -1.368082)" id="Shape">
                                            <g transform="translate(0.226132, 0.218606)">
                                                <path d="M18.9909532,23.3014883 L18.1764345,24.6824688 L15.4498773,29.1796788 L15.5029831,27.7101886 C15.5206851,27.3207461 15.4144735,26.9310738 15.2020503,26.5770352 L13.289782,23.3899979 L13.2720801,23.3545941 L10.4393114,18.6449609 L0.595198685,2.21458051 C0.0641407623,1.31155215 -0.343233541,0.00137937123 0.772217996,0.00137937123 L5.74738012,0.160696748 L18.9909532,23.3014883 L18.9909532,23.3014883 L18.9909532,23.3014883 Z" fill="#4285F4"></path>
                                                <path d="M7.18146643,16.5204993 L5.90669749,15.9717395 C6.49086121,14.6438648 7.92517741,14.1305088 9.07603281,14.094875 C9.6424946,14.0771731 10.1737824,14.1479808 10.7048403,14.2010866 C11.2004944,14.2541924 11.6609745,14.3072982 12.1035228,14.3072982 C12.8295318,14.2895963 13.7146283,14.0063653 14.0511949,13.2626544 L15.3082619,13.8291162 C14.7240982,15.1569909 13.289782,15.6526449 12.1389266,15.6882787 C11.5901668,15.7059806 11.041177,15.6351729 10.527821,15.5820671 C10.032167,15.5289613 9.57168686,15.4758555 9.11143668,15.4758555 C8.38542759,15.4935574 7.50010117,15.7767883 7.18146643,16.5204993 L7.18146643,16.5204993 L7.18146643,16.5204993 Z" fill="#2167CE"></path>
                                                <path d="M15.6091947,16.1664607 C13.4136955,16.9101717 10.1914843,14.342932 8.93441737,17.335018 C8.79280189,17.6713547 9.07603281,18.2026425 8.93441737,18.5389792 C10.1914843,15.5291912 13.4139254,18.096431 15.6091947,17.3704219 C15.7508102,17.3347882 15.5029831,16.2018646 15.6091947,16.1664607 L15.6091947,16.1664607 L15.6091947,16.1664607 L15.6091947,16.1664607 Z" fill="#2167CE"></path>
                                                <path d="M9.73100423,20.0615751 C10.2797641,18.3619599 11.784888,18.4150657 13.2189743,18.9107197 C14.7592722,19.4417777 16.4414154,19.8845558 17.786992,18.6628927 C17.9817132,18.4858734 17.5922708,17.6890567 17.786992,17.5120373 C16.4591173,18.7337004 14.7595021,18.2911522 13.2189743,17.7598643 C11.784888,17.2642103 10.279994,17.2111045 9.73100423,18.9107197 C9.60709073,19.2647584 9.83721584,19.7250086 9.73100423,20.0615751 L9.73100423,20.0615751 L9.73100423,20.0615751 L9.73100423,20.0615751 Z" fill="#2167CE"></path>
                                                <path d="M18.0171171,19.6542008 C17.2380023,19.8312201 16.4237134,20.0082395 15.6268966,19.9905376 C14.794676,19.9728356 14.0157911,19.6364989 13.2189743,19.5125854 C11.6078687,19.2470565 9.9434274,19.5125854 8.82797588,20.7873543 C8.63325463,21.0174794 9.02269712,21.7788923 8.82797588,21.9913155 C9.9434274,20.7342485 11.6076388,20.4510176 13.2189743,20.7165466 C13.9803872,20.8404601 14.7061664,21.141393 15.4852812,21.1944987 C16.3352038,21.2476045 17.2025984,21.0528833 18.0348191,20.875864 C18.1233287,20.8404601 17.9463094,19.6719028 18.0171171,19.6542008 L18.0171171,19.6542008 L18.0171171,19.6542008 L18.0171171,19.6542008 Z" fill="#2167CE"></path>
                                                <path d="M11.4485513,24.0629012 C12.6171086,22.9651516 14.0865988,23.0005555 15.5914928,23.106767 C16.9901752,23.1952767 18.1587326,22.7350265 18.8847416,21.4779595 C19.0617609,21.1770267 18.7077223,20.5749312 18.8847416,20.2739983 C18.1764345,21.5133634 16.9901752,21.9913155 15.5914928,21.9028059 C14.0865988,21.7965943 12.6171086,21.7611904 11.4485513,22.85894 C11.2358982,23.0359593 11.6432725,23.8681799 11.4485513,24.0629012 L11.4485513,24.0629012 L11.4485513,24.0629012 L11.4485513,24.0629012 Z" fill="#2167CE"></path>
                                                <path d="M19.4866073,21.8142962 C17.9640113,24.5054495 14.6176567,24.3461321 11.9442054,23.9920935 C11.9796092,23.9920935 11.8910996,25.1960546 11.9442054,25.1960546 C14.5999548,25.5323914 17.9463094,25.6917087 19.4866073,23.0182574 C19.6459246,22.7173245 19.3095879,22.115229 19.4866073,21.8142962 L19.4866073,21.8142962 L19.4866073,21.8142962 L19.4866073,21.8142962 Z" fill="#2167CE"></path>
                                                <path d="M19.7698381,24.2930263 C17.8929737,26.7540545 14.5999548,26.1698907 12.0150131,25.4792856 C12.1035228,25.4969875 11.9088015,26.6655448 12.0150131,26.6832468 C14.5999548,27.3738519 17.9109055,27.9757176 19.7698381,25.4969875 C19.9647893,25.2314585 19.5751169,24.5408533 19.7698381,24.2930263 L19.7698381,24.2930263 L19.7698381,24.2930263 L19.7698381,24.2930263 Z" fill="#2167CE"></path>
                                                <path d="M6.52649497,14.5905291 L5.3933415,14.112577 C5.94210136,12.8201061 7.12836063,12.3952598 8.08449478,12.4129617 C8.54474496,12.4306636 8.9698212,12.5191733 9.37696561,12.607683 C9.74870616,12.6961926 10.1029747,12.7670003 10.4570133,12.7670003 C10.7225423,12.7670003 11.5901668,12.7138945 11.9796092,11.8108662 L13.1127627,12.2888183 C12.5817048,13.5812891 11.3777436,14.0238374 10.4393114,14.0061355 C9.97906116,13.9884335 9.55398492,13.8999239 9.12913857,13.8114142 C8.75739802,13.7229045 8.40312952,13.6520969 8.06679285,13.6520969 C7.80126386,13.616693 6.91593745,13.6697988 6.52649497,14.5905291 L6.52649497,14.5905291 L6.52649497,14.5905291 Z" fill="#2167CE"></path>
                                                <path d="M5.03907301,12.2888183 C7.14606256,11.3149822 10.6163307,13.5281834 11.5368311,10.3942519 C11.6430427,10.0225114 11.4306195,9.56203125 11.5368311,9.1902907 C10.6161008,12.3242222 7.12813074,10.111021 5.03907301,11.0848571 C4.87975564,11.1556648 5.18068844,12.2180105 5.03907301,12.2888183 L5.03907301,12.2888183 L5.03907301,12.2888183 L5.03907301,12.2888183 Z" fill="#2167CE"></path>
                                                <path d="M10.8287538,7.86264588 C10.279994,9.56226113 8.79257201,9.50915537 7.35848574,9.03120321 C5.81818786,8.51784723 4.1183427,8.07506906 2.790468,9.2967322 C2.59574676,9.4737515 2.98518923,10.2705683 2.790468,10.4475876 C4.1183427,9.22592446 5.81795793,9.65077081 7.35848574,10.1820586 C8.79257201,10.6600108 10.297466,10.7131165 10.8287538,9.01350128 C10.9526674,8.65923278 10.7225423,8.19898261 10.8287538,7.86264588 L10.8287538,7.86264588 L10.8287538,7.86264588 L10.8287538,7.86264588 Z" fill="#2167CE"></path>
                                                <path d="M2.54264096,8.30519417 C3.32175582,8.12817486 4.13604463,7.95115556 4.9328614,7.96885749 C5.76508205,7.98655943 6.54396702,8.30519417 7.3407838,8.44680961 C8.95188938,8.71233859 10.6163307,8.42910767 11.7317822,7.15433877 C11.9265035,6.92421366 11.537061,6.16280075 11.7317822,5.95037757 C10.6163307,7.22514651 8.95211926,7.50837739 7.3407838,7.24284845 C6.57937089,7.1189349 5.85359173,6.8180021 5.07447688,6.78259823 C4.22455428,6.72949242 3.35715968,6.92421366 2.52493903,7.1189349 C2.43642938,7.1189349 2.61344869,8.28749224 2.54264096,8.30519417 L2.54264096,8.30519417 L2.54264096,8.30519417 L2.54264096,8.30519417 Z" fill="#2167CE"></path>
                                                <path d="M9.09373474,3.8787919 C7.92517741,4.97654148 6.45568727,4.95883959 4.95079322,4.85262798 C3.55211081,4.76411835 2.38355349,5.24207046 1.67524636,6.49913743 C1.49822705,6.80007028 1.85226567,7.40216582 1.67524636,7.70309863 C2.38355349,6.44603167 3.55211081,5.96807951 4.95079322,6.05658918 C6.45568727,6.14509881 7.92517741,6.18050268 9.09373474,5.08275309 C9.30615787,4.88803185 8.89878357,4.0560411 9.09373474,3.8787919 L9.09373474,3.8787919 L9.09373474,3.8787919 L9.09373474,3.8787919 Z" fill="#2167CE"></path>
                                                <path d="M1.07315082,6.14509881 C2.59574676,3.45394556 5.94210136,3.595561 8.59785076,3.93189769 C8.56244689,3.93189769 8.65095657,2.7279365 8.59785076,2.7279365 C5.94210136,2.39159982 2.59574676,2.24998437 1.07315082,4.94113766 C0.89613151,5.24230035 1.23246819,5.84416601 1.07315082,6.14509881 L1.07315082,6.14509881 L1.07315082,6.14509881 L1.07315082,6.14509881 Z" fill="#2167CE"></path>
                                                <path d="M0.772217996,3.66636873 C2.63138051,1.18763863 5.92439942,1.77180234 8.52704302,2.46240754 C8.43853339,2.44470561 8.63325463,1.27614828 8.52704302,1.25844635 C5.94210136,0.585543089 2.63115062,0.00137937123 0.772217996,2.46240754 C0.577496754,2.72816639 0.966939232,3.4185417 0.772217996,3.66636873 L0.772217996,3.66636873 L0.772217996,3.66636873 L0.772217996,3.66636873 Z" fill="#2167CE"></path>
                                                <path d="M5.80048592,0.00137937123 C7.55320698,5.01194535 4.1185726,5.77335827 4.1185726,5.77335827 L10.1914843,6.37522393 C10.1737824,6.37545381 7.51780311,3.33003205 5.80048592,0.00137937123 L5.80048592,0.00137937123 L5.80048592,0.00137937123 Z" fill="#144570"></path>
                                                <polygon fill="#144570" points="5.18068844 7.18974264 10.5632249 6.21590655 9.55398492 7.57941501 5.30483187 7.54378126"></polygon>
                                                <path d="M7.1637645,8.32289611 C7.42929343,13.5104814 3.97672726,13.2803563 3.97672726,13.2803563 L9.50087911,15.5466632 C9.50087911,15.5289613 10.4039075,12.1826067 7.1637645,8.32289611 L7.1637645,8.32289611 L7.1637645,8.32289611 Z" fill="#144570"></path>
                                                <polygon fill="#144570" points="6.15452453 16.3080761 11.4131474 15.3342401 10.4393114 16.6798167 6.27843804 16.6444128"></polygon>
                                                <path d="M13.5907148,16.4673935 C13.8916476,22.4871995 9.8903216,22.2039686 9.8903216,22.2039686 L16.29957,24.8243141 C16.2997999,24.842016 17.3619158,20.9466717 13.5907148,16.4673935 L13.5907148,16.4673935 L13.5907148,16.4673935 Z" fill="#144570"></path>
                                                <polygon fill="#144570" points="12.4221575 25.7271126 18.5304731 24.611661 17.3973196 26.1698907 12.5637729 26.1344869"></polygon>
                                            </g>
                                        </g>
                                    </g>
                                </g>
                                <g id="Group" transform="translate(5.977275, 0.000000)">
                                    <g id="Group-Clipped">
                                        <mask id="mask-8" fill="white">
                                            <use xlink:href="#path-7"></use>
                                        </mask>
                                        <g id="path-7"></g>
                                        <g id="Group" mask="url(#mask-8)">
                                            <g transform="translate(-2.736164, -3.648219)">
                                                <g transform="translate(0.429686, 0.429686)">
                                                    <g id="Shape">
                                                        <polygon fill="#DB4437" points="6.59172467 0.954984679 0.0229289806 0.954984679 14.9486453 28.2566495 19.2155003 20.8027573"></polygon>
                                                        <g transform="translate(1.157002, 0.000000)" stroke-width="4.7048" stroke="#A00000">
                                                            <path d="M18.0230944,24.3615351 C17.7752674,23.9543906 17.6513538,23.5116125 17.61595,23.0513623 C17.5805461,22.608814 17.4566326,22.1660359 17.2088056,21.7411895 C16.9609785,21.3340451 16.6423438,20.9974786 16.2526714,20.7673534 C15.8632289,20.5372283 15.5443643,20.2008917 15.2965373,19.7935174 C15.0487102,19.3863729 14.9247967,18.9435948 14.8893928,18.4833446 C14.853989,18.0407963 14.7300755,17.5980182 14.4822484,17.1731718 C14.2344214,16.7660274 13.9157866,16.4294608 13.5261143,16.1993357 C13.1366718,15.9692106 12.8178072,15.6328739 12.5699801,15.2254996 C12.3221531,14.8183552 12.1982396,14.375577 12.1628357,13.9153269 C12.1274319,13.4727786 12.0035183,13.0300004 11.7556913,12.6051541 C11.5078643,12.1980097 11.1892295,11.8614431 10.7995572,11.631318 L10.7995572,11.631318 C10.4278166,11.4011929 10.09125,11.0648562 9.84342301,10.6574819 C9.59559596,10.2503375 9.47168246,9.78985739 9.43627859,9.34730915 C9.40087472,8.90476086 9.27696122,8.44428075 9.02913417,8.03713638 C8.78130713,7.62999196 8.46267238,7.29342536 8.07300002,7.06330029 C7.70125947,6.83317518 7.36469291,6.4968385 7.11686586,6.0894642 C6.86903881,5.68231978 6.74512531,5.22183967 6.70972144,4.77929143 C6.67431757,4.33674315 6.55040407,3.87626305 6.30257703,3.46911864 C6.05475002,3.06197424 5.71841335,2.72540765 5.34644287,2.49528255 C4.97470232,2.26515746 4.63813576,1.92882077 4.39030873,1.52144647 C4.1424817,1.11407216 4.01856818,0.671523892 3.98316432,0.211273693"></path>
                                                            <path d="M16.8014313,25.1050162 C16.5536042,24.6978717 16.4296907,24.2550936 16.3942868,23.7948434 C16.358883,23.3522951 16.2349695,22.909517 15.9871424,22.4846706 C15.7393154,22.0775262 15.4206806,21.7409596 15.0310083,21.5108345 C14.6415658,21.2807094 14.3227012,20.9443727 14.0748741,20.5369984 C13.8270471,20.129854 13.7031336,19.6870759 13.6677297,19.2268257 C13.6323259,18.7842774 13.5084123,18.3414992 13.2605853,17.9166529 C13.0127583,17.5095085 12.6941235,17.1729419 12.3044512,16.9428168 C11.9150087,16.7126917 11.596144,16.376355 11.348317,15.9689807 C11.10049,15.5616064 10.9765765,15.1190581 10.9411726,14.658808 C10.9057687,14.2162597 10.7818552,13.7734815 10.5340282,13.3486352 C10.2862011,12.9414908 9.96756639,12.6049242 9.57789403,12.3747991 L9.57789403,12.3747991 C9.20615348,12.144674 8.86958692,11.8083373 8.62175987,11.400963 C8.37393282,10.9938186 8.25001932,10.5333385 8.21461545,10.0907902 C8.17921158,9.64824195 8.05529808,9.18776185 7.80747104,8.78061748 C7.55964403,8.37347306 7.24100929,8.03690645 6.85133688,7.80678138 C6.47959633,7.57665627 6.14302977,7.2403196 5.89520272,6.83294529 C5.64737572,6.42557099 5.52346218,5.96532077 5.48805835,5.52277253 C5.45265448,5.08022424 5.32874094,4.61974413 5.08091393,4.21259974 C4.83308689,3.80545533 4.49675021,3.46888875 4.12477976,3.23876365 C3.75303922,3.00863855 3.41647264,2.67230186 3.16864561,2.26492756 C2.92081858,1.85778315 2.74379927,1.18487988 2.72609734,0.742331614"></path>
                                                            <path d="M15.5620662,25.8310252 C15.3142392,25.4238808 15.1903256,24.9811027 15.1549218,24.5208524 C15.119518,24.0783042 14.9956044,23.635526 14.7477774,23.2106797 C14.4999504,22.8035353 14.1813156,22.4669687 13.7916432,22.2368436 C13.4022008,22.0067185 13.0833361,21.6703818 12.8355091,21.2630075 C12.587682,20.8558631 12.4637685,20.4130849 12.4283647,19.9528347 C12.3929608,19.5102865 12.2690473,19.0675083 12.0212203,18.642662 C11.7733933,18.2355175 11.4547585,17.898951 11.0650861,17.6688259 C10.6756436,17.4387008 10.356779,17.1023641 10.1089519,16.6949898 C9.8611249,16.2878454 9.7372114,15.8450672 9.70180753,15.384817 C9.6664037,14.9422688 9.54249016,14.4994906 9.29466315,14.0746442 C9.04683611,13.6674998 8.72820137,13.3309333 8.338529,13.1008081 L8.338529,13.1008081 C7.96678845,12.870683 7.63022185,12.5343464 7.3823948,12.1269721 C7.1345678,11.7198276 7.0106543,11.2593476 6.97525043,10.8167993 C6.93984656,10.374251 6.81593305,9.91377094 6.56810601,9.50662652 C6.32027896,9.0994821 6.00164422,8.76291554 5.61197185,8.53279043 C5.2402313,8.30266532 4.9036647,7.96632864 4.6558377,7.55895434 C4.40801066,7.15158004 4.28409714,6.69132981 4.24869328,6.24878157 C4.21328942,5.80623328 4.0893759,5.34575322 3.84154887,4.9386088 C3.59372184,4.53146438 3.25738516,4.19489781 2.88541471,3.9647727 C2.51367417,3.7346476 2.17710759,3.39831092 1.92928056,2.99093662 C1.68145353,2.58379221 1.46903036,1.69846577 1.45132843,1.2559175"></path>
                                                            <path d="M14.3227012,26.5745063 C14.0748741,26.1673619 13.9509606,25.7245838 13.9155567,25.2643335 C13.8801529,24.8217853 13.7562394,24.3790071 13.5084123,23.9541608 C13.2605853,23.5470163 12.9419505,23.2104498 12.5522782,22.9803247 C12.1628357,22.7501996 11.8439711,22.4138629 11.596144,22.0064886 C11.348317,21.5991143 11.2244035,21.156566 11.1889996,20.6963158 C11.1535958,20.2537676 11.0296822,19.8109894 10.7818552,19.386143 C10.5340282,18.9789986 10.2153934,18.6424321 9.82572107,18.412307 C9.43627859,18.1821818 9.11741392,17.8458452 8.86958692,17.4384709 C8.62175987,17.0313264 8.49784637,16.5885483 8.4624425,16.1282981 C8.42703863,15.6857498 8.30312513,15.2429717 8.05529808,14.8181253 C7.80747104,14.4109809 7.48883629,14.0744144 7.09916393,13.8442892 L7.09916393,13.8442892 C6.72742338,13.6141641 6.39085682,13.2778275 6.14302977,12.8704532 C5.89520272,12.4630788 5.77128922,12.0028287 5.73588535,11.5602804 C5.70048148,11.1177321 5.57656798,10.657252 5.32874094,10.2501076 C5.08091393,9.8429632 4.76227919,9.50639664 4.3726068,9.27627152 C4.00086625,9.04614641 3.66429967,8.70980973 3.41647264,8.30243543 C3.16864561,7.89529102 3.04473209,7.43481091 3.00932823,6.99226267 C2.97392437,6.54971438 2.85001085,6.08923427 2.60218382,5.6820899 C2.35435679,5.27494548 2.01802011,4.93837892 1.64604967,4.70825381 C1.27430912,4.4781287 0.937742543,4.14179201 0.689915509,3.73441771 C0.442088479,3.32704341 0.194261448,2.2295237 0.176559518,1.78674553"></path>
                                                        </g>
                                                    </g>
                                                    <g transform="translate(4.375535, 3.678323)">
                                                        <polygon id="Shape" fill="#630000" points="3.98661275 9.31627329 3.98661275 8.36013914 5.5802463 5.68668779 7.19135192 8.36013914 7.19135192 14.3445412 7.74011177 15.2298676 7.74011177 14.3268393 9.35144723 11.653388 10.9448509 14.3268393 10.9448509 20.7009137 10.9448509 22.0464904 3.98661275 10.5733403"></polygon>
                                                        <polyline id="Shape" fill="#630000" points="3.43785289 8.43117676 3.96891082 9.31627329 3.96891082 6.90835089 5.5802463 4.23489957 7.19135192 6.90835089 7.19135192 14.7696174 7.19135192 16.1151941 0.215411807 4.6597459"></polyline>
                                                        <polyline id="Shape" fill="#630000" points="0.215411807 3.63303392 0.215411807 2.73000556 1.8265174 0.0565542205 3.43785289 2.73000556 3.43785289 9.10385011 3.43785289 10.4494268"></polyline>
                                                        <g id="Rectangle-path" transform="translate(8.046332, 13.333922)" fill="#D9413D">
                                                            <g id="Group" transform="translate(0.229895, 0.000000)">
                                                                <rect id="Rectangle-path" x="0.791759085" y="0.178628574" width="0.485221129" height="3.06312371"></rect>
                                                                <rect id="Rectangle-path" x="0.0411512417" y="0.914523127" width="1.94767218" height="0.485221129"></rect>
                                                            </g>
                                                            <g id="Group" transform="translate(0.000000, 3.678323)">
                                                                <rect id="Rectangle-path" x="0.0480480977" y="0.11218886" width="0.637499404" height="0.637499404"></rect>
                                                                <rect id="Rectangle-path" x="0.933144637" y="0.11218886" width="0.637499404" height="0.637499404"></rect>
                                                                <rect id="Rectangle-path" x="1.81847107" y="0.11218886" width="0.637499404" height="0.637499404"></rect>
                                                                <rect id="Rectangle-path" x="0.0480480977" y="1.05039119" width="0.637499404" height="0.637499404"></rect>
                                                                <rect id="Rectangle-path" x="0.933144637" y="1.05039119" width="0.637499404" height="0.637499404"></rect>
                                                                <rect id="Rectangle-path" x="1.81847107" y="1.05039119" width="0.637499404" height="0.637499404"></rect>
                                                                <rect id="Rectangle-path" x="0.0480480977" y="1.98882342" width="0.637499404" height="0.637499404"></rect>
                                                                <rect id="Rectangle-path" x="0.933144637" y="1.98882342" width="0.637499404" height="0.637499404"></rect>
                                                                <rect id="Rectangle-path" x="1.81847107" y="1.98882342" width="0.637499404" height="0.637499404"></rect>
                                                                <rect id="Rectangle-path" x="0.0480480977" y="2.94495758" width="0.637499404" height="0.637499404"></rect>
                                                                <rect id="Rectangle-path" x="0.933144637" y="2.94495758" width="0.637499404" height="0.637499404"></rect>
                                                                <rect id="Rectangle-path" x="1.81847107" y="2.94495758" width="0.637499404" height="0.637499404"></rect>
                                                            </g>
                                                        </g>
                                                        <g id="Rectangle-path" transform="translate(4.368009, 5.747380)" fill="#D9413D">
                                                            <rect x="0.893372768" y="0.010115389" width="0.485221129" height="3.06312371"></rect>
                                                            <rect x="0.14621335" y="0.758194387" width="1.94767218" height="0.485221129"></rect>
                                                        </g>
                                                        <g id="Rectangle-path" transform="translate(0.689686, 1.839162)" fill="#D9413D">
                                                            <rect x="0.92440862" y="0.129431" width="0.485221129" height="3.06312371"></rect>
                                                            <rect x="0.185755326" y="0.880268738" width="1.94767218" height="0.485221129"></rect>
                                                        </g>
                                                        <g id="Rectangle-path" transform="translate(4.138114, 9.195808)" fill="#D9413D">
                                                            <rect x="0.149431883" y="0.17357088" width="0.637499404" height="0.637499404"></rect>
                                                            <rect x="1.03475832" y="0.17357088" width="0.637499404" height="0.637499404"></rect>
                                                            <rect x="1.92008475" y="0.17357088" width="0.637499404" height="0.637499404"></rect>
                                                            <rect x="0.149431883" y="1.11200311" width="0.637499404" height="0.637499404"></rect>
                                                            <rect x="1.03475832" y="1.11200311" width="0.637499404" height="0.637499404"></rect>
                                                            <rect x="1.92008475" y="1.11200311" width="0.637499404" height="0.637499404"></rect>
                                                            <rect x="0.149431883" y="2.06813726" width="0.637499404" height="0.637499404"></rect>
                                                            <rect x="1.03475832" y="2.06813726" width="0.637499404" height="0.637499404"></rect>
                                                            <rect x="1.92008475" y="2.06813726" width="0.637499404" height="0.637499404"></rect>
                                                            <rect x="0.149431883" y="3.00656949" width="0.637499404" height="0.637499404"></rect>
                                                            <rect x="1.03475832" y="3.00656949" width="0.637499404" height="0.637499404"></rect>
                                                            <rect x="1.92008475" y="3.00656949" width="0.637499404" height="0.637499404"></rect>
                                                        </g>
                                                        <g id="Rectangle-path" transform="translate(0.459791, 5.517485)" fill="#D9413D">
                                                            <rect x="0.180697631" y="0.0629912859" width="0.637499404" height="0.637499404"></rect>
                                                            <rect x="1.06579417" y="0.0629912859" width="0.637499404" height="0.637499404"></rect>
                                                            <rect x="1.95112061" y="0.0629912859" width="0.637499404" height="0.637499404"></rect>
                                                            <rect x="0.180697631" y="1.01912544" width="0.637499404" height="0.637499404"></rect>
                                                            <rect x="1.06579417" y="1.01912544" width="0.637499404" height="0.637499404"></rect>
                                                            <rect x="1.95112061" y="1.01912544" width="0.637499404" height="0.637499404"></rect>
                                                            <rect x="0.180697631" y="1.95755767" width="0.637499404" height="0.637499404"></rect>
                                                            <rect x="1.06579417" y="1.95755767" width="0.637499404" height="0.637499404"></rect>
                                                            <rect x="1.95112061" y="1.95755767" width="0.637499404" height="0.637499404"></rect>
                                                            <rect x="0.180697631" y="2.89576" width="0.637499404" height="0.637499404"></rect>
                                                            <rect x="1.06579417" y="2.89576" width="0.637499404" height="0.637499404"></rect>
                                                            <rect x="1.95112061" y="2.89576" width="0.637499404" height="0.637499404"></rect>
                                                        </g>
                                                    </g>
                                                </g>
                                            </g>
                                        </g>
                                    </g>
                                </g>
                            </g>
                            <path d="M20.2128462,14.8928413 L11.6258005,0.0558645347 L0.135178381,0.0558645347 L9.60755049,16.4331392 L0.135178381,32.8106436 L11.6258005,32.8106436 L20.2128462,17.9736669 C20.7616061,17.0175328 20.7616061,15.8489754 20.2128462,14.8928413 L20.2128462,14.8928413 L20.2128462,14.8928413 Z" id="XMLID_21_"></path>
                            <path d="M20.2128462,14.8928413 L11.6258005,0.0558645347 L0.135178381,0.0558645347 L9.60755049,16.4331392 L0.135178381,32.8106436 L11.6258005,32.8106436 L20.2128462,17.9736669 C20.7616061,17.0175328 20.7616061,15.8489754 20.2128462,14.8928413 L20.2128462,14.8928413 L20.2128462,14.8928413 Z" id="XMLID_20_"></path>
                            <path d="M20.2128462,14.8928413 L11.6258005,0.0558645347 L0.135178381,0.0558645347 L9.60755049,16.4331392 L0.135178381,32.8106436 L11.6258005,32.8106436 L20.2128462,17.9736669 C20.7616061,17.0175328 20.7616061,15.8489754 20.2128462,14.8928413 L20.2128462,14.8928413 L20.2128462,14.8928413 Z" id="XMLID_19_"></path>
                            <polygon id="XMLID_18_" fill="#BF360C" opacity="0.2" points="11.6258005 32.5628166 6.17268624 32.5628166 6.0310708 32.8283456 11.6437323 32.8283456 15.3795294 26.3659914 15.2910198 26.2420779"></polygon>
                            <path d="M20.2128462,14.8928413 L11.6258005,0.0558645347 L0.135178381,0.0558645347 L9.60755049,16.4331392 L0.135178381,32.8106436 L11.6258005,32.8106436 L20.2128462,17.9736669 C20.7616061,17.0175328 20.7616061,15.8489754 20.2128462,14.8928413 L20.2128462,14.8928413 L20.2128462,14.8928413 Z" id="XMLID_17_"></path>
                            <polygon id="XMLID_16_" fill="#263238" opacity="0.2" points="0.294495758 32.5628166 0.152880311 32.8539493 6.0310708 32.8539493 6.17268624 32.5628166"></polygon>
                            <path d="M20.2128462,14.8928413 L11.6258005,0.0558645347 L0.135178381,0.0558645347 L9.60755049,16.4331392 L0.135178381,32.8106436 L11.6258005,32.8106436 L20.2128462,17.9736669 C20.7616061,17.0175328 20.7616061,15.8489754 20.2128462,14.8928413 L20.2128462,14.8928413 L20.2128462,14.8928413 Z" id="XMLID_15_"></path>
                            <polygon id="XMLID_14_" fill="#FFFFFF" opacity="0.2" points="0.135178381 32.8283456 0.276793827 32.8283456 9.67835823 16.5749845 9.58984856 16.451071"></polygon>
                            <path d="M20.2128462,14.8928413 L11.6258005,0.0558645347 L0.135178381,0.0558645347 L9.60755049,16.4331392 L0.135178381,32.8106436 L11.6258005,32.8106436 L20.2128462,17.9736669 C20.7616061,17.0175328 20.7616061,15.8489754 20.2128462,14.8928413 L20.2128462,14.8928413 L20.2128462,14.8928413 Z" id="XMLID_13_"></path>
                            <polygon id="Shape" fill="url(#radialGradient-9)" opacity="0.25" points="15.3615976 26.3659914 11.8736275 22.7187039 8.2263401 18.8589933 9.60732061 16.433369 12.5642328 21.5324447"></polygon>
                            <path d="M20.2128462,14.8928413 L11.6258005,0.0558645347 L0.135178381,0.0558645347 L9.60755049,16.4331392 L0.135178381,32.8106436 L11.6258005,32.8106436 L20.2128462,17.9736669 C20.7616061,17.0175328 20.7616061,15.8489754 20.2128462,14.8928413 L20.2128462,14.8928413 L20.2128462,14.8928413 Z" id="XMLID_12_"></path>
                            <path d="M20.2128462,14.8928413 L11.6258005,0.0558645347 L0.135178381,0.0558645347 L9.60755049,16.4331392 L0.135178381,32.8106436 L11.6258005,32.8106436 L20.2128462,17.9736669 C20.7616061,17.0175328 20.7616061,15.8489754 20.2128462,14.8928413 L20.2128462,14.8928413 L20.2128462,14.8928413 Z" id="XMLID_11_"></path>
                            <path d="M20.2128462,14.8928413 L11.6258005,0.0558645347 L0.135178381,0.0558645347 L9.60755049,16.4331392 L0.135178381,32.8106436 L11.6258005,32.8106436 L20.2128462,17.9736669 C20.7616061,17.0175328 20.7616061,15.8489754 20.2128462,14.8928413 L20.2128462,14.8928413 L20.2128462,14.8928413 Z" id="XMLID_10_"></path>
                            <path d="M20.2128462,14.8928413 L11.6258005,0.0558645347 L0.135178381,0.0558645347 L9.60755049,16.4331392 L0.135178381,32.8106436 L11.6258005,32.8106436 L20.2128462,17.9736669 C20.7616061,17.0175328 20.7616061,15.8489754 20.2128462,14.8928413 L20.2128462,14.8928413 L20.2128462,14.8928413 Z" id="XMLID_9_"></path>
                            <polygon id="XMLID_8_" fill="#1A237E" opacity="0.2" points="18.3005779 21.2669157 18.2297702 21.1430022 15.3615976 26.1004624 0.294495758 0.0558645347 0.152880311 0.0558645347 15.3792995 26.3659914"></polygon>
                            <path d="M20.2128462,14.8928413 L11.6258005,0.0558645347 L0.135178381,0.0558645347 L9.60755049,16.4331392 L0.135178381,32.8106436 L11.6258005,32.8106436 L20.2128462,17.9736669 C20.7616061,17.0175328 20.7616061,15.8489754 20.2128462,14.8928413 L20.2128462,14.8928413 L20.2128462,14.8928413 Z" id="XMLID_6_"></path>
                            <path d="M11.6258005,0.321623392 L20.2128462,15.1586001 C20.4606732,15.6011484 20.5845868,16.0793304 20.6199906,16.5749845 C20.6376925,16.0085227 20.513779,15.4241291 20.2128462,14.9107731 L11.6258005,0.0735664658 L0.135178381,0.0735664658 L0.276793827,0.339095427 L11.6258005,0.339095427 L11.6258005,0.321623392 L11.6258005,0.321623392 L11.6258005,0.321623392 Z" id="XMLID_5_" fill="#FFFFFF" opacity="0.2"></path>
                            <path d="M20.2128462,14.8928413 L11.6258005,0.0558645347 L0.135178381,0.0558645347 L9.60755049,16.4331392 L0.135178381,32.8106436 L11.6258005,32.8106436 L20.2128462,17.9736669 C20.7616061,17.0175328 20.7616061,15.8489754 20.2128462,14.8928413 L20.2128462,14.8928413 L20.2128462,14.8928413 Z" id="XMLID_4_"></path>
                            <path d="M18.3005779,21.2669157 L20.1951443,17.9736669 C20.4960771,17.4603109 20.6199906,16.8759173 20.6022887,16.3094555 C20.5845868,16.8051096 20.4606732,17.2832916 20.1951443,17.7258399 L18.2120682,21.1430022 L18.3005779,21.2669157 L18.3005779,21.2669157 L18.3005779,21.2669157 Z" id="XMLID_3_" fill="#3E2723" opacity="0.2"></path>
                            <path d="M20.2128462,14.8928413 L11.6258005,0.0558645347 L0.135178381,0.0558645347 L9.60755049,16.4331392 L0.135178381,32.8106436 L11.6258005,32.8106436 L20.2128462,17.9736669 C20.7616061,17.0175328 20.7616061,15.8489754 20.2128462,14.8928413 L20.2128462,14.8928413 L20.2128462,14.8928413 Z" id="XMLID_2_"></path>
                            <path d="M20.2128462,14.8928413 L11.6258005,0.0558645347 L0.135178381,0.0558645347 L9.60755049,16.4331392 L0.135178381,32.8106436 L11.6258005,32.8106436 L20.2128462,17.9736669 C20.7616061,17.0175328 20.7616061,15.8489754 20.2128462,14.8928413 L20.2128462,14.8928413 L20.2128462,14.8928413 Z" id="XMLID_1_" fill="url(#radialGradient-10)"></path>
                        </g>
                    </g>
                </g>
            </g>
        </g>
    </g>
</svg>